<svg xmlns="http://www.w3.org/2000/svg" xmlns:xlink="http://www.w3.org/1999/xlink" version="1.1" x="0px" y="0px" viewBox="0 0 100 125" enable-background="new 0 0 100 100" xml:space="preserve"><path d="M56.3,31.3c10.3,0,19.1,6.2,23,15.1c0.6-0.5,1.1-1,1.6-1.5c5.4-5.4,9.5-11.3,11.5-16.7c2.3-6.1,1.8-11-1.4-14.2  c-2.7-2.7-7.4-4.1-13.4-4.1c-9.2,0-22.9,3.8-33.4,14.3c-4.4,4.4-5.6,5.6-9.1,11.7l-0.5,0.8l3,3C42.1,34.5,48.8,31.3,56.3,31.3z"/><path d="M23.5,54.1l-0.9,0.8c-1,0.9-2.1,1.8-3.4,2.8c-1.6,1.2-3.7,2.8-6.2,5c-9.7,8.5-7.2,18.8-3,23.6c2.1,2.4,5.4,3.8,8.8,3.8  c0,0,0,0,0,0c3.4,0,6.6-1.3,9-3.8l11-12.2c-3.1-3.1-5.4-6.9-6.6-11.3L23.5,54.1z"/><path d="M56.3,41.3c-6.1,0-11.4,3.7-13.8,9L57.3,64l0.8-0.5c1.8-1,3.7-2,5.7-3.1c2.5-1.3,5-2.6,7.4-4c0-0.1,0-0.1,0-0.2  C71.3,48,64.5,41.3,56.3,41.3z"/><path d="M95.5,92L73.8,70.3c3.1-3.8,4.9-8.7,4.9-14c0-12.4-10.1-22.5-22.5-22.5S33.8,43.8,33.8,56.3c0,12.4,10.1,22.5,22.5,22.5  c5.3,0,10.2-1.8,14-4.9L92,95.5L95.5,92z M38.8,56.3c0-9.7,7.8-17.5,17.5-17.5s17.5,7.8,17.5,17.5s-7.8,17.5-17.5,17.5  S38.8,65.9,38.8,56.3z"/><text x="0" y="115" fill="#000000" font-size="5px" font-weight="bold" font-family="'Helvetica Neue', Helvetica, Arial-Unicode, Arial, Sans-serif">Created by Arthur Shlain</text><text x="0" y="120" fill="#000000" font-size="5px" font-weight="bold" font-family="'Helvetica Neue', Helvetica, Arial-Unicode, Arial, Sans-serif">from the Noun Project</text></svg>