<svg xmlns="http://www.w3.org/2000/svg" xmlns:xlink="http://www.w3.org/1999/xlink" version="1.0" x="0px" y="0px" viewBox="0 0 100 125" style="enable-background:new 0 0 100 100;" xml:space="preserve"><path d="M77.3986816,35.7851181l-0.1697845-0.372963c-0.3643799-0.7936172-0.7783585-1.6931114-0.9777145-3.0342484  c-0.2651749-1.7832546,0.0314789-3.1978397,0.1898193-3.9575939l0.0446548-0.2168255  c0.0105515-0.0478725,0.0203247-0.1018848,0.0270081-0.1678219c0.7629089-4.1767426-1.1270599-8.3935509-2.0442581-10.4341087  C70.2122498,8.1368132,59.7216263,5.6219435,59.2771225,5.5194025c-1.8371468-0.4235168-3.0104027-0.4750257-3.9203911-0.1712189  c-0.523674,0.1750345-0.8775558,0.4182706-1.161808,0.6138134c-0.3214531,0.22082-0.4349632,0.2909293-0.6781998,0.2956986  c-0.7659569,0.0176463-1.873394,0.0109692-2.9054794,0.0047693l-1.113163-0.0047693L48.3443794,6.262465  c-1.0187302,0.0052462-2.1032753,0.0109692-2.8592148-0.0047693c-0.2432365-0.0047693-0.3562698-0.0748787-0.6772461-0.2956986  c-0.284729-0.1960196-0.6390915-0.4392557-1.1627617-0.6142902c-0.9114227-0.3042836-2.0832481-0.2527747-3.9203949,0.1712189  c-0.4445,0.102541-10.9356041,2.6174107-15.1917572,12.0816774c-0.92066,2.0468178-2.8215981,6.2851467-2.0386524,10.4748268  c0.0050678,0.0386314,0.0104332,0.0746994,0.0169315,0.1062374c0.0010128,0.0050087,0.0013714,0.0099564,0.0023842,0.0149632  l0.0453091,0.2217751c0.1588192,0.7597542,0.4549942,2.1748161,0.1898193,3.9585476  c-0.199358,1.3420906-0.6128597,2.2420616-0.9781914,3.0361557l-0.1683559,0.3705788  c-0.7483101,1.6821442-3.0123119,7.5398407-0.7196922,12.2915268c1.2948723,2.6803665,3.2894077,4.3458176,5.617321,4.689209  c2.6674881,0.3929939,4.3520164-0.8928185,6.8745155-3.0261421c1.7188683-1.4551239,4.3701439-2.5802078,4.8117828-2.2000923  c1.682621,2.8439522,3.5030746,11.801239,4.2036896,16.9597511c0.9014053,6.6398621,0.6796303,12.3697433,0.5017357,16.9740601  c-0.2441902,6.3231812-0.4206543,10.8922043,2.6894264,13.0145569c1.3406601,0.9147568,2.3069267,0.9958344,3.530262,0.9958344  c0.2522964,0,0.5227165,0,0.7750168,0c1.2238083,0,2.1900787-0.0810776,3.5293045-0.9948807  c3.1105614-2.1233063,2.9340973-6.6923294,2.6908607-13.0164642c-0.1783752-4.6043167-0.398716-10.3332443,0.5026855-16.9731064  c0.7010918-5.1585121,2.5220261-14.1153221,4.2113228-16.9697685c0.4149323-0.3619919,3.1181908,0.7831268,4.8055801,2.2105865  c2.5210724,2.1338005,4.2094116,3.4215202,6.8735657,3.026619c2.3293381-0.3424377,4.3248291-2.0088425,5.6173172-4.6896858  C80.4081345,43.3282967,78.1465149,37.4682159,77.3986816,35.7851181z M26.314827,18.4013729  c3.8622074-8.5886164,13.7490349-10.955637,13.8491936-10.978529c1.868145-0.4325786,2.5282211-0.3343306,2.8630295-0.2217741  c0.261837,0.0872788,0.4530869,0.2184353,0.6739082,0.3705773c0.4030075,0.2770982,0.9042625,0.6219211,1.7441444,0.6395679  c0.7692947,0.0157385,1.8738708,0.0104923,2.9092941,0.0047693l1.1432076-0.0047693l1.1031494,0.0047693  c1.0521126,0.0066767,2.1776772,0.0109692,2.9560318-0.0047693c0.8403549-0.0176468,1.3411369-0.3624697,1.7446213-0.6395679  c0.2203445-0.1516647,0.4111176-0.2828217,0.6734314-0.3701005c0.3348045-0.1111255,0.9948807-0.2093735,2.8635063,0.2217741  c0.0992012,0.022893,9.9860344,2.3899136,13.8482399,10.9799595c0.6154251,1.3683815,1.5862198,3.5341969,1.9306259,5.9099216  c-0.4022369-0.4321613-0.8780365-0.8947868-1.4613266-1.3952694c-11.4044304-9.2706308-17.0389214-7.4911928-17.8315849-7.1654472  c-0.3147736,0.102541-2.0698891,0.6934605-3.6905098,1.6292038c-1.3363686,0.7707253-2.9307556,0.7702484-4.265213-0.0004768  c-1.6206207-0.9357433-3.3752594-1.5271397-3.6900368-1.6296806c-0.7912292-0.3252687-6.4271545-2.1051846-17.8530464,7.1792774  c-0.574049,0.4923744-1.0430527,0.9480247-1.4406357,1.3743439C24.7304554,21.9321117,25.7000008,19.7690392,26.314827,18.4013729z   M32.1124306,48.2469101c-2.4109001,2.0398445-3.5731869,2.8444328-5.3273468,2.58498  c-1.6916828-0.2499123-3.1243916-1.4966164-4.1431198-3.6065712c-1.9768906-4.096859,0.2737598-9.5882683,0.7449684-10.6475372  l0.1588192-0.3486366c0.2941494-0.6399269,0.6689587-1.47295,0.9358025-2.5703735  c0.740797,0.1174431,1.8406658,0.2438889,3.1953945,0.2438889c1.3268299,0,2.88801-0.1285896,4.5529251-0.5003014  c1.9890518,0.3848267,4.5828552,0.5818596,7.7257271,0.5823364c0.0004768,0,0.0009537,0,0.0014305,0  c1.0979576,0,2.0577278-0.166748,2.8741188-0.496727c-0.4677544,0.9548798-1.0521164,1.7600632-1.7662048,2.3868141  c-0.523674,0.4597626-1.1637154,0.8680191-1.7818222,1.2624435c-1.4546471,0.9276352-3.1029282,1.9787941-3.319458,3.9170532  c-0.1468925,1.3177643,0.3252716,2.2744942,0.3796387,2.3789444c0.3430939,0.7002563,0.6756363,1.4216156,0.9990578,2.1515656  C35.2791481,45.8977165,32.771431,47.6889,32.1124306,48.2469101z M32.1629829,30.8011646  c2.8420486-3.501646,5.6821861-5.5095348,7.7930946-5.5095348h0.0004768  c3.6356621,0.0004768,4.000515,2.3579578,4.0300865,2.6269493l0.0071526,0.0558014  c0.0023842,0.01717,0.2499123,1.7422371-0.7449684,2.8983231c-0.6610298,0.7688179-1.7684708,1.1584702-3.2917938,1.1584702  c-0.0004768,0-0.0009537,0-0.0014305,0c-3.8817635-0.0004768-6.2411537-0.3157272-7.5369797-0.5804253  c-0.2155762-0.0438786-0.2952232-0.2060356-0.3190689-0.2737598C32.0718918,31.1002007,32.0432739,30.9485359,32.1629829,30.8011646  z M60.9110985,42.5537567c-0.6516724,1.3278999-1.2660789,2.7024231-1.8288612,4.0846367  c-1.9962044,3.4862633-3.8295364,13.3309441-4.4094276,17.5962791c-0.9242973,6.8087006-0.6991844,12.6320572-0.5189056,17.3117294  c0.2279739,5.9092026,0.378685,9.8133774-1.8390541,11.3271637c-0.9758034,0.6648483-1.4737244,0.6581726-2.8077049,0.6533966  l-0.0085869,1.2247696l-0.0081062-1.2247696c-1.3316002,0.0057297-1.8319016,0.0124054-2.8081856-0.6543503  c-2.2172623-1.5128326-2.0665512-5.4170074-1.8385773-11.3252563c0.1812363-4.6796722,0.4058685-10.5039825-0.518425-17.3126831  c-0.6875-5.0632439-2.4908447-14.2786102-4.4195633-17.6199455c-0.5601006-1.3741646-1.1708145-2.7406387-1.8187256-4.0609703  c-0.0066795-0.0138321-0.2632675-0.5527649-0.1812363-1.2829514c0.1125565-1.0101433,1.1847038-1.6940651,2.4275894-2.4862518  c0.6801071-0.4340096,1.3840637-0.8832817,2.021244-1.4417725c2.0851555-1.8314209,3.3146896-4.7073326,3.652359-8.5480747  c0.0171661-0.4039631,0.2384644-3.501646,3.4906731-3.501646v-1.9535179c-2.2379494,0-3.6181946,1.0075798-4.4308891,2.2247143  c-0.0010147-0.0014896-0.001194-0.0050068-0.0022659-0.0064392c-0.8577042-1.1678905-2.4339104-2.219408-5.1078949-2.2197075  c-0.0004768,0,0,0-0.0004768,0c-3.5140457,0-7.0023384,3.3890896-9.309742,6.23209  c-0.5070992,0.6247215-0.6497021,1.4443321-0.3995495,2.2052803c-2.3860397,0.3171597-4.4003677,0.1176224-5.4688168-0.0496025  c0.1112442-1.6845284-0.1618595-3.015173-0.3069668-3.7076206l-0.0368423-0.1784325  c0.0041733-0.1073093,0.1113625-1.2372246,2.6432838-3.4100132c10.9289265-8.8814535,15.7979412-6.8978882,15.8270321-6.8859634  l0.1368828,0.0548458c0.0176468,0.005724,1.7894516,0.5732746,3.3504562,1.4742012  c1.9458885,1.1236553,4.2699852,1.1250858,6.2187347,0.0004768c1.560524-0.9009266,3.3328094-1.4680004,3.3499794-1.4737244  l0.1182785-0.045784c0.0496025-0.0214634,4.9181366-2.0031214,15.8246498,6.8630714  c2.5255432,2.1668854,2.6559219,3.2981129,2.6626587,3.424799l-0.0366592,0.1784325  c-0.1455841,0.6922684-0.4186325,2.0230904-0.3072052,3.7086334c-1.068512,0.1666889-3.0837326,0.3659878-5.4713821,0.0486469  c0.2510452-0.7614841,0.1084442-1.5819874-0.3991318-2.2072468c-2.3074036-2.8430004-5.7956963-6.23209-9.309742-6.23209  c-0.0004768,0,0,0-0.0004768,0c-2.6739883,0.0002995-4.2501907,1.0518169-5.1078987,2.2197075  c-0.0010719,0.0014324-0.0012512,0.0049496-0.0022621,0.0064392c-0.8126945-1.2171345-2.1929398-2.2247143-4.4308929-2.2247143  v1.9535179c3.2522087,0,3.4735069,3.097683,3.4906769,3.501646c0.3376694,3.8407421,1.5672035,6.7166538,3.6523552,8.5480747  c0.6371841,0.5584908,1.3411369,1.0077629,2.021244,1.4417725c1.2428894,0.7921867,2.315033,1.4761086,2.4275894,2.4862518  C61.174366,42.0009918,60.9177742,42.5399246,60.9110985,42.5537567z M66.8985214,31.1769886  c-0.0238495,0.0677242-0.1034927,0.2298813-0.3190689,0.2737598c-1.2958298,0.264698-3.65522,0.5799484-7.5369797,0.5804253  c-0.0004768,0-0.0009537,0-0.0014305,0c-1.5233269,0-2.630764-0.3896523-3.2917938-1.1584702  c-0.9948845-1.156086-0.7473564-2.8811531-0.7449722-2.8983231l0.0071564-0.0558014  c0.0295677-0.2689915,0.3944244-2.6264725,4.0300865-2.6269493h0.0004768c2.1109085,0,4.951046,2.0078888,7.7930946,5.5095348  C66.9547958,30.9485359,66.926178,31.1002007,66.8985214,31.1769886z M76.358017,47.2272263  c-0.7096786,1.4708633-2.0040741,3.2908401-4.1426468,3.6056175c-1.7598801,0.2604065-2.9178772-0.5456123-5.3273468-2.58498  c-0.6593552-0.5582504-3.1634941-2.3473473-5.2332687-2.6608696c0.323719-0.7306633,0.656559-1.4528008,1.0000114-2.1537704  c0.0543709-0.1044502,0.526535-1.0611801,0.3796387-2.3789444c-0.216526-1.9382591-1.8648109-2.989418-3.3194542-3.9170532  c-0.6181068-0.3944244-1.258152-0.802681-1.781826-1.2624435c-0.7140884-0.6267509-1.2984505-1.4319344-1.766201-2.3868141  c0.816391,0.3299789,1.7761574,0.496727,2.8741188,0.496727c0.0004768,0,0.0009537,0,0.0014305,0  c3.1406059-0.0004768,5.7329788-0.1972733,7.7213745-0.581501c1.6689072,0.373558,3.2331924,0.5028076,4.5625229,0.5028076  c1.353653,0,2.4527512-0.1263885,3.1929474-0.2437134c0.2668457,1.0950966,0.6405258,1.9263916,0.934433,2.5654221  l0.1592941,0.3510246C76.084259,37.6384811,78.3334732,43.1327553,76.358017,47.2272263z"/><text x="0" y="115" fill="#000000" font-size="5px" font-weight="bold" font-family="'Helvetica Neue', Helvetica, Arial-Unicode, Arial, Sans-serif">Created by Francesca De Riso</text><text x="0" y="120" fill="#000000" font-size="5px" font-weight="bold" font-family="'Helvetica Neue', Helvetica, Arial-Unicode, Arial, Sans-serif">from the Noun Project</text></svg>