<svg xmlns="http://www.w3.org/2000/svg" xmlns:xlink="http://www.w3.org/1999/xlink" version="1.0" x="0px" y="0px" viewBox="0 0 100 125" style="enable-background:new 0 0 100 100;" xml:space="preserve"><path d="M87.3066406,54.0535889c-0.1982422-13.7109375-0.2978516-20.5932617-4.2587891-28.5131836  c-2.7607422-5.5200195-6.7949219-10.3745117-11.9921875-14.4291992c-0.6542969-0.5097656-1.5263672-0.5029297-2.1708984,0.0117188  c-0.6396484,0.5112305-0.8349609,1.3540039-0.4863281,2.0957031c2.2617188,4.8251953,6.2314453,13.4199219,7.3984375,16.7744141  c0.6943359,1.9951172,0.3076172,3.9790039-0.2792969,5.4990234c-0.6210938-4.8237305-2.4101563-11.6064453-7.2666016-18.1669922  C62.6855469,9.8045654,55.6318359,5.9940186,50.6953125,4.12146c-0.7666016-0.2905273-1.6186523-0.0166016-2.0717773,0.6679688  c-0.4521484,0.6821289-0.3740234,1.5717773,0.190918,2.1630859c3.3046875,3.4604492,7.5722656,9.2568359,9.140625,17.2202148  c0.8847656,4.4892578,1.0644531,8.3857422,0.4794922,9.8798828c-0.0419922,0.0927734-4.2255859,9.331543-5.6259766,11.9980469  c-0.9638672,1.8374023-2.2011719,6.5234375-3.0688477,10.1298828c-0.0898438,0.3730469-0.3276367,0.6738281-0.6704102,0.8486328  c-0.34375,0.1738281-0.7446289,0.1884766-1.1010742,0.0410156c0,0,0,0-0.0004883,0  c-2.0229492-0.8388672-4.1079102-1.5537109-6.1967773-2.1240234c-2.9760742-0.8125-6.0449219-1.6455078-10.1904297-1.5664063  c-2.3325195,0.0488281-4.6650391,0.3867188-6.9321289,1.0048828c-0.034668,0.0097656-0.0688477,0.0205078-0.1020508,0.0341797  c-0.0317383,0.0126953-3.1743164,1.2226563-6.440918,0.9384766c-0.6035156-0.0527344-1.4121094-0.1767578-1.8369141-0.4628906  c-0.340332-0.2294922-0.6337891-0.5449219-0.8735352-0.9375c-0.3349609-0.5498047-0.9804688-0.8144531-1.6025391-0.6601563  c-0.6235352,0.1542969-1.0693359,0.6904297-1.109375,1.3320313c-0.2661133,4.2646484-0.2548828,12.8740234,2.8154297,22.6220703  c2.1489258,6.8212891,3.2270508,10.2460938,6.8325195,13.3886719c0.2709961,0.2363281,6.75,5.7792969,17.2045898,5.84375  c0.6293945,0,1.1889648-0.015625,1.1904297-0.015625c1.5463867-0.0546875,2.5253906-0.2207031,3.4716797-0.3818359  c0.605957-0.1025391,1.1777344-0.2001953,1.8984375-0.2695313c0.237793-0.0224609,0.2841797-0.0185547,0.7270508-0.0136719  c0.4848633,0.0068359,1.3808594,0.0185547,3.2626953,0.0185547s2.7783203-0.0117188,3.2626953-0.0185547  c0.4453125-0.0048828,0.4912109-0.0087891,0.7265625,0.0136719c0.7207031,0.0693359,1.2929688,0.1669922,1.8984375,0.2695313  c0.9462891,0.1611328,1.9257813,0.3271484,3.4736328,0.3818359c0,0,0.4599609,0.0166016,1.0117188,0.0166016  c0.0585938,0,0.1171875-0.0009766,0.1767578-0.0009766c10.4648438-0.0644531,16.9355469-5.6083984,17.2050781-5.8447266  c3.9130859-3.4150391,5.140625-7.6064453,6.8388672-13.4082031C85.8916016,73.0887451,87.4814453,66.1815186,87.3066406,54.0535889z   M82.7597656,76.6678467c-1.8144531,6.1982422-2.9160156,9.5683594-6.2324219,12.4638672  c-0.0615234,0.0527344-6.2138672,5.2919922-15.9042969,5.3515625c-0.5761719-0.0019531-1.0996094-0.0136719-1.1064453-0.0136719  c-1.0450439-0.0375366-1.7923584-0.1281738-2.484314-0.2362061c0.776062-1.2191162,1.093689-3.0681152,0.9286499-5.538208  c-0.0371094-0.5507813-0.5175781-0.9482422-1.0644531-0.9316406c-0.5517578,0.0371094-0.96875,0.5136719-0.9316406,1.0644531  c0.2099609,3.1259766-0.4599609,4.2705078-0.8779297,4.6748047c-0.3583984,0.3476563-0.7216797,0.3369141-0.7753906,0.328125  c-0.0001221,0-0.0002441,0-0.0003662,0c-0.0154419-0.0015259-0.0289917-0.0033569-0.0445557-0.0048828  c-0.2089844-0.0205078-0.3037109-0.0273438-0.5234375-0.0273438c-0.1044922,0-0.2363281,0.0019531-0.4208984,0.0039063  c-0.4814453,0.0068359-1.3701172,0.0185547-3.2363281,0.0185547c-1.8666992,0-2.7548828-0.0117188-3.2358398-0.0185547  c-0.5761719-0.0068359-0.6376953-0.0068359-0.9448242,0.0234375c-0.0268555,0.0025635-0.050415,0.0058594-0.0769043,0.0084839  c-0.0229492-0.0025635-0.362793,0.0145264-0.7077637-0.2985229c-0.4326172-0.3916016-1.1264648-1.5234375-0.9135742-4.7080078  c0.0371094-0.5507813-0.3798828-1.0273438-0.9306641-1.0644531c-0.5566406-0.0263672-1.027832,0.3808594-1.0644531,0.9316406  c-0.1657715,2.4697266,0.1516113,4.3184814,0.9275513,5.538147c-0.6920166,0.1080933-1.4390869,0.1987305-2.4832153,0.2362671  c-0.0068359,0-0.5288086,0.015625-1.1079102,0.0136719c-9.6816406-0.0595703-15.8432617-5.2998047-15.902832-5.3515625  c-3.1811523-2.7724609-4.203125-6.0175781-6.2397461-12.4833984c-2.6723633-8.484375-2.9516602-16.0742188-2.793457-20.5195313  c0.1694336,0.1552734,0.3491211,0.296875,0.5380859,0.4238281c0.2329102,0.1572266,0.9428711,0.6357422,2.7797852,0.796875  c3.5234375,0.3134766,6.8134766-0.8681641,7.2919922-1.0478516c2.0942383-0.5673828,4.2470703-0.8779297,6.3999023-0.921875  c3.8378906-0.0898438,6.7832031,0.7207031,9.621582,1.4960938c2.0078125,0.5478516,4.012207,1.2353516,5.9580078,2.0419922  c0.8974609,0.3730469,1.909668,0.3330078,2.7744141-0.1064453c0.8598633-0.4375,1.4829102-1.2255859,1.7084961-2.1621094  c1.1894531-4.9433594,2.2177734-8.3774414,2.8955078-9.6689453c1.4267578-2.7177734,5.5039063-11.7211914,5.6962891-12.1499023  c1.0917969-2.7802734,0.1132813-8.6499023-0.3583984-11.0444336c-1.5410156-7.8227539-5.5283203-13.6577148-8.8808594-17.3779297  c4.5996094,1.9042969,10.7119141,5.4936523,15.6064453,12.1064453c4.9169922,6.644043,6.5185547,13.5317383,6.9951172,18.1401367  c0.0810547,0.7832031,0.6572266,1.3999023,1.4326172,1.534668c0.7783203,0.1362305,1.53125-0.2524414,1.8730469-0.9638672  c0.9228516-1.9174805,1.8007813-4.8432617,0.7412109-7.8896484c-1.1181641-3.2148438-4.6865234-10.9956055-7.0087891-15.9677734  c4.5507813,3.7280273,8.1074219,8.1191406,10.5820313,13.0668945c3.7568359,7.5112305,3.8544922,14.2407227,4.0478516,27.652832  C85.4775391,65.9403076,83.9355469,72.6512451,82.7597656,76.6678467z"/><path d="M31.0668945,58.7137451c-2.0927734,0.2822266-5.9262695,1.7294922-9.309082,3.0058594  c-0.3979492,0.1503906-1.7817383,0.3320313-2.8457031-0.1142578c-0.7817383-0.3261719-1.2695313-0.1113281-1.5419922,0.125  c-0.4165039,0.3613281-0.4624023,0.8847656-0.3657227,1.2597656c1.3491211,5.0957031,2.9204102,7.6083984,4.2871094,9.5654297  c2.2944336,3.2832031,5.7617188,8.2460938,11.2578125,9.2138672h-0.0004883  c0.3769531,0.0664063,2.3232422,0.1005859,5.8071289,0.1005859c1.5200195,0,3.3505859-0.007019,5.4522705-0.0198364  c0.0006104,0,0.0012207,0.0003052,0.0018311,0.0003052c0.0007324,0,0.0014038-0.0003052,0.0021362-0.0003052  c0.3032227-0.0018311,0.5947266-0.003479,0.9099731-0.0055542c0.7416992-0.0048828,1.4360352-0.2978516,1.9550781-0.8251953  c0.5161133-0.5234375,0.7963867-1.2167969,0.7895508-1.9521484c-0.0366211-3.7763672-0.8476563-9.2050781-4.5058594-13.6259766  C37.831543,59.2469482,33.6591797,58.368042,31.0668945,58.7137451z M32.8891602,79.7987061  c-4.0543823-0.7173462-6.8878174-4.0991211-9.0235596-7.0668335c0.8598633-0.0320435,1.8417358-0.0960083,2.7930908-0.2368774  c1.0356445-0.1533203,1.753418-0.3115234,2.3300781-0.4394531c0.590332-0.1308594,1.0571289-0.234375,1.6611328-0.2910156  c0.0258789-0.0029297,2.4887695-0.2119141,5.1240234,0.8017578c3.7318726,1.4344482,5.7573242,5.2440186,6.6074829,7.2910156  C37.0045166,79.8817749,33.3686523,79.8613281,32.8891602,79.7987061z M45.2519531,79.6170654  c-0.1435547,0.1455078-0.3359375,0.2265625-0.5424805,0.2275391c-0.0618896,0.0003662-0.1205444,0.0007324-0.1820679,0.0010986  c-0.7654419-2.1131592-3.0811768-7.2420044-8.0357056-9.1466064c-3.0893555-1.1875-5.9091797-0.9384766-6.0288086-0.9257813  c-0.7290039,0.0693359-1.2744141,0.1894531-1.90625,0.3291016c-0.5742188,0.1269531-1.2250977,0.2714844-2.1904297,0.4140625  c-1.3823242,0.204895-2.8852539,0.2352905-3.8765869,0.2472534c-1.0331421-1.5484619-2.1578369-3.5594482-3.1834717-6.9777222  c1.3344727,0.2324219,2.6289063,0.0039063,3.1582031-0.1953125c3.1201172-1.1777344,7.0024414-2.6435547,8.8696289-2.8945313  c2.0917969-0.2841797,5.5419922,0.5322266,10.0878906,6.0224609c3.2827148,3.9667969,4.0117188,8.9150391,4.0449219,12.3681641  C45.46875,79.2860107,45.3925781,79.4744873,45.2519531,79.6170654z"/><path d="M75.0058594,46.3411865c-5.2294922-3.9033203-9.7675781-5.0976563-13.4970703-3.5483398  c-1.875,0.7788086-4.3408203,2.6005859-6.796875,9.8339844c-1.7734375,5.2207031-3.3583984,15.3115234-1.9892578,26.5703125  c0.1884766,1.5507813,1.3144531,2.6386719,2.7373047,2.6474609c0.3153076,0.0020752,0.6066895,0.0037231,0.9099121,0.0055542  c0.0007324,0,0.0014648,0.0003052,0.0021973,0.0003052c0.0006714,0,0.0012207-0.0003052,0.0018921-0.0003052  c2.1030273,0.0128174,3.9330444,0.0198364,5.453186,0.0198364c3.4833984,0,5.4296875-0.0341797,5.8066406-0.1005859  c5.4941406-0.9677734,8.9619141-5.9306641,11.2568359-9.2138672c0.4609375-0.6601563,1.0673828-1.5595703,1.671875-2.6748047  c1.5-2.7685547,2.3544922-5.4814453,2.6308594-6.9619141C84.3232422,56.8914795,79.9296875,50.0169678,75.0058594,46.3411865z   M67.296875,79.7987061c-0.4642334,0.0634766-4.1046143,0.0847168-9.4954834,0.0591431  c0.8512573-2.0478516,2.878418-5.8585205,6.6068115-7.2915649c2.6357422-1.0126953,5.0976563-0.8037109,5.1220703-0.8027344  c0.6064453,0.0576172,1.0732422,0.1611328,1.6640625,0.2919922c0.5761719,0.1279297,1.2939453,0.2861328,2.3291016,0.4394531  c0.9518433,0.1408691,1.934082,0.204834,2.7940063,0.2368774C74.1796875,75.7003784,71.3449707,79.0846558,67.296875,79.7987061z   M81.2275391,62.5506592c-0.2011719,1.078125-0.9375,3.6347656-2.4228516,6.3769531  c-0.3834229,0.7076416-0.7681274,1.3185425-1.112915,1.8361206c-0.9912109-0.0119629-2.4929199-0.0423584-3.8753662-0.2472534  c-0.9658203-0.1425781-1.6162109-0.2871094-2.1904297-0.4140625c-0.6318359-0.1396484-1.1777344-0.2597656-1.90625-0.3291016  c-0.1220703-0.0126953-2.9404297-0.2617188-6.0283203,0.9257813c-4.9514771,1.9031982-7.2697754,7.0339355-8.0358276,9.1466064  c-0.0618286-0.0004272-0.1207275-0.0006714-0.1829224-0.0010986c-0.5185547-0.0029297-0.7246094-0.5595703-0.7636719-0.8876953  v-0.0009766c-1.3291016-10.9248047,0.1914063-20.6650391,1.8974609-25.6865234  c2.4794922-7.3037109,4.796875-8.2670898,5.6699219-8.6298828c0.8056641-0.3349609,1.671875-0.5019531,2.5957031-0.5019531  c2.5507813,0,5.5439453,1.2729492,8.9365234,3.8061523C78.8886719,51.7352295,82.078125,58.0145264,81.2275391,62.5506592z"/><path d="M72.9238281,59.9852295c-1.2734375,2.1064453-0.8662109,4.4335938-0.5068359,6.4863281l0.1035156,0.5966797  c0.0820313,0.4882813,0.5058594,0.8339844,0.9853516,0.8339844c0.0546875,0,0.1103516-0.0048828,0.1669922-0.0136719  c0.5449219-0.0917969,0.9121094-0.6074219,0.8203125-1.1523438l-0.1054688-0.6103516  c-0.328125-1.8720703-0.6386719-3.640625,0.2480469-5.1064453c0.2207031-0.3642578,0.8916016-1.4746094,1.8173828-1.4912109  c0.5166016-0.0019531,1.3291016,0.3095703,1.5390625,1.0449219c0.1533203,0.5361328-0.0507813,1.1494141-0.5185547,1.5634766  c-0.4130859,0.3662109-0.4521484,0.9980469-0.0859375,1.4121094c0.3671875,0.4130859,0.9990234,0.4511719,1.4121094,0.0859375  c1.0410156-0.921875,1.4785156-2.3388672,1.1162109-3.6103516c-0.4765625-1.671875-2.1552734-2.4892578-3.4990234-2.4960938  C75.0703125,57.5526123,73.8955078,58.3787842,72.9238281,59.9852295z"/><text x="0" y="115" fill="#000000" font-size="5px" font-weight="bold" font-family="'Helvetica Neue', Helvetica, Arial-Unicode, Arial, Sans-serif">Created by Francesca De Riso</text><text x="0" y="120" fill="#000000" font-size="5px" font-weight="bold" font-family="'Helvetica Neue', Helvetica, Arial-Unicode, Arial, Sans-serif">from the Noun Project</text></svg>