<svg xmlns="http://www.w3.org/2000/svg" xmlns:xlink="http://www.w3.org/1999/xlink" version="1.1" x="0px" y="0px" viewBox="0 0 100 125" style="enable-background:new 0 0 100 100;" xml:space="preserve"><style type="text/css">
	.st0{fill-rule:evenodd;clip-rule:evenodd;}
</style><path d="M50,60.44c-8.233,0-14.931,6.698-14.931,14.931c0,8.233,6.698,14.931,14.931,14.931s14.931-6.698,14.931-14.931  C64.931,67.138,58.233,60.44,50,60.44z M50,88.424c-7.198,0-13.053-5.856-13.053-13.053S42.802,62.318,50,62.318  s13.053,5.856,13.053,13.053S57.197,88.424,50,88.424z M95.084,18.432l-5.622-9.738c-1.226-2.123-3.334-3.34-5.785-3.34H16.323  c-2.451,0-4.559,1.217-5.785,3.34l-5.622,9.738c-1.225,2.123-1.225,4.557,0,6.68L31.28,70.776c-0.362,1.473-0.555,3.012-0.555,4.595  c0,10.628,8.647,19.275,19.275,19.275c10.628,0,19.275-8.647,19.275-19.275c0-1.583-0.193-3.122-0.555-4.596l26.364-45.664  C96.309,22.989,96.309,20.555,95.084,18.432z M90.375,14.033L63.111,61.256c-1.435-1.334-3.073-2.452-4.862-3.303L86.85,8.414  c0.381,0.34,0.713,0.748,0.985,1.219L90.375,14.033z M43.499,57.226L23.572,22.711h52.857L56.501,57.226  c-2.032-0.73-4.221-1.129-6.501-1.129S45.531,56.496,43.499,57.226z M77.512,20.833H22.488l-3.384-5.862h61.794L77.512,20.833z   M83.677,7.232c0.543,0,1.063,0.084,1.548,0.244l-3.244,5.618H18.019l-3.244-5.618c0.485-0.16,1.005-0.244,1.548-0.244H83.677z   M12.165,9.633c0.272-0.47,0.604-0.879,0.985-1.219l28.601,49.539c-1.789,0.851-3.427,1.969-4.862,3.303L9.624,14.033L12.165,9.633z   M6.542,24.173c-0.881-1.526-0.881-3.276,0-4.802L8.54,15.91l26.988,46.744c-1.469,1.669-2.654,3.593-3.48,5.697L6.542,24.173z   M50,92.768c-9.593,0-17.397-7.804-17.397-17.397c0-9.593,7.804-17.397,17.397-17.397c9.593,0,17.397,7.804,17.397,17.397  C67.397,84.964,59.593,92.768,50,92.768z M93.458,24.173L67.951,68.351c-0.825-2.104-2.011-4.028-3.48-5.697L91.459,15.91  l1.998,3.461C94.338,20.897,94.338,22.647,93.458,24.173z"/><text x="0" y="115" fill="#000000" font-size="5px" font-weight="bold" font-family="'Helvetica Neue', Helvetica, Arial-Unicode, Arial, Sans-serif">Created by Nuricon</text><text x="0" y="120" fill="#000000" font-size="5px" font-weight="bold" font-family="'Helvetica Neue', Helvetica, Arial-Unicode, Arial, Sans-serif">from the Noun Project</text></svg>