<svg xmlns="http://www.w3.org/2000/svg" viewBox="0 0 64 80" x="0px" y="0px"><title>passport-ticket-Flight-travel</title><g><circle cx="32" cy="28" r="2"/><path d="M20,27v1a1,1,0,0,0,1,1h3V27H20Z"/><path d="M26,35.341l6,2.571,6-2.571V21H26ZM32,24a4,4,0,1,1-4,4A4,4,0,0,1,32,24Z"/><path d="M22,31v1a1,1,0,0,0,1,1h1V31H22Z"/><polygon points="46 4.263 21.617 10 46 10 46 4.263"/><path d="M18,24a1,1,0,0,0,1,1h5V23H18Z"/><path d="M14,12V60H50V12ZM44,55H20V53H44Zm-5-6v2H25V49ZM27,44V42h2v2Zm4,0V42h2v2Zm4,0V42h2v2ZM48,24a3,3,0,0,1-2,2.816V28a3,3,0,0,1-2,2.816V32a3,3,0,0,1-3,3H40v1a1,1,0,0,1-.606.919l-7,3a1,1,0,0,1-.788,0l-7-3A1,1,0,0,1,24,36V35H23a3,3,0,0,1-3-3V30.816A3,3,0,0,1,18,28V26.816A3,3,0,0,1,16,24V22a1,1,0,0,1,1-1h7V20a1,1,0,0,1,1-1H39a1,1,0,0,1,1,1v1h7a1,1,0,0,1,1,1Z"/><path d="M40,27v2h3a1,1,0,0,0,1-1V27H40Z"/><path d="M40,25h5a1,1,0,0,0,1-1V23H40Z"/><path d="M40,31v2h1a1,1,0,0,0,1-1V31H40Z"/></g><text x="0" y="79" fill="#000000" font-size="5px" font-weight="bold" font-family="'Helvetica Neue', Helvetica, Arial-Unicode, Arial, Sans-serif">Created by Nhor</text><text x="0" y="84" fill="#000000" font-size="5px" font-weight="bold" font-family="'Helvetica Neue', Helvetica, Arial-Unicode, Arial, Sans-serif">from the Noun Project</text></svg>