<svg xmlns:sketch="http://www.bohemiancoding.com/sketch/ns" xmlns="http://www.w3.org/2000/svg" xmlns:xlink="http://www.w3.org/1999/xlink" version="1.1" x="0px" y="0px" viewBox="-247 370.9 100 125" style="enable-background:new -247 370.9 100 100;" xml:space="preserve"><g><path d="M-197.2,414.4h0.4c1.8,0,3.8-1.7,4-3.9l0.3-3.1c0-0.1,0-0.2,0-0.3c0-0.1,0-0.1,0-0.2c0.5-5.5-3.5-6-5-6v1.5   c-2.5,0.1-4.2,2.3-4,4.9l0.3,3.1C-201,412.6-199,414.4-197.2,414.4z"/><path d="M-190.1,431.3l1-4.9c0.3-1.6,1.5-3.9,2.6-5.2l17-18.6l-0.6-0.6c-0.8-0.8-2.1-0.9-3-0.2l-16.1,12.8c-1.3,1-3.7,1.9-5.4,1.9   h-5c-1.7,0-4.1-0.8-5.4-1.9l-16.1-12.8c-0.9-0.7-2.2-0.6-3,0.2l-0.6,0.6l17,18.6c1.1,1.2,2.3,3.5,2.6,5.2l1,4.9l1.4,1.1v0.5l-6.5-3   c0,0-1.3-0.5-2-0.5c-1.8,0-3.2,1.3-3.5,3l1,21h2c1.1,0,2.1-0.9,2.3-2l1.7-13h0.5v1c0,0,4.5,2,10,2s10-2,10-2v-1h0.5l1.7,13   c0.1,1.1,1.2,2,2.3,2h2l1-21c-0.3-1.7-1.7-3-3.5-3c-0.7,0-2,0.5-2,0.5l-6.5,3v-0.5L-190.1,431.3z"/><path d="M-174.7,396.4c-7.2-0.6-14.9-1-22.8-1c-7.9,0-15.4,0.4-22.3,1c-2.4,0.2-4.6,0.5-6.5,0.7c-0.7,0.1-1.7,0.2-1.7,0.2v2   c0,0,1.3-0.1,2-0.2c1.9-0.2,4-0.5,6.4-0.7c6.8-0.6,14.3-1,22.2-1c7.8,0,15.5,0.4,22.7,1c2.5,0.2,4.8,0.5,6.8,0.7   c0.7,0.1,2.1,0.2,2.1,0.2v-2c0,0-1.1-0.1-1.8-0.2C-169.9,396.8-172.1,396.6-174.7,396.4z"/><path d="M-162,388.4h-2.5v20h2.5c1.4,0,2.5-1.1,2.5-2.5v-15C-159.5,389.5-160.6,388.4-162,388.4z"/><path d="M-234.5,390.9v15c0,1.4,1.1,2.5,2.5,2.5h2.5v-20h-2.5C-233.4,388.4-234.5,389.5-234.5,390.9z"/></g><text x="-247" y="485.9" fill="#000000" font-size="5px" font-weight="bold" font-family="'Helvetica Neue', Helvetica, Arial-Unicode, Arial, Sans-serif">Created by Ludovic Riffault</text><text x="-247" y="490.9" fill="#000000" font-size="5px" font-weight="bold" font-family="'Helvetica Neue', Helvetica, Arial-Unicode, Arial, Sans-serif">from the Noun Project</text></svg>