<svg xmlns="http://www.w3.org/2000/svg" viewBox="0 0 512 640" x="0px" y="0px"><path d="M488,176H216a8,8,0,0,0-8,8V325.9A172.361,172.361,0,0,0,350.61,495.878a7.979,7.979,0,0,0,2.78,0A172.361,172.361,0,0,0,496,325.9V184A8,8,0,0,0,488,176Zm-8,149.9A156.375,156.375,0,0,1,352,479.87,156.375,156.375,0,0,1,224,325.9V192H480Z"/><path d="M408,232a63.782,63.782,0,0,1,49.78,23.824l12.44-10.061a79.9,79.9,0,0,0-106.676-16.247l8.912,13.288A63.6,63.6,0,0,1,408,232Z"/><path d="M368,304h80a8,8,0,0,0,8-8,48,48,0,0,0-96,0A8,8,0,0,0,368,304Zm40-40a32.058,32.058,0,0,1,30.988,24H377.012A32.058,32.058,0,0,1,408,264Z"/><path d="M267.225,345.582A8,8,0,0,0,264,352c0,39.7,39.477,72,88,72s88-32.3,88-72a8,8,0,0,0-10.3-7.663,269.668,269.668,0,0,1-155.4,0A7.992,7.992,0,0,0,267.225,345.582ZM422.631,362.9C416.093,388.579,386.908,408,352,408s-64.093-19.421-70.631-45.1A285.384,285.384,0,0,0,422.631,362.9Z"/><path d="M296,248a63.6,63.6,0,0,1,35.544,10.8l8.912-13.288A79.9,79.9,0,0,0,233.78,261.763l12.44,10.061A63.782,63.782,0,0,1,296,248Z"/><path d="M296,264a48.055,48.055,0,0,0-48,48,8,8,0,0,0,8,8h80a8,8,0,0,0,8-8A48.055,48.055,0,0,0,296,264Zm-30.988,40a32.005,32.005,0,0,1,61.976,0Z"/><path d="M56,128a48,48,0,0,0,96,0,8,8,0,0,0-8-8H64A8,8,0,0,0,56,128Zm78.988,8a32.005,32.005,0,0,1-61.976,0Z"/><path d="M160,208a88.743,88.743,0,0,1,29.36,4.877l5.28-15.1A104.7,104.7,0,0,0,160,192c-48.523,0-88,32.3-88,72a8,8,0,0,0,10.3,7.663,268.869,268.869,0,0,1,108.782-9.612l1.838-15.894A284.519,284.519,0,0,0,89.369,253.1C95.907,227.419,125.092,208,160,208Z"/><path d="M264,112a8,8,0,0,0-8-8H176a8,8,0,0,0-8,8,48,48,0,0,0,96,0Zm-78.988,8h61.976a32.005,32.005,0,0,1-61.976,0Z"/><rect x="64" y="88" width="80" height="16"/><rect x="176" y="72" width="80" height="16"/><path d="M160,343.87A156.374,156.374,0,0,1,32,189.9V48H288V160h16V40a8,8,0,0,0-8-8H24a8,8,0,0,0-8,8V189.9A172.361,172.361,0,0,0,158.61,359.878a7.985,7.985,0,0,0,2.781,0,173.272,173.272,0,0,0,33.55-9.478l-5.882-14.879A157.383,157.383,0,0,1,160,343.87Z"/><path d="M344,160h80V144H344a8.009,8.009,0,0,1-8-8V88H320v48A24.027,24.027,0,0,0,344,160Z"/><rect x="440" y="144" width="16" height="16"/><text x="0" y="527" fill="#000000" font-size="32px" font-weight="bold" font-family="'Helvetica Neue', Helvetica, Arial-Unicode, Arial, Sans-serif">Created by Nhor</text><text x="0" y="562" fill="#000000" font-size="32px" font-weight="bold" font-family="'Helvetica Neue', Helvetica, Arial-Unicode, Arial, Sans-serif">from the Noun Project</text></svg>