<svg xmlns="http://www.w3.org/2000/svg" xmlns:xlink="http://www.w3.org/1999/xlink" version="1.1" x="0px" y="0px" viewBox="0 0 64 80" style="enable-background:new 0 0 64 64;" xml:space="preserve"><g><path d="M58,25c0-3.8599-3.1401-7-7-7s-7,3.1401-7,7c0,3.5195,2.6134,6.4324,6,6.9202V51c0,3.8599-3.1401,7-7,7H31   c-3.8599,0-7-3.1401-7-7v-1h1c0.5522,0,1-0.4478,1-1v-5.2783C34.0415,42.2896,40,35.252,40,27V15c0-0.5522-0.4478-1-1-1h-1.1228   l0.051-2.9121c0.0239-1.3516-0.4849-2.6274-1.4326-3.5923C35.5479,6.5313,34.2813,6,32.9292,6H32V5c0-0.5522-0.4478-1-1-1h-2   c-1.6543,0-3,1.3457-3,3s1.3457,3,3,3h2c0.5522,0,1-0.4478,1-1V8h0.9292c0.811,0,1.5713,0.3188,2.1396,0.8975   c0.5688,0.5786,0.874,1.3442,0.8594,2.1553L35.8766,14H35c-0.5522,0-1,0.4478-1,1v12c0,6.0654-4.9346,11-11,11s-11-4.9346-11-11V15   c0-0.5522-0.4478-1-1-1H9.8518l0.0652-3.064C9.9512,9.3174,11.2964,8,12.916,8H14v1c0,0.5522,0.4478,1,1,1h2c1.6543,0,3-1.3457,3-3   s-1.3457-3-3-3h-2c-0.5522,0-1,0.4478-1,1v1h-1.084c-2.6992,0-4.9419,2.1953-4.999,4.8936L7.8509,14H7c-0.5522,0-1,0.4478-1,1v12   c0,8.2515,5.9585,15.2891,14,16.7217V49c0,0.5522,0.4478,1,1,1h1v1c0,4.9624,4.0376,9,9,9h12c4.9624,0,9-4.0376,9-9V31.9202   C55.3866,31.4324,58,28.5195,58,25z M30,8h-1c-0.5513,0-1-0.4487-1-1s0.4487-1,1-1h1V8z M16,6h1c0.5513,0,1,0.4487,1,1   s-0.4487,1-1,1h-1V6z M21.124,41.8696C13.6421,40.9341,8,34.542,8,27V16h0.8086c0.0073,0,0.0146,0,0.022,0H10v11   c0,7.1685,5.8315,13,13,13s13-5.8315,13-13V16h0.8418c0.0059,0,0.0122,0,0.0181,0H38v11c0,7.5425-5.6421,13.9346-13.124,14.8696   C24.3755,41.9321,24,42.3574,24,42.8618V48h-2v-5.1382C22,42.3574,21.6245,41.9321,21.124,41.8696z M51,30c-2.7568,0-5-2.2432-5-5   s2.2432-5,5-5s5,2.2432,5,5S53.7568,30,51,30z M51,22c-1.6543,0-3,1.3457-3,3s1.3457,3,3,3s3-1.3457,3-3S52.6543,22,51,22z M51,26   c-0.5513,0-1-0.4487-1-1s0.4487-1,1-1s1,0.4487,1,1S51.5513,26,51,26z"/></g><text x="0" y="79" fill="#000000" font-size="5px" font-weight="bold" font-family="'Helvetica Neue', Helvetica, Arial-Unicode, Arial, Sans-serif">Created by Bartama Graphic</text><text x="0" y="84" fill="#000000" font-size="5px" font-weight="bold" font-family="'Helvetica Neue', Helvetica, Arial-Unicode, Arial, Sans-serif">from the Noun Project</text></svg>