<svg xmlns="http://www.w3.org/2000/svg" xmlns:xlink="http://www.w3.org/1999/xlink" version="1.0" x="0px" y="0px" viewBox="0 0 100 125" style="enable-background:new 0 0 100 100;" xml:space="preserve"><path d="M52.5229492,76.0325928c-0.6659279,0-1.2535095-0.4519119-1.4015999-1.1016006  c-0.1853523-0.8226166-0.0802536-2.4315414,2.7114792-3.9821854c3.6449242-2.0254898,5.7325134-2.17836,5.8204155-2.183136  c0.1643295-0.0267487,0.9965019-0.1289825,1.7283516,0.1251602c3.1490593-4.5926971,2.2280388-6.8742409,2.218483-6.8981247  c-0.0152855-0.0353508-0.0343933-0.0869446-0.0439491-0.1242027c-0.0028648-0.0095558-0.1547775-0.507328-0.7222977-0.7853546  c-0.6859894-0.3334427-1.7407722-0.2398109-3.051609,0.2770691c-3.8044777,1.5047874-7.7675552,8.3016396-7.8067284,8.3694725  c-0.4022331,0.6305771-1.4130669,2.0293121-2.4754906,2.0293121c-1.0629044,0-2.0732613-1.398735-2.4582939-2.0006485  c-0.0568466-0.0964966-4.024704-6.8952599-7.8244057-8.3981361c-1.3074913-0.51688-2.362751-0.6114655-3.0511322-0.2770691  c-0.5675163,0.2780266-0.7189522,0.7767525-0.7251625,0.7977753c-0.0114632,0.0382156-0.0296173,0.0898094-0.0472908,0.1261139  c-0.0038223,0.009552-0.9243698,2.2920494,2.2251701,6.8847466c0.7366295-0.2541351,1.5807419-0.1528625,1.7918892-0.1194229  h0.0004768c0.0406036,0,2.1267624,0.1595535,5.7564011,2.176445c2.791256,1.5496902,2.8963509,3.1595688,2.7105217,3.9812317  c-0.1576424,0.7003174-0.8230934,1.1656113-1.5554199,1.0949097c-1.7336082-0.1777115-6.1294937-1.0910873-9.5026016-5.7220078  c-0.0062065-0.0076447-0.0114632-0.0152817-0.0171967-0.0229263c-3.9062309-5.3790131-2.9899826-8.3016396-2.7597275-8.8462296  c0.0850334-0.2703819,0.4270744-1.1321716,1.4302635-1.6452293c1.0882225-0.5560532,2.5289955-0.4863091,4.2836227,0.207325  c4.2745438,1.690136,8.366127,8.7019577,8.5381012,9.0000458c0.386467,0.6000061,0.9922028,1.2449112,1.2286682,1.2974625  c0.1906052-0.0535049,0.7958641-0.6974564,1.1980972-1.3261185c0.1547775-0.2694321,4.2458801-7.2812538,8.5213814-8.9713898  c1.7522392-0.6945877,3.1949234-0.7652893,4.2831459-0.2063713c1.0031891,0.512104,1.3452301,1.3738937,1.4302597,1.6442757  c0.2302551,0.54459,1.1465073,3.4681702-2.7602043,8.8462296c-0.004776,0.0076447-0.0105095,0.0152817-0.016243,0.0229263  c-3.3745384,4.6309204-7.7704239,5.5442963-9.504509,5.7220078C52.6251793,76.0306778,52.5735855,76.0325928,52.5229492,76.0325928z   M60.2341385,70.1940231c-0.1480904,0-0.2961807,0.009552-0.4251633,0.0286636  c-0.0773888,0.0085983-1.9509659,0.1681519-5.2634048,2.0082932c-1.4283524,0.7939529-2.1544685,1.6595612-1.9930038,2.3761292  c1.414978-0.1872635,4.9242325-0.9124298,7.8487701-4.4092636C60.3468781,70.1949768,60.2905083,70.1940231,60.2341385,70.1940231z   M38.5996246,70.1997604c2.9240608,3.4939651,6.4337921,4.2181702,7.8736115,4.365303  c0.1356697-0.6745224-0.5904503-1.5401306-2.018322-2.3340836c-3.3129158-1.8401413-5.1860161-1.9996948-5.2046471-2.0016022  C39.0314751,70.1987991,38.8031311,70.1892471,38.5996246,70.1997604z"/><path d="M49.5000038,89.0234222c-1.070549,0-1.9724617-0.1614609-2.539505-0.4547806  c-0.8847198-0.4557343-1.3719826-1.11306-2.1793098-2.2031937c-0.374527-0.5063705-0.5732536-0.8226166-0.8388596-1.2468185  c-0.1108284-0.1777115-0.2340775-0.374527-0.3893318-0.6143341c-0.6539841-1.0137024-1.2472992-1.8286743-1.6394997-2.3675308  c-0.4724541-0.6477737-0.8455467-1.1608353-0.2684746-1.6127472c0.158123-0.1232529,0.3640175-0.1815338,0.5622635-0.1480942  c0.3329659,0.0487289,0.4681587,0.2426758,0.7141762,0.5942764c0.4715004,0.6745224,1.9070168,2.7277222,3.5689697,3.2197571  c0.3214989,0.0926819,1.054306,0.3038254,1.9418907,0.7815323c0.3697472,0.1987305,0.7270737,0.4242096,1.0676804,0.6716614  c0.3410835-0.2474518,0.69841-0.4729309,1.0681572-0.6716614c0.8894958-0.4786606,1.622303-0.6898117,1.8974648-0.7691116  c1.7063751-0.5044556,3.1423721-2.558609,3.6133919-3.233139c0.2455444-0.351593,0.3812141-0.5455399,0.7146568-0.5942688  c0.2063675-0.0277023,0.4079628,0.0267563,0.5656052,0.1528702c0.5751648,0.4452209,0.2006378,0.9601974-0.2742043,1.6117935  c-0.3917198,0.5388565-0.9850388,1.3528671-1.6375885,2.3637009c-0.1547775,0.2398148-0.2770729,0.4356766-0.3879013,0.6124268  c-0.2665596,0.4251633-0.4652863,0.742363-0.8407669,1.2496872c-0.8073311,1.08918-1.2936363,1.7474594-2.1793098,2.204155  C51.4729424,88.8619614,50.5710297,89.0234222,49.5000038,89.0234222z M46.0261002,85.5810471  c0.7299385,0.9840851,1.063858,1.403511,1.6074905,1.6834488c0.2722969,0.1414032,0.905262,0.2914047,1.8664131,0.2914047  s1.594593-0.1500015,1.8659325-0.2904434c0.5436325-0.280899,0.8780289-0.700325,1.6070137-1.6824951  c-0.0162392,0.004776-0.0315285,0.009552-0.046814,0.0133743c-0.2885361,0.0840759-0.9114685,0.2636948-1.6624298,0.6668854  c-0.4576454,0.2474518-0.8942719,0.5407639-1.296505,0.8732529c-0.2713356,0.2235641-0.6630592,0.2235641-0.9343987,0  c-0.40271-0.332489-0.8388557-0.6258011-1.296505-0.8732529c-0.7485695-0.4022369-1.3724594-0.5828094-1.6074905-0.6506424  C46.0944099,85.6030273,46.0604935,85.5915604,46.0261002,85.5810471z"/><path d="M51.4199219,78.7381592c-0.0888672,0.0644531-0.1699219,0.1181641-0.2431641,0.1669922  c-0.8984375,0.5976563-1.0634766,1.0664063-1.0400391,2.9501953c0.0019531,0.1162109-0.0332031,0.2041016-0.1142578,0.2861328  c-0.121582,0.1230469-0.3364258,0.2089844-0.5224609,0.2089844c-0.6333008,0-0.7807617-0.2832031-0.7924805-0.5048828v-3.9941406  c0-0.4140625-0.3359375-0.75-0.75-0.75s-0.75,0.3359375-0.75,0.75v3.9931641c0,0.0810547,0.015625,0.8085938,0.5849609,1.3789063  C48.078125,83.5096436,48.6064453,83.8504639,49.5,83.8504639c0.5908203,0,1.1845703-0.2451172,1.5898438-0.6552734  c0.3642578-0.3691406,0.5537109-0.8398438,0.546875-1.359375c-0.0175781-1.4228516,0.0263672-1.453125,0.3710938-1.6826172  c0.0869141-0.0576172,0.1826172-0.1210938,0.2871094-0.1962891c0.3369141-0.2421875,0.4130859-0.7109375,0.171875-1.046875  S51.7558594,78.4979248,51.4199219,78.7381592z"/><path d="M85.4772949,36.5489502c-0.9764404-0.2063599-1.5057983,0.6587524-1.9366455,1.3538208  c-0.2255249,0.3649902-0.4815674,0.7786865-0.7920532,1.1187744c-1.4579468,1.5950928-4.0309448,1.5496826-5.7277222,1.5195923  c-0.3057861-0.0057373-0.5770874-0.010498-0.8102417-0.005249c-0.9598999,0.0200806-2.2466431,0.2949219-3.6549072,0.8345337  c0.6274414-1.7626953,1.6135864-3.9190674,3.098877-5.6283569c0.2073364-0.2398071,0.4672241-0.5388184,3.6583252-3.317688  l1.6661987-1.4450684c2.9417725-2.5471191,3.9334717-3.4050903,5.116272-5.0809326  c1.5640259-2.2160645,2.1994019-4.0604858,1.9423828-5.638855c-0.1834106-1.1192627-1.6299438-3.484436-2.8088989-3.484436  c-0.0009766,0-0.0019531,0-0.0028687,0c-1.0404663,0.0023804-1.5401611,0.8369751-2.022644,1.6442871  c-0.2608032,0.4356689-0.5560303,0.9296265-0.9812012,1.4398193c-1.2420654,1.4918823-2.7525635,2.0947876-4.6653442,2.8590698  c-2.7009277,1.0791626-5.0169067,1.2554321-6.1299438,1.3400269l-0.3563843,0.0286255  c-4.1599121,0.3754883-8.3016357,3.4185181-12.635437,9.2910156c-0.465271-2.8643799-1.1608276-6.6702881-1.7990112-8.3417969  c-0.322937-0.84552-0.8790283-1.5028687-1.4159546-2.1386719c-0.3745117-0.4433594-0.7290039-0.8623047-0.949707-1.2903442  c-0.7251587-1.4025269-0.3410645-3.0119629-0.1776733-3.6993408l0.0334473-0.1385498  c0.5187988-2.2442627-0.3707275-5.5122681-2.4334717-11.5481567c-0.2474365-0.7275391-0.9257813-1.2162476-1.6882324-1.2162476  h-0.8914185c-0.8574829,0-1.5496826,0.465271-1.8062134,1.215271c-2.0617676,6.0387573-2.9517822,9.307251-2.4329834,11.5491333  l0.0325317,0.1375732c0.1643066,0.687439,0.5488892,2.296814-0.1758423,3.7003174  c-0.2211304,0.4275513-0.5751343,0.8464966-0.9501343,1.2893677c-0.5374146,0.6362915-1.0935059,1.2936401-1.4164429,2.1396484  c-0.6463013,1.6934814-1.3648071,5.6847534-1.7985229,8.3427124c-4.333313-5.8729248-8.4760132-8.9164429-12.635437-9.2919312  l-0.3573608-0.0286255c-1.1125488-0.0845947-3.4285278-0.2608643-6.1323242-1.3409424  c-1.9113159-0.7633667-3.4208984-1.3667603-4.6624756-2.857666c-0.4251709-0.5106812-0.7203369-1.0046387-0.9807129-1.4403076  c-0.4829712-0.807312-0.9821777-1.6419067-2.0216675-1.6442871c-0.0009766,0-0.0018921,0-0.0028687,0  c-1.1818848,0-2.6273804,2.3651733-2.8098755,3.484436c-0.2575073,1.5788574,0.3773804,3.4232788,1.9418945,5.638855  c1.1818237,1.6743774,2.1716309,2.5314331,5.1090698,5.074707l1.6724854,1.4512939  c3.1877441,2.7745361,3.4500122,3.0764771,3.6607056,3.3181763c1.4846802,1.7096558,2.4703369,3.8656616,3.0979004,5.6281738  c-1.4083252-0.539856-2.6950684-0.8146973-3.6549072-0.8348389c-0.2307739-0.0047607-0.5045166-0.0004883-0.8102417,0.005249  c-1.7058716,0.0281982-4.2716675,0.0750122-5.7277222-1.5195923c-0.3104858-0.3400879-0.5670166-0.7542725-0.793457-1.119751  c-0.4299316-0.6945801-0.9620972-1.5539551-1.9361572-1.3528442c-1.461792,0.3133545-1.666748,2.8361206-1.3447876,4.4431763  c0.2302856,1.1479492,0.9238892,2.9522095,4.2731323,5.3569946c1.8673706,1.3404541,3.1834717,1.8707275,4.3447876,2.3388672  c0.8517456,0.3430176,1.656189,0.6669312,2.6292725,1.2955933c0.0114746,0.0071411,1.1560669,0.7485352,2.5032349,2.282959  c2.0426636,2.3245239,3.2952271,5.562439,4.3242188,11.1765137c0.0004883,0.0028076,0.0023193,0.0048828,0.0028687,0.0076904  c0.9870605,8.4391479,4.3914185,16.5288086,11.5199585,27.4835205c0.2971191,0.456665,1.2019043,1.8468018,2.6618042,3.123291  c1.6557617,1.4483643,3.9343872,1.4263916,4.9008179,1.4235229L49.5,95.4801636l0.1624146,0.0009155  c0.0745239,0,0.1571655,0.0009766,0.2460327,0.0009766c1.0714722,0,3.1265869-0.0878906,4.6552734-1.4244995  c1.3022461-1.138916,2.1420288-2.3274536,2.6618042-3.1242676c7.1282959-10.9541016,10.532959-19.0438232,11.5195923-27.4832764  c0.0004883-0.0025635,0.0022583-0.0043945,0.0027466-0.006958c1.0280151-5.6121826,2.2815552-8.8500977,4.3251953-11.1765137  c1.3461914-1.5344238,2.4907837-2.2753296,2.5079956-2.2863159c0.9678345-0.6253052,1.7722778-0.9492188,2.6235352-1.2922363  c1.1608887-0.4681396,2.477417-0.9984131,4.3442993-2.3388672c3.3516235-2.4057007,4.0443115-4.210022,4.2736206-5.3569946  C87.1444702,39.3850708,86.9400024,36.8618164,85.4772949,36.5489502z M24.8234253,34.4584961  c-0.2894897-0.3320313-0.5627441-0.6463623-3.8522339-3.5102539l-1.6767578-1.4545898  c-2.8782349-2.4917603-3.7467041-3.2441406-4.7914429-4.7235718c-1.2363281-1.7512817-1.7775269-3.1629639-1.609375-4.1952515  c0.0740356-0.4547729,0.5612793-1.2105103,0.9238892-1.6366577c0.0979004,0.147644,0.208252,0.3320313,0.2999878,0.4853516  c0.2827759,0.4724731,0.6343994,1.0605469,1.1565552,1.6882324c1.5592041,1.8721313,3.4442749,2.625,5.4429932,3.4237671  c2.9794922,1.1899414,5.4970093,1.382019,6.7070313,1.4736938l0.3296509,0.0267944  c3.7872925,0.3415527,7.8659668,3.6190796,12.1228027,9.7414551c0.3110352,0.4470825,0.8532104,0.659668,1.3829956,0.5345459  c0.5211792-0.1208496,0.9105225-0.5412598,0.9916992-1.0710449c0.2666016-1.7355347,1.1937866-7.5501709,1.9404907-9.506897  c0.2044678-0.5345459,0.6310425-1.0394897,1.0829468-1.5740356c0.4285278-0.5068359,0.8713379-1.0304565,1.1942749-1.6547852  c1.0585938-2.0493774,0.5369263-4.2320557,0.3406372-5.0532227l-0.0296631-0.1242065  c-0.4041138-1.746521,0.5097046-4.9944458,2.3412476-10.366272h0.7572021  c1.831543,5.3703613,2.7458496,8.6173706,2.3407593,10.3667603l-0.0296021,0.1256104  c-0.1958618,0.821167-0.7165527,3.0033569,0.342041,5.0508423c0.3219604,0.6248169,0.7652588,1.1488647,1.1942749,1.6557617  c0.4509277,0.5340576,0.8780518,1.0390015,1.081543,1.5735474c0.7471313,1.9542847,1.6748047,7.770874,1.9414063,9.5064087  c0.0811768,0.5302734,0.4710083,0.9511108,0.9926758,1.0715332c0.5321655,0.1246948,1.072937-0.0874634,1.3825073-0.5345459  c4.2563477-6.1223755,8.335083-9.3999023,12.1223145-9.7414551l0.3296509-0.0263062  c1.2095337-0.0921631,3.7280273-0.2842407,6.7089233-1.4751587c1.9959106-0.7973022,3.8809204-1.5506592,5.4411621-3.4232788  c0.522583-0.6271973,0.8742065-1.215271,1.1560059-1.6877441c0.0917358-0.152832,0.2025757-0.3377075,0.3000488-0.4853516  c0.3630371,0.4265747,0.8502808,1.182312,0.9238892,1.6366577c0.1690674,1.0322876-0.3726196,2.4434814-1.6099243,4.1952515  c-1.0442505,1.480896-1.9146118,2.2341919-4.7971191,4.7297974l-1.670105,1.4483643  c-3.2962036,2.8696289-3.5665894,3.1815796-3.8522339,3.5111694c-2.2588501,2.5997314-3.4746704,6.0391846-4.0414429,8.0631104  c-1.9962158,1.1397095-4.0176392,2.7866821-5.581543,5.0118408c0.0525513-0.4925537,0.12323-0.9812012,0.2102051-1.4651489  c0.0783081-0.437561,0.1394653-0.8651123,0.199646-1.2860107c0.2809448-1.9681396,0.50354-3.5230713,2.4296265-5.3255005  c0.6468506-0.6043091,1.3309326-0.8799438,1.9337769-1.1235352c0.4873047-0.1963501,0.9468384-0.3817139,1.3261108-0.7075195  c1.5009766-1.2883911,1.8248901-4.4503174,1.0385742-6.1351929c-0.4366455-0.93396-1.2181396-1.4059448-2.1009521-1.2583008  c-1.8067017,0.2994995-3.3019409,1.7875977-4.6213989,3.1003418c-0.6324463,0.6291504-1.2286377,1.2229004-1.7321777,1.5501709  c-0.6200562,0.40271-1.2639771,0.7987061-1.9012451,1.190918c-2.1793213,1.3413696-4.2373047,2.6077881-5.3398438,4.0753174  c-1.0194702,1.3571777-1.8210449,2.8552856-2.3961792,4.4723511c-1.9959106-3.8259888-3.5646973-8.9226685-4.2965698-11.2988281  c-0.446167-1.4503174-0.4824829-1.5682983-0.6998291-1.7885132c-0.645874-0.6525879-1.7087402-0.3683472-2.4219971,0.0745239  c-1.4417114,0.892334-1.5559082,4.1278687-1.2615967,9.7863159c0.0300903,0.5814209,0.0544434,1.0285645,0.0525513,1.2611694  c-0.0019531,0.2799683-0.013855,0.5469971-0.0334473,0.802063c-0.5178223-1.177063-1.1641846-2.282959-1.9352417-3.309082  c-1.1015625-1.467041-3.1585693-2.7329712-5.3359985-4.0734253c-0.6386719-0.3927002-1.2831421-0.7891846-1.9041138-1.1928101  c-0.50354-0.3272705-1.100647-0.9215088-1.732666-1.5501709c-1.319458-1.3127441-2.8146973-2.8008423-4.6223145-3.1003418  c-0.8794556-0.1481323-1.6638794,0.3243408-2.0995483,1.2573242c-0.7868042,1.6848755-0.4624023,4.84729,1.0380859,6.1361694  c0.3792725,0.3258057,0.8392944,0.5111694,1.3261108,0.7075195c0.6033325,0.243103,1.2874146,0.5192261,1.9332886,1.1230469  c1.9260864,1.8024292,2.1482544,3.3568726,2.4296265,5.324585c0.0601807,0.4213257,0.1213379,0.8493652,0.2001343,1.2874146  c0.0874634,0.4848633,0.1576538,0.9745483,0.2111816,1.4680176c-1.5646973-2.2263184-3.5862427-3.8739624-5.5822754-5.0140381  C28.2987671,40.4998169,27.0829468,37.0601807,24.8234253,34.4584961z M55.5859985,89.8651733  c-0.2894897,0.4451904-1.0604858,1.6270752-2.3101807,2.7191162c-1.0968018,0.9592285-2.7860107,0.9401245-3.5990601,0.9401245  L49.5,93.5234375l-0.1767578,0.0009766c-0.8135376,0.0018921-2.5022583,0.0181274-3.5985718-0.9401245  c-1.1254883-0.9840698-1.8573608-2.022644-2.3097534-2.7182007c-7.333313-11.2681885-10.623291-19.3768311-11.3560791-27.9870605  c-0.0792847-0.9267578,0.0931396-1.8248901,0.4987183-2.5949097c0.8001709-1.5220337,2.2003174-3.4242554,4.3237305-3.8465576  c0.2823486-0.0554199,0.5627441-0.0821533,0.840332-0.0821533c2.6569824,0,5.0541382,2.4152832,6.8513184,4.2248535  c1.2434692,1.25354,2.2987061,2.696228,3.1351929,4.2879028c0,0,0,0.0009766,0.0004883,0.0009766  c0.3515625,0.6688232,1.0385132,1.0844116,1.7913818,1.0844116c0.0004883,0,0.0004883,0,0.0004883,0  c0.7533569,0,1.4393311-0.4155884,1.7909546-1.0844116c0.8378906-1.5936279,1.8926392-3.0363159,3.1385498-4.291748  c1.984375-1.9987183,4.7044678-4.7254639,7.689209-4.1398315c2.1229248,0.4213257,3.522583,2.3245239,4.3232422,3.8455811  c0.4050903,0.7709961,0.578064,1.6691284,0.4996948,2.5958862C66.208374,70.4892578,62.9179077,78.5979004,55.5859985,89.8651733z   M84.9039917,40.6075439c-0.0945435,0.4743652-0.3840332,1.9175415-3.4958496,4.1517944  c-1.6757813,1.2033691-2.8242188,1.6662598-3.9353638,2.1134033c-0.8990479,0.3625488-1.8286743,0.7370605-2.9465332,1.4594116  c-0.0554199,0.0348511-1.3776855,0.8813477-2.923584,2.6426392c-1.5610962,1.7766113-2.6998901,3.9689331-3.6140747,7.0686646  c-1.0285645-1.8361816-2.7709351-3.9852295-5.4891357-4.524353c-4.0147095-0.7977905-7.2927246,2.4984131-9.4615479,4.6834717  C51.6583252,59.5917358,50.487915,61.1920776,49.5,62.9968262c-0.0391846,0-0.0510864-0.0219727-0.0596924-0.038208  c-0.9272461-1.765625-2.0981445-3.3659058-3.4796753-4.757019c-2.1663818-2.1821899-5.4382324-5.4802856-9.4605103-4.6824951  c-2.7185059,0.5391846-4.4608765,2.6885376-5.4890137,4.5247803c-0.9143677-3.1004639-2.0528564-5.2929688-3.612793-7.0690918  c-1.5473022-1.7612915-2.8686523-2.6072998-2.9169312-2.6378784c-1.125-0.7271118-2.0551147-1.1016235-2.9546509-1.4637451  c-1.1106567-0.4475708-2.2590332-0.9104614-3.9353638-2.1138306c-3.1103516-2.2332764-3.4003296-3.6774292-3.4953613-4.1517944  c-0.0927124-0.4633789-0.1084595-0.9320068-0.0831299-1.3275146c0.2168579,0.3381958,0.4748535,0.7113037,0.7944336,1.0609741  c2.0522461,2.2471313,5.2834473,2.1931763,7.2067261,2.1563721c0.2775269-0.0047607,0.5249634-0.010498,0.7351685-0.0047607  c2.1549683,0.0449219,9.2283936,2.4248657,11.7392578,9.3115234c0.1585693,0.4346924,0.6487427,0.7260742,1.1044312,0.6630249  c0.4577026-0.0649414,0.8455811-0.4824829,0.8775635-0.9429932c0.1356812-1.9605103,0.0320435-3.9124146-0.3081055-5.8017578  c-0.0750122-0.4141846-0.1323242-0.8192749-0.1891479-1.2172241c-0.2957153-2.0665894-0.6010132-4.2038574-3.0301514-6.4768066  c-0.9124146-0.8531494-1.8520508-1.2324829-2.5380859-1.5090332c-0.3334351-0.1342773-0.6482544-0.2613525-0.7833862-0.3774414  c-0.465332-0.399353-0.7887573-1.4804077-0.7695923-2.5705566c0.0142822-0.7810059,0.1962891-1.2434692,0.309021-1.3948975  c1.1694336,0.2350464,2.4005127,1.4603882,3.4896851,2.5438232c0.7060547,0.7026978,1.3729248,1.3662109,2.0465088,1.803833  c0.6343994,0.4122314,1.2926636,0.8173218,1.9447632,1.2186279c1.9261475,1.1861572,3.9186401,2.4119263,4.7976685,3.5823364  c1.2945557,1.7235718,2.192688,3.706543,2.6694336,5.8939819c0.0960083,0.4400024,0.5216675,0.8025513,0.9721069,0.8140259  c0.4313965,0.010498,0.8684692-0.3200684,1.0027466-0.730896c0.3496704-1.0710449,0.8292847-2.5385742,0.8450317-4.6304321  c0.0019531-0.2536621-0.0224609-0.7428589-0.0554199-1.3772583c-0.3099976-5.9694214,0.0358276-7.6748657,0.3382568-8.0216675  c0.0076294-0.0048218,0.0152588-0.0095825,0.0233765-0.0143433c0.0611572,0.1963501,0.1304321,0.4199219,0.1982422,0.640625  c0.8814087,2.8633423,2.9455566,9.569458,5.5958862,13.6381226c0.2169189,0.3286743,0.673584,0.5374146,1.0605469,0.4657593  c0.3859863-0.0716553,0.7175293-0.3998413,0.8006592-0.7839355c0.4776611-2.1888428,1.376709-4.171814,2.6703491-5.8939819  c0.8790283-1.1708374,2.8729858-2.397644,4.8000488-3.5838013c0.6516113-0.4007568,1.3079834-0.8053589,1.9423828-1.2171631  c0.673584-0.4376221,1.3404541-1.1011353,2.0465088-1.803833c1.0891724-1.0834351,2.3197632-2.3087769,3.4891968-2.5438232  c0.1127319,0.1514282,0.2952271,0.6134033,0.3085938,1.3948975c0.0200195,1.0896606-0.303833,2.1707153-0.769104,2.5710449  c-0.1356812,0.1156006-0.4500122,0.2426758-0.7834473,0.3769531c-0.6860352,0.2770386-1.6251831,0.6558838-2.5385742,1.5095215  c-2.4296265,2.2729492-2.734436,4.4107056-3.0296021,6.4777832c-0.057373,0.3978882-0.1146851,0.802063-0.189209,1.2162476  c-0.3391724,1.8902588-0.4432983,3.8421631-0.3076172,5.8098755c0.0363159,0.4576416,0.4232178,0.8694458,0.8770752,0.9343872  c0.456665,0.0592651,0.9458618-0.2293091,1.1044312-0.6630249c2.5108643-6.8866577,9.5847778-9.2666016,11.7392578-9.3115234  c0.208252-0.0067139,0.4586182-0.0004883,0.7356567,0.0047607c1.9261475,0.0368042,5.15448,0.0907593,7.2067261-2.1568604  c0.3190918-0.3491821,0.5770874-0.72229,0.7939453-1.0609741C85.0129395,39.6755371,84.9967041,40.144165,84.9039917,40.6075439z"/><text x="0" y="115" fill="#000000" font-size="5px" font-weight="bold" font-family="'Helvetica Neue', Helvetica, Arial-Unicode, Arial, Sans-serif">Created by Francesca De Riso</text><text x="0" y="120" fill="#000000" font-size="5px" font-weight="bold" font-family="'Helvetica Neue', Helvetica, Arial-Unicode, Arial, Sans-serif">from the Noun Project</text></svg>