<svg xmlns="http://www.w3.org/2000/svg" xmlns:xlink="http://www.w3.org/1999/xlink" xml:space="preserve" style="shape-rendering:geometricPrecision;text-rendering:geometricPrecision;image-rendering:optimizeQuality;" viewBox="0 0 100 125" x="0px" y="0px" fill-rule="evenodd" clip-rule="evenodd"><defs><style type="text/css">
   
    .fil0 {fill:black}
   
  </style></defs><g><path class="fil0" d="M50 4.99965c24.8494,0 45.0015,20.1509 45.0015,45.0004 0,24.8494 -20.1521,45.0004 -45.0015,45.0004 -24.8494,0 -45.0004,-20.1509 -45.0004,-45.0004 0,-24.8494 20.1509,-45.0004 45.0004,-45.0004zm-33.1184 46.9055l0 -3.39688 10.7564 0 0 3.39688 -10.7564 0zm55.4804 0l0 -3.39688 10.7576 0 0 3.39688 -10.7576 0zm-24.0604 -34.818l3.39688 0 0 10.7576 -3.39688 0 0 -10.7576zm0 55.4815l3.39688 0 0 10.7564 -3.39688 0 0 -10.7564zm19.7789 -44.8515l-10.9147 27.9711 -24.9935 16.6383 10.9147 -27.9711 24.9935 -16.6383zm-18.0805 -15.0852c20.6352,0 37.368,16.734 37.368,37.368 0,20.634 -16.7328,37.368 -37.368,37.368 -20.634,0 -37.368,-16.734 -37.368,-37.368 0,-20.634 16.734,-37.368 37.368,-37.368z"/></g><text x="0" y="115" fill="#000000" font-size="5px" font-weight="bold" font-family="'Helvetica Neue', Helvetica, Arial-Unicode, Arial, Sans-serif">Created by Richard</text><text x="0" y="120" fill="#000000" font-size="5px" font-weight="bold" font-family="'Helvetica Neue', Helvetica, Arial-Unicode, Arial, Sans-serif">from the Noun Project</text></svg>