<svg xmlns="http://www.w3.org/2000/svg" xmlns:xlink="http://www.w3.org/1999/xlink" version="1.1" x="0px" y="0px" viewBox="0 0 96 120" enable-background="new 0 0 96 96" xml:space="preserve"><path d="M63.548,53.186v15.953c0,9.021-7.339,16.361-16.358,16.361c-9.022,0-16.362-7.34-16.362-16.361V18.03  c2.386-0.995,4.015-3.356,4.015-6.016C34.841,8.422,31.918,5.5,28.326,5.5c-3.593,0-6.515,2.923-6.515,6.515  c0,2.659,1.629,5.02,4.015,6.015v51.108c0,11.778,9.583,21.361,21.363,21.361c11.776,0,21.358-9.583,21.358-21.361v-5.304  l5.641,1.106L63.548,53.186z M28.326,13.53c-0.835,0-1.514-0.68-1.514-1.515c0-0.835,0.679-1.515,1.514-1.515  s1.515,0.68,1.515,1.515C29.841,12.85,29.161,13.53,28.326,13.53z"/><text x="0" y="111" fill="#000000" font-size="5px" font-weight="bold" font-family="'Helvetica Neue', Helvetica, Arial-Unicode, Arial, Sans-serif">Created by fahmionline</text><text x="0" y="116" fill="#000000" font-size="5px" font-weight="bold" font-family="'Helvetica Neue', Helvetica, Arial-Unicode, Arial, Sans-serif">from the Noun Project</text></svg>