<svg xmlns:sketch="http://www.bohemiancoding.com/sketch/ns" xmlns="http://www.w3.org/2000/svg" xmlns:xlink="http://www.w3.org/1999/xlink" version="1.1" x="0px" y="0px" viewBox="-247 370.9 100 125" style="enable-background:new -247 370.9 100 100;" xml:space="preserve"><title>Artboard 1 Copy</title><desc>Created with Sketch.</desc><g><path d="M-207.1,433.9l-19.9,2.5c0,1.7,1.3,3,3,3h18.9c1.2,0,2,0,3-1.5l6.5-7.8c-2.7-1-5.2-2.6-7.3-4.6L-207.1,433.9z"/><path d="M-187.5,408.4l-1.5,4l12.1-2.6c1.1-0.2,1.9-1.3,1.9-2.4L-187.5,408.4z"/><path d="M-195.7,390.5c0.2,2.1,3.3,0,4,3.9h0.4c2,0,3.8-1.7,4-3.9l0.3-3.1c0.3-2.7-1.6-5-4.1-5h-0.7c-2.5,0-4.4,2.2-4.1,5   L-195.7,390.5z"/><path d="M-202,390.3c1.6,0.2,2.5,0,3-0.2c0.6-0.3,1-1,1-1.8c0-1.1-0.9-2-2-2c-0.5,0-2,0.5-2,0.5c-3.1,0.8-4.5-0.5-4.9-0.1   C-207.3,387.2-204.6,389.8-202,390.3z"/><path d="M-181.5,432.9l-8.5-14c-0.4-0.7-0.8-1.3-1.3-1.7l1.3-9.3l0.7-0.3c1.5-0.7,2.2-2.4,1.5-3.9l-2.2-4.8c-0.2-0.5-0.9-1-1.4-1.1   c0,0-7.1-1.4-7.7-1.4c-1,0-2,0.5-2.5,1l-8.9,8c-0.6,0.5-0.9,0.9-0.9,1.4c0,0.7,0.4,1.1,0.9,1.8l5.3,7.7c0.6,0.9,2,1.5,3.1,1.3   l1-0.2l-5.5-9.8l9.5-5.7v1l-2.3,2l-1.7,15.5l0,0c0,0.2,0,0.3,0,0.5c0,2.1,1,3.5,2.5,5l11.5,10.5l3.5,21c0.3,1.9,2.1,2,3.5,2l-1-24   C-181,434.4-181,433.9-181.5,432.9z"/></g><text x="-247" y="485.9" fill="#000000" font-size="5px" font-weight="bold" font-family="'Helvetica Neue', Helvetica, Arial-Unicode, Arial, Sans-serif">Created by Ludovic Riffault</text><text x="-247" y="490.9" fill="#000000" font-size="5px" font-weight="bold" font-family="'Helvetica Neue', Helvetica, Arial-Unicode, Arial, Sans-serif">from the Noun Project</text></svg>