<svg xmlns="http://www.w3.org/2000/svg" xmlns:xlink="http://www.w3.org/1999/xlink" version="1.1" x="0px" y="0px" viewBox="0 0 1580 1975" style="enable-background:new 0 0 1580 1580;" xml:space="preserve"><g><g><path d="M1313.6,1558H485.9c-57.3,0-104-46.7-104-104V126c0-57.4,46.7-104,104-104h827.8c57.3,0,104,46.6,104,104v1328    C1417.6,1511.3,1371,1558,1313.6,1558z M485.9,70c-30.9,0-56,25.1-56,56v1328c0,30.9,25.1,56,56,56h827.8c30.9,0,56-25.1,56-56    V126c0-30.9-25.1-56-56-56H485.9z"/></g><g><g><path d="M899.8,693.1c-115.5,0-209.5-94-209.5-209.5s94-209.5,209.5-209.5s209.5,94,209.5,209.5S1015.3,693.1,899.8,693.1z      M899.8,322.1c-89.1,0-161.5,72.5-161.5,161.5s72.4,161.5,161.5,161.5s161.5-72.5,161.5-161.5S988.8,322.1,899.8,322.1z"/></g><g><path d="M899.8,599.8c-64.1,0-116.2-52.1-116.2-116.2s52.1-116.2,116.2-116.2S1016,419.5,1016,483.6S963.8,599.8,899.8,599.8z      M899.8,415.4c-37.6,0-68.2,30.6-68.2,68.2s30.6,68.2,68.2,68.2s68.2-30.6,68.2-68.2S937.3,415.4,899.8,415.4z"/></g><g><path d="M899.8,1305.9c-68.7,0-133.4-26.8-182-75.4s-75.4-113.2-75.4-182s26.8-133.4,75.4-182s113.2-75.4,182-75.4     s133.4,26.8,182,75.4s75.4,113.2,75.4,182s-26.8,133.4-75.4,182S968.5,1305.9,899.8,1305.9z M899.8,839.2     c-115.4,0-209.3,93.9-209.3,209.3s93.9,209.3,209.3,209.3s209.3-93.9,209.3-209.3S1015.2,839.2,899.8,839.2z"/></g><g><path d="M899.8,1212.6c-90.4,0-164-73.6-164-164s73.6-164,164-164s164,73.6,164,164S990.2,1212.6,899.8,1212.6z M899.8,932.6     c-64,0-116,52-116,116s52,116,116,116s116-52,116-116S963.7,932.6,899.8,932.6z"/></g></g><g><path d="M1511,579.7h-117.4c-13.3,0-24-10.8-24-24V400.8c0-13.3,10.8-24,24-24H1511c13.3,0,24,10.8,24,24v154.9    C1535,568.9,1524.3,579.7,1511,579.7z M1417.6,531.7h69.4V424.8h-69.4V531.7z"/></g><g><path d="M405.9,1251.7H288.5c-13.3,0-24-10.8-24-24v-154.9c0-13.3,10.8-24,24-24h117.4c13.3,0,24,10.8,24,24v154.9    C429.9,1241,419.1,1251.7,405.9,1251.7z M312.5,1203.7h69.4v-106.9h-69.4V1203.7z"/></g><g><path d="M288.5,1174.3H178.7c-13.3,0-24-10.8-24-24V646.8H69c-13.3,0-24-10.8-24-24s10.8-24,24-24h109.8c13.3,0,24,10.8,24,24    v503.5h85.7c13.3,0,24,10.8,24,24S301.7,1174.3,288.5,1174.3z"/></g><g><g><path d="M1393.6,202.4H405.9c-13.3,0-24-10.8-24-24s10.8-24,24-24h987.8c13.3,0,24,10.8,24,24S1406.9,202.4,1393.6,202.4z"/></g><g><path d="M1393.6,1425.6H405.9c-13.3,0-24-10.8-24-24s10.8-24,24-24h987.8c13.3,0,24,10.8,24,24S1406.9,1425.6,1393.6,1425.6z"/></g></g><g><g><g><circle cx="527.3" cy="299.5" r="33.8"/></g><g><circle cx="1272.2" cy="299.5" r="33.8"/></g></g><g><g><circle cx="527.3" cy="1280.6" r="33.8"/></g><g><circle cx="1272.2" cy="1280.6" r="33.8"/></g></g></g></g><text x="0" y="1595" fill="#000000" font-size="32px" font-weight="bold" font-family="'Helvetica Neue', Helvetica, Arial-Unicode, Arial, Sans-serif">Created by Iconbunny</text><text x="0" y="1632" fill="#000000" font-size="32px" font-weight="bold" font-family="'Helvetica Neue', Helvetica, Arial-Unicode, Arial, Sans-serif">from the Noun Project</text></svg>