<svg xmlns="http://www.w3.org/2000/svg" viewBox="0 0 64 80" x="0px" y="0px"><path d="m32,28c-2.21,0-4,1.79-4,4s1.79,4,4,4,4-1.79,4-4-1.79-4-4-4Zm0,6c-1.1,0-2-.9-2-2s.9-2,2-2,2,.9,2,2-.9,2-2,2Z"/><path d="m32,15c-9.37,0-17,7.63-17,17s7.63,17,17,17,17-7.63,17-17-7.63-17-17-17Zm0,23c-3.31,0-6-2.69-6-6s2.69-6,6-6,6,2.69,6,6-2.69,6-6,6Zm4.9-12.31c-1.11-.86-2.44-1.44-3.9-1.62v-7.02c3.38.22,6.46,1.57,8.86,3.67l-4.96,4.96Zm-5.9-1.62c-1.46.18-2.79.76-3.9,1.62l-4.96-4.96c2.4-2.1,5.48-3.45,8.86-3.67v7.02Zm-5.31,3.03c-.86,1.11-1.44,2.44-1.62,3.9h-7.02c.22-3.38,1.57-6.46,3.67-8.86l4.96,4.96Zm-1.62,5.9c.18,1.46.76,2.79,1.62,3.9l-4.96,4.96c-2.1-2.4-3.45-5.48-3.67-8.86h7.02Zm3.03,5.31c1.11.86,2.44,1.44,3.9,1.62v7.02c-3.38-.22-6.46-1.57-8.86-3.67l4.96-4.96Zm5.9,1.62c1.46-.18,2.79-.76,3.9-1.62l4.96,4.96c-2.4,2.1-5.48,3.45-8.86,3.67v-7.02Zm5.31-3.03c.86-1.11,1.44-2.44,1.62-3.9h7.02c-.22,3.38-1.57,6.46-3.67,8.86l-4.96-4.96Zm1.62-5.9c-.18-1.46-.76-2.79-1.62-3.9l4.96-4.96c2.1,2.4,3.45,5.48,3.67,8.86h-7.02Z"/><path d="m57,29h-4.24c-.51-3.55-1.91-6.81-3.96-9.55l3-3c1.17-1.17,1.17-3.07,0-4.24s-3.07-1.17-4.24,0l-3,3c-2.75-2.06-6-3.45-9.55-3.96v-4.24c0-1.65-1.35-3-3-3s-3,1.35-3,3v4.24c-3.55.51-6.81,1.91-9.55,3.96l-3-3c-1.17-1.17-3.07-1.17-4.24,0s-1.17,3.07,0,4.24l3,3c-2.06,2.75-3.45,6-3.96,9.55h-4.24c-1.65,0-3,1.35-3,3s1.35,3,3,3h4.24c.51,3.55,1.91,6.81,3.96,9.55l-3,3c-1.17,1.17-1.17,3.07,0,4.24.58.58,1.35.88,2.12.88s1.54-.29,2.12-.88l3-3c2.75,2.06,6,3.45,9.55,3.96v4.24c0,1.65,1.35,3,3,3s3-1.35,3-3v-4.24c3.55-.51,6.81-1.91,9.55-3.96l3,3c.58.58,1.35.88,2.12.88s1.54-.29,2.12-.88c1.17-1.17,1.17-3.07,0-4.24l-3-3c2.06-2.75,3.45-6,3.96-9.55h4.24c1.65,0,3-1.35,3-3s-1.35-3-3-3Zm-8.03-15.38c.38-.38,1.04-.38,1.41,0,.19.19.29.44.29.71s-.1.52-.29.71l-2.87,2.87c-.45-.49-.92-.97-1.41-1.41l2.87-2.87Zm-17.97-6.62c0-.55.45-1,1-1s1,.45,1,1v4.05c-.33-.02-.66-.05-1-.05s-.67.03-1,.05v-4.05ZM13.62,15.03c-.19-.19-.29-.44-.29-.71s.1-.52.29-.71c.38-.38,1.04-.38,1.41,0l2.87,2.87c-.49.45-.97.92-1.41,1.41l-2.87-2.87Zm-6.62,17.97c-.55,0-1-.45-1-1s.45-1,1-1h4.05c-.02.33-.05.66-.05,1s.03.67.05,1h-4.05Zm8.03,17.38c-.38.38-1.04.38-1.41,0-.19-.19-.29-.44-.29-.71s.1-.52.29-.71l2.87-2.87c.45.49.92.97,1.41,1.41l-2.87,2.87Zm17.97,6.62c0,.55-.45,1-1,1s-1-.45-1-1v-4.05c.33.02.66.05,1,.05s.67-.03,1-.05v4.05Zm17.38-8.03c.19.19.29.44.29.71s-.1.52-.29.71c-.38.38-1.04.38-1.41,0l-2.87-2.87c.49-.45.97-.92,1.41-1.41l2.87,2.87Zm-18.38,2.03c-10.48,0-19-8.52-19-19s8.52-19,19-19,19,8.52,19,19-8.52,19-19,19Zm25-18h-4.05c.02-.33.05-.66.05-1s-.03-.67-.05-1h4.05c.55,0,1,.45,1,1s-.45,1-1,1Z"/><text x="0" y="79" fill="#000000" font-size="5px" font-weight="bold" font-family="'Helvetica Neue', Helvetica, Arial-Unicode, Arial, Sans-serif">Created by Nattapol Seengern</text><text x="0" y="84" fill="#000000" font-size="5px" font-weight="bold" font-family="'Helvetica Neue', Helvetica, Arial-Unicode, Arial, Sans-serif">from the Noun Project</text></svg>