<?xml version="1.0" encoding="UTF-8"?>
<svg width="1200pt" height="1200pt" version="1.1" viewBox="0 0 1200 1200" xmlns="http://www.w3.org/2000/svg">
 <g>
  <path d="m0 857.15 266.66-266.66 19.043 19.031 266.66-266.66-19.043-19.043 323.82-323.81 95.258 95.23c-83.004 83.004-12.254 12.254-95.258 95.242l-38.102-38.102-19.043 19.043 38.102 38.102-38.102 38.102-38.102-38.102-19.055 19.043 38.113 38.102-38.113 38.09-38.09-38.09-19.055 19.043 38.102 38.09-38.102 38.09-38.102-38.09-19.043 19.043 38.09 38.09-38.09 38.102-38.09-38.102-19.043 19.043 38.09 38.102-38.09 38.102-38.102-38.102-19.043 19.043 38.102 38.102-38.102 38.09-38.09-38.09-19.043 19.043 38.102 38.102-38.102 38.102-38.102-38.102-19.043 19.043 38.102 38.09-38.102 38.102-38.09-38.102-19.043 19.055 38.102 38.09-38.102 38.113-38.102-38.113-19.043 19.055 38.09 38.102-38.09 38.102-38.102-38.102-19.043 19.043 38.102 38.113-38.102 38.09-38.102-38.09-19.043 19.043 38.102 38.09c-79.262 79.273-17.746 17.746-114.28 114.3z"/>
  <path d="m266.66 476.2 152.38-152.39h76.199l19.043 19.043-228.56 228.58-19.043-19.043v-76.191z"/>
  <path d="m857.15 685.71 19.055 19.055v76.199l-152.4 152.37h-76.199l-19.043-19.055z"/>
  <path d="m1180.9 133.33 0.011719-38.09-76.199-76.199h-38.102c-273 273-584.14 584.12-857.15 857.15h38.102l76.188 76.199v38.074c273.02-273 584.15-584.12 857.15-857.13z"/>
  <path d="m1104.8 247.62 95.242 95.23-323.8 323.81-19.055-19.043-266.66 266.66 19.031 19.055-266.66 266.66-95.242-95.258c96.539-96.527 35.016-34.992 114.29-114.28l38.09 38.125 19.043-19.055-38.102-38.102 38.102-38.102 38.102 38.102 19.043-19.043-38.102-38.113 38.102-38.09 38.09 38.09 19.043-19.043-38.09-38.102 38.09-38.102 38.102 38.102 19.043-19.043-38.102-38.102 38.102-38.102 38.09 38.102 19.043-19.043-38.102-38.113 38.102-38.09 38.102 38.09 19.055-19.043-38.113-38.102 38.113-38.102 38.09 38.102 19.055-19.055-38.102-38.09 38.102-38.09 38.102 38.09 19.043-19.055-38.09-38.09 38.09-38.102 38.102 38.102 19.055-19.043-38.113-38.102 38.113-38.09 38.09 38.09 19.055-19.043-38.102-38.102 38.102-38.102 38.102 38.102 19.031-19.043-38.074-38.102 38.074-38.09 38.125 38.09 19.031-19.043-38.09-38.102c82.984-82.949 12.234-12.207 95.227-95.199z"/>
 </g>
 <text x="0" y="30" fill="#000000" font-size="32px" font-weight="bold" font-family="'Helvetica Neue', Helvetica, Arial-Unicode, Arial, Sans-serif">Created by Jakub Ukrop</text><text x="0" y="60" fill="#000000" font-size="32px" font-weight="bold" font-family="'Helvetica Neue', Helvetica, Arial-Unicode, Arial, Sans-serif">from the Noun Project</text>
</svg>
