<svg xmlns="http://www.w3.org/2000/svg" viewBox="0 0 64 80" x="0px" y="0px"><g><rect x="30" y="56" width="4" height="2"/><path d="M32,18a6,6,0,1,0-6-6A6.006,6.006,0,0,0,32,18ZM32,8a4,4,0,1,1-4,4A4,4,0,0,1,32,8Z"/><path d="M32,2C17.645,2,8,12.448,8,28a42.608,42.608,0,0,0,6.9,23.061C19.6,58.115,25.675,62,32,62s12.4-3.885,17.1-10.939A42.608,42.608,0,0,0,56,28C56,12.448,46.355,2,32,2ZM42,24a6.937,6.937,0,0,1,5.83,3,7.164,7.164,0,0,1-11.66,0A6.969,6.969,0,0,1,42,24Zm0,8a8.9,8.9,0,0,0,7.9-4.553,1,1,0,0,0,0-.894A8.9,8.9,0,0,0,42,22a9.211,9.211,0,0,0-3.374.617l1.7-3.006a5.007,5.007,0,0,0,2.293,1.014,5.749,5.749,0,0,0,.979.081c2.339,0,5.038-1.326,8.041-3.953l.138-.122a27.563,27.563,0,0,1,2.148,9.423l-2.756,4.391C49.278,33.28,48.523,34,46,34H42a6,6,0,0,1-5.611-3.893A8.853,8.853,0,0,0,42,32Zm8.862-17.23c-.174.155-.353.313-.541.477-3.652,3.2-6,3.618-7.323,3.414a3.058,3.058,0,0,1-1.675-.815L46.3,9.037A20.632,20.632,0,0,1,50.862,14.77ZM44.71,7.788l-10.455,18.5a3.151,3.151,0,0,0-.157.3A.991.991,0,0,0,34,27V40H30V27a.991.991,0,0,0-.1-.414,3.151,3.151,0,0,0-.157-.3L19.29,7.788A21.816,21.816,0,0,1,32,4,21.816,21.816,0,0,1,44.71,7.788ZM12.341,16.753c3,2.628,5.7,3.953,8.042,3.953a5.758,5.758,0,0,0,.979-.081A4.991,4.991,0,0,0,23.668,19.6l1.706,3.018A9.211,9.211,0,0,0,22,22a8.9,8.9,0,0,0-7.895,4.553,1,1,0,0,0,0,.894A8.9,8.9,0,0,0,22,32a8.853,8.853,0,0,0,5.611-1.893A6,6,0,0,1,22,34H18c-2.523,0-3.278-.72-5.153-3.531l-2.771-4.415a27.557,27.557,0,0,1,2.143-9.409C12.261,16.681,12.3,16.716,12.341,16.753ZM27.83,27a7.166,7.166,0,0,1-11.66,0A6.965,6.965,0,0,1,22,24,6.934,6.934,0,0,1,27.83,27ZM17.7,9.037l4.972,8.8a3.05,3.05,0,0,1-1.643.819c-1.329.226-3.685-.182-7.369-3.406-.183-.16-.356-.313-.527-.465A20.662,20.662,0,0,1,17.7,9.037Zm5.048,47.606a9.693,9.693,0,0,1,2.544-4.264A13.243,13.243,0,0,0,32,54a13.243,13.243,0,0,0,6.71-1.621,9.693,9.693,0,0,1,2.544,4.264A15.347,15.347,0,0,1,32,60,15.347,15.347,0,0,1,22.746,56.643Zm4.348-5.574A9.526,9.526,0,0,1,31.911,50a.853.853,0,0,0,.175,0,9.471,9.471,0,0,1,4.821,1.072A12.393,12.393,0,0,1,32,52,12.41,12.41,0,0,1,27.094,51.069Zm15.818,4.192A11.07,11.07,0,0,0,32,48a11.064,11.064,0,0,0-10.912,7.263q-.55-.506-1.079-1.055c-.292-3.969-.1-8.2,3.991-12.778V42c0,1.825,1.041,4,6,4h4c4.959,0,6-2.175,6-4v-.572c4.091,4.58,4.283,8.809,3.991,12.778Q43.462,54.755,42.912,55.261Zm3.166-3.478c-.037-4.123-1.158-8.713-6.4-13.52A1,1,0,0,0,38,39v3c0,.547,0,2-4,2H30c-4,0-4-1.453-4-2V39a1,1,0,0,0-1.676-.737c-5.244,4.807-6.365,9.4-6.4,13.52A40.939,40.939,0,0,1,10.05,29.775l1.118,1.78C13.229,34.646,14.5,36,18,36h4a7.976,7.976,0,0,0,6-2.726V41a1,1,0,0,0,1,1h6a1,1,0,0,0,1-1V33.274A7.976,7.976,0,0,0,42,36h4c3.5,0,4.771-1.354,6.847-4.469l1.1-1.756A40.947,40.947,0,0,1,46.078,51.783Z"/><path d="M29,21a3,3,0,1,0,3-3A3,3,0,0,0,29,21Zm3-1a1,1,0,1,1-1,1A1,1,0,0,1,32,20Z"/><rect x="31" y="11" width="2" height="2"/></g><text x="0" y="79" fill="#000000" font-size="5px" font-weight="bold" font-family="'Helvetica Neue', Helvetica, Arial-Unicode, Arial, Sans-serif">Created by Smalllike</text><text x="0" y="84" fill="#000000" font-size="5px" font-weight="bold" font-family="'Helvetica Neue', Helvetica, Arial-Unicode, Arial, Sans-serif">from the Noun Project</text></svg>