<svg xmlns="http://www.w3.org/2000/svg" data-name="Layer 102" viewBox="0 0 100 125" x="0px" y="0px"><title>54. Pitch Fork</title><path d="M50,95a2.5,2.5,0,0,0,2.5-2.5V35h3a7,7,0,0,0,7-7V6.84A1.82,1.82,0,0,0,61.05,5,1.77,1.77,0,0,0,59,6.75V28.17a1.83,1.83,0,1,1-3.65,0V6.75A1.77,1.77,0,0,0,53.28,5a1.82,1.82,0,0,0-1.45,1.82V28.17A1.83,1.83,0,0,1,50,30h0a1.83,1.83,0,0,1-1.82-1.83V6.75A1.75,1.75,0,0,0,46.12,5a1.82,1.82,0,0,0-1.46,1.83V28.17a1.83,1.83,0,1,1-3.65,0V6.75A1.77,1.77,0,0,0,39,5,1.82,1.82,0,0,0,37.5,6.84V28a7,7,0,0,0,7,7h3V92.5A2.5,2.5,0,0,0,50,95Z"/><text x="0" y="115" fill="#000000" font-size="5px" font-weight="bold" font-family="'Helvetica Neue', Helvetica, Arial-Unicode, Arial, Sans-serif">Created by Pascal Heß</text><text x="0" y="120" fill="#000000" font-size="5px" font-weight="bold" font-family="'Helvetica Neue', Helvetica, Arial-Unicode, Arial, Sans-serif">from the Noun Project</text></svg>