<svg xmlns="http://www.w3.org/2000/svg" xmlns:xlink="http://www.w3.org/1999/xlink" version="1.1" x="0px" y="0px" viewBox="0 0 100 125" enable-background="new 0 0 100 100" xml:space="preserve"><path d="M27.636,34.779c0,0,1.041-3.293,1.438-4.542c0.793-2.496,2.083-2.496,2.875,0c0.395,1.24,1.425,4.519,1.425,4.519  s3.45-0.006,4.771-0.015c2.618-0.02,3.016,1.21,0.889,2.731c-1.068,0.764-3.877,2.771-3.877,2.771s1.094,3.274,1.506,4.516  c0.828,2.486-0.219,3.245-2.321,1.692c-1.05-0.779-3.83-2.83-3.83-2.83s-2.778,2.05-3.833,2.83  c-2.105,1.553-3.151,0.794-2.323-1.692c0.41-1.23,1.506-4.516,1.506-4.516s-2.8-2.002-3.875-2.771  c-2.132-1.521-1.733-2.75,0.889-2.731C24.184,34.751,27.636,34.779,27.636,34.779z M45.627,34.615  c-1.903,0.918-1.754,1.949,0.325,2.292c1.051,0.176,3.788,0.628,3.788,0.628s0.377,2.765,0.517,3.8  c0.285,2.092,1.314,2.269,2.282,0.398c0.484-0.938,1.765-3.409,1.765-3.409s2.742,0.496,3.774,0.686  c2.073,0.376,2.561-0.544,1.081-2.048c-0.741-0.751-2.693-2.731-2.693-2.731s1.316-2.449,1.818-3.381  c0.998-1.857,0.274-2.604-1.613-1.659c-0.955,0.476-3.443,1.705-3.443,1.705s-1.913-2.005-2.642-2.761  c-1.456-1.523-2.388-1.065-2.074,1.021c0.157,1.043,0.57,3.795,0.57,3.795S46.575,34.157,45.627,34.615z M31.381,15.086  c-1.781,1.562-1.31,2.63,1.039,2.376c1.187-0.127,4.278-0.461,4.278-0.461s1.235,2.876,1.698,3.952  c0.935,2.173,2.099,2.056,2.584-0.255c0.242-1.16,0.883-4.211,0.883-4.211s3.107-0.29,4.283-0.394  c2.351-0.215,2.602-1.356,0.551-2.535c-1.024-0.59-3.729-2.14-3.729-2.14s0.686-3.042,0.947-4.197  c0.521-2.308-0.485-2.895-2.24-1.309c-0.887,0.799-3.208,2.876-3.208,2.876s-2.665-1.592-3.677-2.19  c-2.033-1.207-2.904-0.432-1.937,1.726c0.482,1.081,1.756,3.927,1.756,3.927S32.265,14.306,31.381,15.086z M64.35,60.605  c0.045,0.415,0.05,0.846,0.004,1.29c0,0-0.501,4.769-0.501,12.875c0,8.109,0.558,13.93,0.558,13.93  C64.742,92.167,62.17,95,58.688,95h-26.74c-3.48,0-6.133-2.843-5.893-6.312c0,0,0.394-5.755,0.394-13.782c0-9.546-0.292-13-0.292-13  c-0.033-0.399-0.019-0.785,0.02-1.162c-7.569-0.417-12.474-1.339-12.474-3.382c0-3.188,14.154-4.268,31.616-4.268  c17.458,0,31.614,1.373,31.614,4.268C76.934,59.127,71.982,60.1,64.35,60.605z M61.128,58.145c0-1.031-7.078-1.859-15.809-1.859  c-8.733,0-15.813,0.438-15.813,1.859s7.08,1.858,15.813,1.858C54.05,60.003,61.128,59.175,61.128,58.145z"/><text x="0" y="115" fill="#000000" font-size="5px" font-weight="bold" font-family="'Helvetica Neue', Helvetica, Arial-Unicode, Arial, Sans-serif">Created by Veronika Geertsema König</text><text x="0" y="120" fill="#000000" font-size="5px" font-weight="bold" font-family="'Helvetica Neue', Helvetica, Arial-Unicode, Arial, Sans-serif">from the Noun Project</text></svg>