<svg xmlns="http://www.w3.org/2000/svg" xmlns:xlink="http://www.w3.org/1999/xlink" version="1.1" x="0px" y="0px" viewBox="0 0 100 125" enable-background="new 0 0 100 100" xml:space="preserve"><g><g><path d="M25.6,67.5c-8.8-3.3-10.3-10.8-7.8-17.5c1.4-3.7,26.2,6.5,25.1,9.4C40.4,66,34.4,70.8,25.6,67.5z"/></g><path d="M48.9,38.4L48.7,38l-21.3-7.9l-0.4,0.1c-5.6,1.7-14.7,14-15.1,25.4C11.8,61,13.6,68.1,22.7,72l-6.6,17.6L9.3,87l-0.8,2.2   L23.8,95l0.8-2.2l-6.3-2.4l6.6-17.6c2.1,0.7,4.2,1,6.1,1c6.3,0,11.5-3.5,15.1-10.1C51.1,54.8,51.7,42.8,48.9,38.4z M44,62.6   c-2.2,4-6.3,8.9-13.1,8.9c-2,0-4.2-0.4-6.4-1.3c-7-2.6-10.4-7.5-10.2-14.5c0.3-10.3,8.6-21.3,13-23.1L47.1,40   C49,43.7,48.6,54.4,44,62.6z"/><g><rect x="28.2" y="20.5" transform="matrix(0.7071 0.7071 -0.7071 0.7071 25.7997 -18.8179)" width="14.7" height="2.4"/></g><g><rect x="48.8" y="5" width="2.4" height="14.7"/></g><g><rect x="63.7" y="14.1" transform="matrix(0.7071 0.7071 -0.7071 0.7071 34.1946 -39.6004)" width="2.4" height="14.8"/></g><g><path d="M74.4,67.5c8.8-3.3,10.3-10.8,7.8-17.5c-1.4-3.7-26.2,6.5-25.1,9.4C59.6,66,65.6,70.8,74.4,67.5z"/></g><path d="M90.7,87l-6.8,2.5L77.3,72C86.4,68.1,88.2,61,88,55.7c-0.3-11.4-9.5-23.7-15.1-25.4l-0.4-0.1L51.3,38l-0.2,0.3   c-2.8,4.4-2.1,16.5,2.8,25.4c3.6,6.6,8.9,10.1,15.1,10.1c0,0,0,0,0,0c1.9,0,4-0.4,6.1-1l6.6,17.6l-6.3,2.4l0.8,2.2l15.4-5.7   L90.7,87z M69,71.5c-6.7,0-10.8-4.8-13.1-8.9c-4.5-8.2-4.9-18.9-3-22.6l19.7-7.3c4.4,1.8,12.7,12.8,13,23.1   c0.2,7-3.2,11.8-10.2,14.5C73.2,71,71,71.5,69,71.5L69,71.5z"/></g><text x="0" y="115" fill="#000000" font-size="5px" font-weight="bold" font-family="'Helvetica Neue', Helvetica, Arial-Unicode, Arial, Sans-serif">Created by Giulia Sicurella</text><text x="0" y="120" fill="#000000" font-size="5px" font-weight="bold" font-family="'Helvetica Neue', Helvetica, Arial-Unicode, Arial, Sans-serif">from the Noun Project</text></svg>