<svg xmlns="http://www.w3.org/2000/svg" viewBox="0 0 64 80" x="0px" y="0px"><g><rect x="19" y="46" width="8" height="4"/><rect x="5" y="33" width="8" height="4"/><polygon points="5 46 7 46 7 48 5 48 5 50 13 50 13 39 5 39 5 46"/><path d="M11.956,25.794A11.987,11.987,0,0,1,9.009,31h4.253l3.384-11H12.963A25.622,25.622,0,0,1,11.956,25.794Z"/><path d="M7.618,20,5,25.236v5.675c4.833-.889,5.774-8.2,5.957-10.911Z"/><polygon points="35.323 23 37 18.807 37 8 27 8 27 18.807 28.677 23 35.323 23"/><path d="M37,40h3V24a1.012,1.012,0,0,1,.071-.372L41.523,20H38.677L37,24.193Z"/><polygon points="4.618 18 17 18 17 12 7.618 12 4.618 18"/><polygon points="50.382 8 47 8 47 10 51.382 10 50.382 8"/><path d="M23.929,23.628A1.012,1.012,0,0,1,24,24V40h3V24.193L25.323,20H22.477Z"/><polygon points="22 24.192 20.323 20 19 20 19 40 22 40 22 24.192"/><rect x="19" y="4" width="6" height="14"/><rect x="5" y="52" width="8" height="2"/><rect x="51" y="52" width="8" height="2"/><polygon points="12.618 10 17 10 17 8 13.618 8 12.618 10"/><path d="M53.043,20c.183,2.707,1.124,10.022,5.957,10.911V25.236L56.382,20Z"/><rect x="51" y="33" width="8" height="4"/><path d="M52.044,25.794A25.622,25.622,0,0,1,51.037,20H47.354l3.384,11h4.253A11.987,11.987,0,0,1,52.044,25.794Z"/><path d="M51,50h8V39H51Zm4-4h2v2H55Z"/><polygon points="42 24.192 42 40 45 40 45 20 43.677 20 42 24.192"/><path d="M35,41V25H29V41a1,1,0,0,1-1,1H19v2h9a1,1,0,0,1,1,1v6a1,1,0,0,1-1,1H19v2.341l13,5.571,13-5.571V52H36a1,1,0,0,1-1-1V45a1,1,0,0,1,1-1h9V42H36A1,1,0,0,1,35,41Z"/><rect x="37" y="46" width="8" height="4"/><rect x="39" y="4" width="6" height="14"/><polygon points="56.382 12 47 12 47 18 59.382 18 56.382 12"/></g><text x="0" y="79" fill="#000000" font-size="5px" font-weight="bold" font-family="'Helvetica Neue', Helvetica, Arial-Unicode, Arial, Sans-serif">Created by Smalllike</text><text x="0" y="84" fill="#000000" font-size="5px" font-weight="bold" font-family="'Helvetica Neue', Helvetica, Arial-Unicode, Arial, Sans-serif">from the Noun Project</text></svg>