<svg xmlns="http://www.w3.org/2000/svg" xmlns:xlink="http://www.w3.org/1999/xlink" version="1.1" x="0px" y="0px" viewBox="0 0 64 80" style="enable-background:new 0 0 64 64;" xml:space="preserve"><g><path d="M55,1H9C7.346,1,6,2.346,6,4v16.822c0,17.755,9.786,33.873,25.539,42.065L32,63.127l0.461-0.239   C48.214,54.695,58,38.577,58,20.822V4C58,2.346,56.654,1,55,1z M56,20.822c0,16.832-9.183,32.128-24,40.047   C17.183,52.95,8,37.654,8,20.822V4c0-0.551,0.449-1,1-1h46c0.551,0,1,0.449,1,1V20.822z"/><path d="M46.395,18c-3.052,0-6.022,0.609-8.828,1.812L36,20.484V19h-2v4.675c0,4.036,0.607,8.027,1.805,11.875L32,37.834   l-3.805-2.283C29.393,31.703,30,27.711,30,23.675V19h-2v1.484l-1.567-0.672C23.627,18.609,20.658,18,17.605,18   c-2.557,0-5.033,0.75-7.16,2.168l-0.908,0.605l1.96,2.45c1.919,2.4,4.784,3.777,7.858,3.777c1.211,0,2.4-0.216,3.534-0.641   l5.094-1.91c-0.078,3.824-0.722,7.601-1.933,11.235l-0.253,0.761l3.184,1.911C28.797,41.498,26.189,44,23,44c-3.309,0-6-2.691-6-6   v-0.5c0-1.379,1.122-2.5,2.5-2.5s2.5,1.121,2.5,2.5h2c0-2.481-2.019-4.5-4.5-4.5S15,35.019,15,37.5V38c0,4.411,3.589,8,8,8   c0.479,0,0.946-0.05,1.402-0.131l1.539,2.051c0.734,0.98,1.25,2.133,1.49,3.335C27.865,53.425,29.787,55,32,55   s4.135-1.575,4.569-3.745c0.24-1.202,0.756-2.354,1.49-3.334l1.539-2.052C40.054,45.95,40.521,46,41,46c4.411,0,8-3.589,8-8v-0.5   c0-2.481-2.019-4.5-4.5-4.5S40,35.019,40,37.5h2c0-1.379,1.122-2.5,2.5-2.5s2.5,1.121,2.5,2.5V38c0,3.309-2.691,6-6,6   c-3.189,0-5.797-2.502-5.982-5.645l3.184-1.911l-0.253-0.761c-1.211-3.634-1.856-7.41-1.933-11.235l5.094,1.91   C42.243,26.784,43.432,27,44.644,27c3.075,0,5.939-1.377,7.858-3.777l1.96-2.45l-0.908-0.605C51.428,18.75,48.952,18,46.395,18z    M22.188,24.487C21.28,24.827,20.327,25,19.356,25c-2.463,0-4.758-1.103-6.297-3.027l-0.563-0.704   c1.569-0.833,3.315-1.27,5.109-1.27c2.78,0,5.485,0.555,8.04,1.65l1.917,0.822L22.188,24.487z M36.459,46.721   c-0.913,1.217-1.553,2.649-1.852,4.142C34.36,52.101,33.263,53,32,53s-2.36-0.899-2.608-2.138   c-0.298-1.492-0.938-2.925-1.852-4.143l-1.123-1.497c0.151-0.072,0.302-0.142,0.447-0.223h10.271   c0.145,0.081,0.297,0.151,0.447,0.223L36.459,46.721z M34.765,43h-5.53c0.807-1.004,1.375-2.205,1.622-3.52L32,40.166l1.143-0.686   C33.39,40.795,33.958,41.996,34.765,43z M50.94,21.974C49.402,23.897,47.107,25,44.644,25c-0.971,0-1.923-0.173-2.832-0.514   l-5.374-2.015l1.917-0.822c2.555-1.095,5.26-1.65,8.04-1.65c1.793,0,3.54,0.437,5.109,1.27L50.94,21.974z"/><path d="M22.812,14.729l1.956,1.565C25.336,16.75,26.051,17,26.779,17C28.555,17,30,15.555,30,13.779v-0.315   c0-1.291-0.767-2.453-1.952-2.96l-3.781-1.621C22.899,8.297,21.451,8,19.963,8c-3.421,0-6.688,1.634-8.761,4.398L9.62,14.496   l6.714-1.342C18.582,12.701,21.011,13.29,22.812,14.729z M15.3,11.32c2.406-1.474,5.537-1.732,8.179-0.599l3.782,1.621   c0.449,0.192,0.74,0.632,0.74,1.122v0.315C28,14.452,27.452,15,26.779,15c-0.276,0-0.547-0.095-0.763-0.268l-1.956-1.564   C22.313,11.77,20.118,11,17.88,11c-0.651,0-1.304,0.065-1.94,0.192L15.3,11.32z"/><path d="M37.221,17c0.728,0,1.443-0.25,2.012-0.706l1.956-1.564c1.8-1.439,4.228-2.026,6.479-1.576l6.681,1.311l-1.57-2.094   C50.725,9.634,47.458,8,44.037,8c-1.488,0-2.937,0.297-4.304,0.884l-3.781,1.62C34.767,11.012,34,12.174,34,13.464v0.315   C34,15.555,35.445,17,37.221,17z M36,13.464c0-0.489,0.291-0.929,0.74-1.122l3.781-1.621c1.117-0.479,2.3-0.722,3.516-0.722   c1.654,0,3.263,0.467,4.654,1.319l-0.631-0.126c-2.821-0.564-5.865,0.171-8.121,1.976l-1.956,1.564   C37.768,14.905,37.497,15,37.221,15C36.548,15,36,14.452,36,13.779V13.464z"/></g><text x="0" y="79" fill="#000000" font-size="5px" font-weight="bold" font-family="'Helvetica Neue', Helvetica, Arial-Unicode, Arial, Sans-serif">Created by Eucalyp</text><text x="0" y="84" fill="#000000" font-size="5px" font-weight="bold" font-family="'Helvetica Neue', Helvetica, Arial-Unicode, Arial, Sans-serif">from the Noun Project</text></svg>