<svg xmlns="http://www.w3.org/2000/svg" xmlns:xlink="http://www.w3.org/1999/xlink" version="1.1" x="0px" y="0px" viewBox="0 0 100 125" style="enable-background:new 0 0 100 100;" xml:space="preserve"><style type="text/css">
	.st0{fill:none;stroke:#000000;stroke-linejoin:round;stroke-miterlimit:10;}
</style><path d="M75.8,35.3C64.2,35.2,55.3,47.8,53.9,59c-0.1,0.8-0.1,1.6-0.2,2.4h-1.4c0.1-10.8,5.1-15.8,6.3-26.1  C59.3,28.7,58,18.7,50,5.6c-8,13.1-9.3,23.1-8.6,29.8c1.1,10.3,6.1,15.3,6.3,26.1h-1.4c0-0.8-0.1-1.6-0.2-2.4  c-1.3-11.1-10.3-23.7-21.9-23.6C11.7,35.4,7.9,43.2,7.7,53.5c0,0.8,1,1.1,1.5,0.5c4.4-5.3,10.4-8.5,16.9-7.8  c8.3,0.9,13.6,9.2,14.6,15.2h-2.8c-1.2,0-2.2,1-2.2,2.2s1,2.2,2.2,2.2h3c-0.5,7.6-5,13.2-11.1,14.3c-2.5,0.5-5.3-0.5-7.4-1.6  c-0.8-0.4-1.5,0.5-1.1,1.2c2.2,3.4,6.2,6.4,11.3,5.3c7-1.5,12.1-10.3,13.3-19.2h1.5c-0.8,7.5-3.8,13.6-6.3,17.6  c2.9,3.7,5.9,7.4,8.8,11.1c2.9-3.7,5.8-7.4,8.8-11.1c-2.4-4-5.4-10.1-6.3-17.6H54c1.2,8.9,6.3,17.6,13.3,19.2  c5.1,1.1,9.1-1.9,11.3-5.3c0.5-0.7-0.3-1.6-1.1-1.2c-2.1,1.1-4.9,2-7.4,1.6c-6-1.1-10.6-6.6-11.1-14.3h3c1.2,0,2.2-1,2.2-2.2  s-1-2.2-2.2-2.2h-2.8c1-6,6.4-14.3,14.6-15.2c6.5-0.7,12.5,2.5,16.9,7.8c0.5,0.6,1.5,0.3,1.5-0.5C92.1,43.2,88.3,35.4,75.8,35.3z   M50,14.6c0.5,5.3,0.6,10.6,0.6,15.9c0,5.3-0.1,10.6-0.6,15.9c-0.5-5.3-0.5-10.6-0.5-15.9C49.4,25.2,49.5,19.9,50,14.6z M28.9,41.9  C24,40.4,17.5,41,13.9,45c3.4-4.4,9.8-5.2,14.8-3.9c5.3,1.4,10,5.5,11.5,10.9C38.1,47.1,34,43.5,28.9,41.9z M71.1,41.9  C66,43.5,61.9,47.1,59.8,52c1.5-5.4,6.2-9.5,11.5-10.9c5.1-1.3,11.4-0.5,14.8,3.9C82.4,41,76,40.4,71.1,41.9z"/>
<text x="0" y="115" fill="#000000" font-size="5px" font-weight="bold" font-family="'Helvetica Neue', Helvetica, Arial-Unicode, Arial, Sans-serif">Created by B Barrett</text><text x="0" y="120" fill="#000000" font-size="5px" font-weight="bold" font-family="'Helvetica Neue', Helvetica, Arial-Unicode, Arial, Sans-serif">from the Noun Project</text></svg>