<?xml version="1.0" encoding="utf-8"?><!DOCTYPE svg PUBLIC "-//W3C//DTD SVG 1.1//EN" "http://www.w3.org/Graphics/SVG/1.1/DTD/svg11.dtd"><svg version="1.1" xmlns="http://www.w3.org/2000/svg" xmlns:xlink="http://www.w3.org/1999/xlink" x="0px" y="0px" viewBox="0 0 100 124.99625" enable-background="new 0 0 100 99.997" xml:space="preserve"><g><path fill="#010101" d="M92.951,0.909L43.864,49.998L25.455,68.406l-6.136,6.136L0.909,92.951c0,0-2.045,2.045,0,4.091
		c2.048,2.045,2.048,2.045,2.048,2.045s2.045,2.048,4.09,0C8.673,97.462,20.602,85.53,25.455,80.68
		c1.264-1.263,6.138-6.139,6.138-6.139s2.045-2.045,4.09,0c1.562,1.562,10.285,10.288,14.317,14.319c1.248,1.245,0,4.09,0,4.09
		s4.088,4.091,8.179,0c2.045-2.045,2.045-2.045,2.045-2.045s4.091-4.091,0-8.181c-0.073-0.076-2.903,1.187-4.09,0
		c-1.097-1.099-14.316-14.319-14.316-14.319s-2.048-2.045,0-4.09c0.21-0.209,7.066-7.065,8.182-8.181
		C59.649,46.49,99.089,7.047,99.089,7.047s2.048-2.045,0-4.09c-2.046-2.048-2.046-2.048-2.046-2.048S94.996-1.136,92.951,0.909z"/></g><text x="0" y="114.997" fill="#000000" font-size="5px" font-weight="bold" font-family="'Helvetica Neue', Helvetica, Arial-Unicode, Arial, Sans-serif">Created by Liyi Zhang</text><text x="0" y="119.997" fill="#000000" font-size="5px" font-weight="bold" font-family="'Helvetica Neue', Helvetica, Arial-Unicode, Arial, Sans-serif">from the Noun Project</text></svg>