<svg xmlns="http://www.w3.org/2000/svg" xmlns:xlink="http://www.w3.org/1999/xlink" version="1.1" x="0px" y="0px" viewBox="0 0 464 580" style="enable-background:new 0 0 464 464;" xml:space="preserve"><g><rect x="224" y="32" width="16" height="112"/><path d="M192,32v112h16V32c0-8.822,7.178-16,16-16h16c8.822,0,16,7.178,16,16v112h16V32c0-8.822,7.178-16,16-16h8.195   C292.894,6.636,283.98,0,273.56,0H190.44c-10.421,0-19.334,6.636-22.635,16H176C184.822,16,192,23.178,192,32z"/><polygon points="176,32 166.01,32 160.41,144 176,144  "/><rect x="144" y="160" width="176" height="64"/><path d="M352,208c0-8.822,7.178-16,16-16h16c8.822,0,16,7.178,16,16v112h16V208c0-8.822,7.178-16,16-16h8.195   c-3.301-9.364-12.214-16-22.635-16H336v56v8v80h16V208z"/><polygon points="288,144 303.59,144 297.99,32 288,32  "/><polygon points="432,320 447.59,320 441.99,208 432,208  "/><rect x="368" y="208" width="16" height="112"/><polygon points="320,320 320,240 308.41,240 304.41,320  "/><circle cx="232" cy="408" r="56"/><path d="M176,336H0v64h160.455c1.554-13.989,7.13-26.776,15.545-37.185V336z"/><polygon points="32,208 22.01,208 16.41,320 32,320  "/><path d="M288,336v26.815c8.415,10.409,13.991,23.196,15.545,37.185H464v-64H288z"/><polygon points="155.59,240 144,240 144,320 159.59,320  "/><path d="M48,208v112h16V208c0-8.822,7.178-16,16-16h16c8.822,0,16,7.178,16,16v112h16v-80v-8v-56H46.44   c-10.421,0-19.334,6.636-22.635,16H32C40.822,192,48,199.178,48,208z"/><rect x="80" y="208" width="16" height="112"/></g><text x="0" y="489" fill="#000000" font-size="32px" font-weight="bold" font-family="'Helvetica Neue', Helvetica, Arial-Unicode, Arial, Sans-serif">Created by Eucalyp</text><text x="0" y="528" fill="#000000" font-size="32px" font-weight="bold" font-family="'Helvetica Neue', Helvetica, Arial-Unicode, Arial, Sans-serif">from the Noun Project</text></svg>