<svg xmlns="http://www.w3.org/2000/svg" xmlns:xlink="http://www.w3.org/1999/xlink" version="1.1" x="0px" y="0px" viewBox="0 0 100 125" style="enable-background:new 0 0 100 100;" xml:space="preserve"><path d="M65,26.9H37.6c-0.6,0-1-0.4-1-1s0.4-1,1-1H65c0.6,0,1,0.4,1,1S65.6,26.9,65,26.9z"/><path d="M65,32.6H37.6c-0.6,0-1-0.4-1-1s0.4-1,1-1H65c0.6,0,1,0.4,1,1S65.6,32.6,65,32.6z"/><path d="M65,38.4H37.6c-0.6,0-1-0.4-1-1s0.4-1,1-1H65c0.6,0,1,0.4,1,1S65.6,38.4,65,38.4z"/><path d="M52.8,44.1H37.6c-0.6,0-1-0.4-1-1s0.4-1,1-1h15.2c0.6,0,1,0.4,1,1S53.3,44.1,52.8,44.1z"/><g><path d="M26.8,81.1c0.1,0,0.1,0,0.2,0C26.9,81.1,26.8,81.1,26.8,81.1z"/><path d="M24.1,78.6c0-0.2,0-0.3,0-0.5C24.1,78.3,24.1,78.4,24.1,78.6z"/><path d="M24.7,79.9C24.7,79.9,24.7,79.9,24.7,79.9C24.7,79.9,24.7,79.9,24.7,79.9z"/><path d="M24.5,79.5c0,0,0-0.1-0.1-0.1C24.4,79.4,24.4,79.5,24.5,79.5z"/><path d="M24.3,79.1c0-0.1,0-0.2-0.1-0.3C24.2,78.9,24.2,79,24.3,79.1z"/><path d="M24.2,78.8c0-0.1,0-0.2-0.1-0.2C24.1,78.7,24.2,78.8,24.2,78.8z"/><path d="M24.7,79.9c0.4,0.5,1,0.9,1.7,1.1c0,0,0.2,0,0.4,0.1c-0.2,0-0.3-0.1-0.4-0.1C25.7,80.8,25.1,80.5,24.7,79.9z"/><path d="M24.7,79.9c-0.1-0.1-0.2-0.2-0.3-0.4C24.5,79.7,24.6,79.8,24.7,79.9z"/><path d="M24.4,79.4c-0.1-0.1-0.1-0.2-0.1-0.3C24.3,79.2,24.4,79.3,24.4,79.4z"/><path d="M81.7,34c-1-1-2-1.5-3.2-1.7c-1.2-0.2-2.5,0.5-3.1,1.6l-0.5,1v-14c0-2.6-2.1-4.7-4.7-4.7H31.1c-1.9,0-3.5,1.1-4.2,2.7   c-0.2,0-0.3,0-0.5,0.1c-1.9,0.3-3.3,2-3.3,3.9s1.4,3.6,3.3,3.9v0.1c-1.9,0.3-3.3,2-3.3,3.9s1.4,3.6,3.3,3.9c-1.9,0.3-3.3,2-3.3,3.9   s1.4,3.6,3.3,3.9c-1.9,0.3-3.3,2-3.3,3.9s1.4,3.6,3.3,3.9v0.1c-1.9,0.3-3.3,2-3.3,3.9s1.4,3.6,3.3,3.9c-1.9,0.3-3.3,2-3.3,3.9   s1.4,3.6,3.3,3.9c-1.9,0.3-3.3,2-3.3,3.9s1.4,3.6,3.3,3.9c-1.9,0.3-3.3,2-3.3,3.9s1.4,3.6,3.3,3.9c0.5,0.1,1,0.1,1.3,0   c0.9,0.9,2.1,1.5,3.5,1.5h39.1c2.6,0,4.7-2.1,4.7-4.7V50.3l1.8-3.6l0.3,0.2c0.2,0.1,0.5,0,0.6-0.2l4.6-9.1   C82.8,36.3,82.6,35,81.7,34z M26.4,25.8c-1.3-0.3-2.3-1.5-2.3-2.9c0-1.4,1-2.6,2.3-2.9c0,0,0.1,0,0.1,0c-0.1,0.3-0.1,0.7-0.1,1v1    M24.1,30.8c0-1.4,1-2.6,2.3-2.9v0.9v1v3.9C25.1,33.4,24.1,32.2,24.1,30.8z M24.1,38.7c0-1.4,1-2.6,2.3-2.9v5.8   C25.1,41.3,24.1,40.1,24.1,38.7z M24.1,46.5c0-1.4,1-2.6,2.3-2.9v5.8C25.1,49.1,24.1,47.9,24.1,46.5z M24.1,54.5   c0-1.4,1-2.6,2.3-2.9v5.8C25.1,57.1,24.1,55.9,24.1,54.5z M24.1,62.3c0-1.4,1-2.6,2.3-2.9v5.8C25.1,64.9,24.1,63.8,24.1,62.3z    M24.1,70.2c0-1.4,1-2.6,2.3-2.9v5.8C25.1,72.8,24.1,71.6,24.1,70.2z M26.8,81.1c-0.2,0-0.4-0.1-0.4-0.1c-0.7-0.2-1.2-0.5-1.7-1.1   c0,0,0,0,0,0c-0.1-0.1-0.2-0.2-0.3-0.4c0,0,0-0.1-0.1-0.1c-0.1-0.1-0.1-0.2-0.1-0.3c0-0.1,0-0.2-0.1-0.3c0-0.1,0-0.2-0.1-0.2   c0-0.2,0-0.3,0-0.5c0-1.4,1-2.6,2.3-2.9v3.7c0,0.8,0.2,1.6,0.6,2.2C26.9,81.1,26.8,81.1,26.8,81.1z M72.9,78.9   c0,1.5-1.2,2.7-2.7,2.7H31.1c-1.5,0-2.7-1.2-2.7-2.7v-3.5c0.7,0.4,1.3,1,1.5,1.8c-0.2,0.2-0.4,0.4-0.4,0.8c0,0.4,0.2,0.7,0.5,0.9   c0.1,0.1,0.3,0.1,0.4,0.1c0.3,0,0.5-0.1,0.6-0.3c0.2-0.2,0.3-0.4,0.3-0.7c0-0.3-0.1-0.5-0.3-0.7c-0.1-0.1-0.2-0.1-0.2-0.2   c-0.3-1.3-1.3-2.3-2.5-2.7v-6.8c0.7,0.4,1.3,1,1.5,1.8c-0.2,0.2-0.4,0.4-0.4,0.8c0,0.4,0.2,0.7,0.5,0.9c0.1,0.1,0.3,0.1,0.4,0.1   c0.3,0,0.5-0.1,0.6-0.3c0.2-0.2,0.3-0.4,0.3-0.7c0-0.3-0.1-0.5-0.3-0.7c-0.1-0.1-0.2-0.1-0.2-0.2c-0.3-1.3-1.3-2.3-2.5-2.7v-6.8   c0.7,0.4,1.3,1,1.5,1.8c-0.2,0.2-0.4,0.4-0.4,0.8c0,0.4,0.2,0.7,0.5,0.9c0.1,0.1,0.3,0.1,0.4,0.1c0.3,0,0.5-0.1,0.6-0.3   c0.2-0.2,0.3-0.4,0.3-0.7c0-0.3-0.1-0.5-0.3-0.7c-0.1-0.1-0.2-0.1-0.2-0.2c-0.3-1.3-1.3-2.3-2.5-2.7v-6.8c0.7,0.4,1.3,1,1.5,1.8   c-0.2,0.2-0.4,0.4-0.4,0.8c0,0.4,0.2,0.7,0.5,0.9c0.1,0.1,0.3,0.1,0.4,0.1c0.3,0,0.5-0.1,0.6-0.3c0.2-0.2,0.3-0.4,0.3-0.7   c0-0.3-0.1-0.5-0.3-0.7c-0.1-0.1-0.2-0.1-0.2-0.2c-0.3-1.3-1.3-2.3-2.5-2.7v-6.9c0.7,0.4,1.3,1,1.5,1.8c-0.2,0.2-0.4,0.4-0.4,0.8   c0,0.4,0.2,0.7,0.5,0.9c0.1,0.1,0.3,0.1,0.4,0.1c0.3,0,0.5-0.1,0.6-0.3c0.2-0.2,0.3-0.4,0.3-0.7c0-0.3-0.1-0.5-0.3-0.7   c-0.1-0.1-0.2-0.1-0.2-0.2c-0.3-1.3-1.3-2.3-2.5-2.7V36c0.7,0.4,1.3,1,1.5,1.8c-0.2,0.2-0.4,0.4-0.4,0.8c0,0.4,0.2,0.7,0.5,0.9   c0.1,0.1,0.3,0.1,0.4,0.1c0.3,0,0.5-0.1,0.6-0.3c0.2-0.2,0.3-0.4,0.3-0.7c0-0.3-0.1-0.5-0.3-0.7c-0.1-0.1-0.2-0.1-0.2-0.2   c-0.3-1.3-1.3-2.3-2.5-2.7v-5.3v-1.1v-0.5c0.7,0.4,1.3,1,1.5,1.8c-0.2,0.2-0.4,0.4-0.4,0.8c0,0.4,0.2,0.7,0.5,0.9   c0.1,0.1,0.3,0.1,0.4,0.1c0.3,0,0.5-0.1,0.6-0.3c0.2-0.2,0.3-0.4,0.3-0.7c0-0.3-0.1-0.5-0.3-0.7c-0.1-0.1-0.2-0.1-0.2-0.2   c-0.3-1.3-1.3-2.3-2.5-2.7v-3.9v-1.1v-0.3v-0.8c0-0.3,0-0.5,0.1-0.7c0.7,0.4,1.2,1,1.4,1.7c-0.2,0.2-0.4,0.4-0.4,0.8   c0,0.4,0.2,0.7,0.5,0.9c0.1,0.1,0.3,0.1,0.4,0.1c0.3,0,0.5-0.1,0.6-0.3c0.2-0.2,0.3-0.4,0.3-0.7c0-0.3-0.1-0.5-0.3-0.7   c-0.1-0.1-0.2-0.1-0.2-0.2c-0.3-1.1-1-2-2-2.5c0.5-0.7,1.3-1.1,2.2-1.1h39.1c1.5,0,2.7,1.2,2.7,2.7v18l-2.1,4.3   c-0.1,0.2,0,0.5,0.2,0.6l0.3,0.2L61,64.7c-0.1,0.1-0.1,0.2,0,0.3c0,0,0.2,0.7,0.7,1.3L61,70.3c0,0.2,0.1,0.4,0.2,0.5c0,0,0,0,0,0   c0.2,0.1,0.4,0.1,0.5-0.1l2.8-2.8c0.4,0,0.9-0.1,1.5-0.2c0.1,0,0.2-0.1,0.3-0.2l6.5-13.1V78.9z M62.2,69l0.3-1.7   c0.3,0.2,0.7,0.4,1,0.5L62.2,69z M74.9,48.2l-2,4l-7.3,14.6c-2.5,0.7-3.5-1.3-3.8-1.9l10.3-20.5l0.8,0.4l1.3,0.7l-1.3,2.7l-1,2   c-0.1,0.2,0,0.5,0.2,0.6c0.2,0.1,0.5,0,0.6-0.2l0.2-0.4l2-4l0.1-0.3l0.8,0.4L74.9,48.2z M81.4,37.1l-4.4,8.7l-0.3-0.1   c0,0,0,0-0.1,0L75.5,45l3.9-7.8c0.1-0.2,0-0.5-0.2-0.6s-0.5,0-0.6,0.2l-3.6,7.3l-0.2,0.5l-1.8-0.9l-0.8-0.4c0,0,0,0-0.1,0l-0.3-0.1   l1.1-2.3l2-4l1.3-2.6c0.4-0.8,1.3-1.3,2.1-1.2c1,0.2,1.9,0.6,2.7,1.5C81.7,35.3,81.8,36.3,81.4,37.1z"/></g><text x="0" y="115" fill="#000000" font-size="5px" font-weight="bold" font-family="'Helvetica Neue', Helvetica, Arial-Unicode, Arial, Sans-serif">Created by Caitlin George</text><text x="0" y="120" fill="#000000" font-size="5px" font-weight="bold" font-family="'Helvetica Neue', Helvetica, Arial-Unicode, Arial, Sans-serif">from the Noun Project</text></svg>