<svg xmlns="http://www.w3.org/2000/svg" xmlns:xlink="http://www.w3.org/1999/xlink" version="1.1" x="0px" y="0px" viewBox="0 0 100 125" enable-background="new 0 0 100 100" xml:space="preserve"><g><path d="M47,78h34V48H47V78z M51,52h26v22H51V52z"/><path d="M84.178,5H15.823L5,24.492V29.4c0,3.35,1.566,6.336,4,8.28V95h10h23h49V37.68c2.434-1.944,4-4.931,4-8.28v-4.922L84.178,5z    M84.4,36c-3.64,0-6.601-2.961-6.601-6.6v-2.39H91v2.39C91,33.039,88.039,36,84.4,36z M9,27.01h13.2v2.39   c0,3.639-2.961,6.6-6.601,6.6C11.961,36,9,33.039,9,29.4V27.01z M67.2,36c-3.64,0-6.601-2.961-6.601-6.6v-2.39h13.2v2.39   C73.8,33.039,70.839,36,67.2,36z M50,36c-3.639,0-6.6-2.961-6.6-6.6v-2.39H56.6v2.39C56.6,33.039,53.639,36,50,36z M32.8,36   c-3.639,0-6.6-2.961-6.6-6.6v-2.39h13.2v2.39C39.4,33.039,36.439,36,32.8,36z M41.166,9L39.61,23.01H26.975L31.642,9H41.166z    M77.242,23.01L72.574,9h9.248l7.773,14.01H77.242z M73.025,23.01H60.39L58.834,9h9.524L73.025,23.01z M56.367,23.01H43.635   L45.19,9h9.63L56.367,23.01z M27.426,9l-4.668,14.01H10.398L18.177,9H27.426z M23,91V52h15v39H23z M87,91H42V48H19v43h-6V39.664   C13.834,39.875,14.701,40,15.6,40c3.541,0,6.674-1.752,8.601-4.428C26.126,38.248,29.259,40,32.8,40s6.674-1.752,8.601-4.428   C43.326,38.248,46.459,40,50,40s6.674-1.752,8.6-4.428C60.526,38.248,63.659,40,67.2,40s6.674-1.752,8.6-4.428   C77.727,38.248,80.859,40,84.4,40c0.898,0,1.766-0.125,2.6-0.336V91z"/></g><text x="0" y="115" fill="#000000" font-size="5px" font-weight="bold" font-family="'Helvetica Neue', Helvetica, Arial-Unicode, Arial, Sans-serif">Created by Nototype</text><text x="0" y="120" fill="#000000" font-size="5px" font-weight="bold" font-family="'Helvetica Neue', Helvetica, Arial-Unicode, Arial, Sans-serif">from the Noun Project</text></svg>