<svg xmlns="http://www.w3.org/2000/svg" data-name="Layer 1" viewBox="0 0 64 80" x="0px" y="0px"><title>dramatic art-Performer-actor-show-drama</title><path d="M30.31,57.52,32,58l1.69-.48A29.93,29.93,0,0,0,48.45,48c.31-.37.62-.75.91-1.14a28.51,28.51,0,0,0,5.55-19.58L53.25,6c0,3.31-9.51,6-21.25,6S10.75,9.31,10.75,6L9.09,27.27A28.62,28.62,0,0,0,15.53,48,29.92,29.92,0,0,0,30.31,57.52Zm5-34.28c4.46-4.11,10-5.41,13.26-3.08A6.62,6.62,0,0,1,51,23.67a1,1,0,0,1-.66,1.26A.92.92,0,0,1,50,25a1,1,0,0,1-1-.7,4.65,4.65,0,0,0-1.63-2.49c-2.42-1.74-7-.49-10.73,2.93a1,1,0,0,1-1.42-.06A1,1,0,0,1,35.32,23.24Zm2.51,22.31,2.7-1.43a1,1,0,1,1,.94,1.76l-2.71,1.44a14.44,14.44,0,0,1-13.52,0l-2.71-1.44a1,1,0,1,1,.94-1.76l2.7,1.43A12.46,12.46,0,0,0,37.83,45.55ZM14,25a1,1,0,0,1-.3,0A1,1,0,0,1,13,23.67a6.62,6.62,0,0,1,2.37-3.51c3.23-2.33,8.81-1,13.27,3.08a1,1,0,0,1-1.36,1.47C23.62,21.29,19,20,16.58,21.78A4.7,4.7,0,0,0,15,24.27,1,1,0,0,1,14,25Z"/><text x="0" y="79" fill="#000000" font-size="5px" font-weight="bold" font-family="'Helvetica Neue', Helvetica, Arial-Unicode, Arial, Sans-serif">Created by Studio 365</text><text x="0" y="84" fill="#000000" font-size="5px" font-weight="bold" font-family="'Helvetica Neue', Helvetica, Arial-Unicode, Arial, Sans-serif">from the Noun Project</text></svg>