<svg xmlns="http://www.w3.org/2000/svg" xmlns:xlink="http://www.w3.org/1999/xlink" xmlns:serif="http://www.serif.com/" viewBox="0 0 100 125" version="1.1" xml:space="preserve" style="" x="0px" y="0px" fill-rule="evenodd" clip-rule="evenodd" stroke-linejoin="round" stroke-miterlimit="1.41421"><path d="M79.171,89.159c4.824,0.743 7.697,1.676 7.697,2.689c0,2.428 -16.506,4.397 -36.868,4.397c-20.362,0 -36.868,-1.969 -36.868,-4.397c0,-1.013 2.873,-1.945 7.697,-2.689c0.334,2.628 13.266,4.742 29.171,4.742c15.905,0 28.837,-2.114 29.171,-4.742Zm-55.708,-48.684c-3.807,-15.314 -0.621,-24.839 4.761,-30.338c1.137,3.448 4.219,5.188 5.477,4.514c1.289,-0.69 1.607,-4.441 -0.889,-7.265c-0.154,-0.174 -0.304,-0.341 -0.451,-0.506c7.568,-4.536 16.737,-3.618 18.598,-0.523c0.698,1.162 -1.339,2.456 -0.432,3.041c2.152,1.385 3.799,2.059 5.841,2.889c2.424,0.985 2.841,2.321 4.135,3.859c4.142,4.92 11.594,6.088 15.616,10.989c2.948,3.594 1.651,6.333 0.781,7.828l-2.022,3.479c-1.154,1.985 -4.075,-2.119 -6.278,-2.891c1.433,1.942 5.421,4.365 4.183,6.495l-0.535,0.92c-0.454,0.78 -1.829,0.51 -2.727,0.427c-0.906,-0.084 -2.273,-0.12 -2.687,-0.93c-2.643,-5.179 -7.562,-6.487 -13.694,-7.199c-2.343,-0.272 -2.859,1.108 -1.099,2.681l14.537,12.993c7.998,7.148 9.411,17.359 1.565,26.852c-1.539,1.863 -3.057,2.853 -3.897,3.749c5.823,0.6 9.596,1.557 9.596,2.635c0,0.408 -0.54,0.799 -1.528,1.16c2.743,0.762 4.339,1.672 4.339,2.65c0,2.674 -11.943,4.846 -26.653,4.846c-14.71,0 -26.653,-2.172 -26.653,-4.846c0,-0.978 1.596,-1.888 4.339,-2.65c-0.988,-0.361 -1.528,-0.752 -1.528,-1.16c0,-0.753 1.841,-1.447 4.936,-2.002c1.131,-4.621 -9.521,-8.974 -9.031,-10.494c0.867,-2.694 2.741,-2.571 4.166,-4.823c3.915,-6.182 -0.102,-15.662 -2.766,-26.38Zm26.267,1.995c-1.193,1.072 3.407,5.03 8.326,10.51c4.919,5.48 8.293,10.405 9.487,9.334c1.193,-1.071 -1.827,-6.382 -6.745,-11.862c-4.919,-5.479 -9.874,-9.053 -11.068,-7.982Zm24.704,-10.235c-1.184,-1.715 -2.246,-2.998 -2.738,-4.833c-0.174,-0.65 -0.687,1.343 -0.739,2.013c-0.04,0.514 0.274,1.061 0.462,1.541c0.446,1.139 3.636,2.177 3.015,1.279Zm-22.859,-15.384c-0.709,1.389 2.422,1.545 3.863,1.304c1.573,-0.264 3.947,-0.991 3.112,-1.942c-1.935,-2.203 -5.125,-2.987 -6.975,0.638Zm-19.283,-9.148c1.875,2.121 1.636,4.938 0.668,5.456c-0.967,0.519 -3.371,-0.863 -4.172,-3.578c-1.967,-6.664 -1.307,-7.32 3.504,-1.878Z"/><text x="0" y="115" fill="#000000" font-size="5px" font-weight="bold" font-family="'Helvetica Neue', Helvetica, Arial-Unicode, Arial, Sans-serif">Created by Diardha Gumi</text><text x="0" y="120" fill="#000000" font-size="5px" font-weight="bold" font-family="'Helvetica Neue', Helvetica, Arial-Unicode, Arial, Sans-serif">from the Noun Project</text></svg>