<svg xmlns="http://www.w3.org/2000/svg" xmlns:xlink="http://www.w3.org/1999/xlink" version="1.1" x="0px" y="0px" viewBox="0 0 100 125" enable-background="new 0 0 100 100" xml:space="preserve"><g><path fill-rule="evenodd" clip-rule="evenodd" d="M78.137,54.398c-3.608-0.002-7.218-0.002-10.826-0.002c-3.034,0-6.067,0-9.102,0   c-0.636,0-1.272,0.002-1.908,0c-0.331,0-0.497,0.205-0.497,0.629c0,0.325-0.002,0.651,0,0.979c0.003,0.627,0.135,0.79,0.636,0.79   c7.07,0,14.142,0,21.213,0c1.196,0,1.196,0,1.191-1.503C78.841,54.538,78.73,54.398,78.137,54.398z"/><path fill-rule="evenodd" clip-rule="evenodd" d="M78.164,59.202c-3.621-0.002-7.241,0-10.863,0c-3.572,0-7.145,0-10.717,0   c-0.086,0-0.171-0.004-0.258,0c-0.371,0.013-0.511,0.181-0.521,0.642c-0.007,0.313-0.004,0.622-0.002,0.935   c0.002,0.665,0.128,0.825,0.646,0.825c7.133,0,14.265,0,21.398,0c0.146,0,0.294,0.012,0.44,0.005   c0.372-0.016,0.533-0.21,0.553-0.683c0.012-0.294,0.005-0.591,0.003-0.885C78.839,59.359,78.711,59.202,78.164,59.202z"/><path fill-rule="evenodd" clip-rule="evenodd" d="M78.175,63.815c-7.096,0.002-14.193,0.002-21.289,0.003   c-0.195,0-0.393-0.012-0.588,0c-0.316,0.019-0.499,0.212-0.494,0.641c0.003,0.326-0.002,0.653,0,0.98   c0.003,0.63,0.138,0.796,0.634,0.796c3.635,0,7.268,0,10.901,0V66.23c3.059,0,6.117,0,9.176,0c0.563,0,1.126,0.007,1.689,0.007   c0.478,0,0.63-0.195,0.64-0.812c0.002-0.265,0.002-0.528,0-0.793C78.836,63.996,78.687,63.815,78.175,63.815z"/><path fill-rule="evenodd" clip-rule="evenodd" d="M78.133,49.775c-3.595,0-7.19,0-10.786,0c-3.059,0-6.115,0-9.174,0   c-0.624,0-1.248,0.001-1.872-0.001c-0.33-0.002-0.499,0.199-0.497,0.624c0.002,0.388-0.002,0.777,0.002,1.165   c0.001,0.379,0.162,0.569,0.454,0.582c0.135,0.007,0.27,0.004,0.404,0.004c7.009,0,14.018,0,21.024,0c1.16,0,1.16,0,1.155-1.491   C78.841,49.903,78.739,49.775,78.133,49.775z"/><path fill-rule="evenodd" clip-rule="evenodd" d="M72.767,68.565c-1.735-0.002-3.473,0-5.208,0c-1.76,0-3.52-0.002-5.281,0   c-0.465,0.001-0.591,0.159-0.596,0.733c-0.002,0.233,0,0.466,0,0.699c0,0.849,0.09,0.962,0.758,0.962c3.398,0.002,6.799,0,10.197,0   c0.099,0,0.197,0.009,0.292-0.006c0.282-0.04,0.448-0.224,0.45-0.604c0-0.342,0.003-0.683,0.002-1.024   C73.374,68.709,73.259,68.565,72.767,68.565z"/><path fill-rule="evenodd" clip-rule="evenodd" d="M91.885,25.159c-1.458-0.017-2.916-0.003-4.515-0.003   c0-0.87,0.053-1.55-0.01-2.221c-0.183-1.948-1.11-2.773-3.092-2.789c-1.63-0.012-3.264-0.053-4.893,0.007   c-5.134,0.191-10.151-0.372-15.071-1.926c-3.271-1.035-6.551-0.748-9.703,0.582c-1.282,0.541-2.487,1.264-3.708,1.895   c-1.092-1.569-2.065-3.198-3.262-4.644C41.924,9.154,34.585,5.498,25.598,5.269c-1.952-0.05-2.878,0.836-2.904,2.682   c-0.02,1.368-0.002,2.735-0.002,4.104c0,2.663,0,5.326,0,8.091c-2.511,0-4.818-0.019-7.125,0.005   c-1.888,0.02-2.799,0.944-2.826,2.802c-0.01,0.67-0.001,1.343-0.001,2.204c-1.544,0-2.804-0.002-4.064,0   C5.92,25.16,5.28,25.809,5.28,28.612C5.278,48.659,5.279,68.706,5.279,88.754c0,0.367-0.015,0.738,0.013,1.104   c0.101,1.33,0.822,2.126,2.137,2.315c0.672,0.099,1.362,0.113,2.043,0.114c10.524,0.007,21.047-0.006,31.57,0.035   c0.54,0.001,1.341,0.299,1.566,0.707c0.671,1.214,1.566,1.714,2.931,1.689c2.842-0.051,5.685-0.085,8.524,0.01   c1.827,0.061,3.066-0.523,3.51-2.438c0.677,0,1.306,0,1.936,0c10.313,0,20.626,0.001,30.939-0.002c0.578,0,1.159,0.007,1.733-0.054   c1.74-0.181,2.535-1.019,2.535-2.769c0.01-20.521,0.012-41.041,0-61.562C94.715,26.011,93.825,25.181,91.885,25.159z    M53.804,24.904c2.675-1.998,5.679-2.93,8.897-1.937c6.01,1.854,12.139,2.371,18.372,2.188c0.361-0.011,0.727,0.029,1.248,0.054   c0,17.399,0,34.644,0,51.943c-3.364,0-6.718,0.215-10.031-0.069c-2.584-0.22-5.139-0.974-7.665-1.643   c-4.106-1.089-8.004-0.623-12.008,1.441c-0.04-0.731-0.092-1.268-0.092-1.803c-0.005-15.84,0.011-31.678-0.033-47.517   C52.489,26.358,52.914,25.57,53.804,24.904z M27.789,10.411c8.224,0.531,16.955,7.203,19.591,14.924   c0.149,0.435,0.208,0.919,0.208,1.38c0.01,15.041,0.008,30.081,0.006,45.123c0,0.249-0.028,0.499-0.028,0.506   c-2.957-2.171-5.763-4.758-9.026-6.478c-3.28-1.726-7.017-2.587-10.752-3.897C27.789,45.074,27.789,27.746,27.789,10.411z    M17.785,25.208c1.63,0,3.147,0,4.906,0c0,0.617,0,1.224,0,1.831c0,12.262,0,24.524,0,36.787c0,2.878,0.676,3.526,3.632,3.656   c6.032,0.265,11.168,2.62,15.527,6.748c0.212,0.2,0.375,0.451,0.831,1.011c-4.541-1.195-8.266,0.977-12.23,1.435   c-4.156,0.481-8.351,0.629-12.666,0.933C17.785,59.947,17.785,42.666,17.785,25.208z M89.675,87.37c-0.719,0-1.341,0-1.965,0   c-10.684,0-21.368,0.011-32.051-0.016c-1.441-0.005-2.593,0.237-3.097,1.808c-0.088,0.276-0.591,0.552-0.928,0.59   c-0.779,0.087-1.579-0.008-2.365,0.041c-1.003,0.063-1.753-0.007-2.149-1.227c-0.378-1.165-1.552-1.208-2.657-1.207   c-10.737,0.016-21.473,0.011-32.209,0.011c-0.618,0-1.235,0-1.951,0c0-19.139,0-38.109,0-57.186c0.779,0,1.49,0,2.44,0   c0,0.687,0,1.349,0,2.01c0,15.526,0,31.052,0,46.577c0.001,2.822,0.735,3.588,3.514,3.569c5.409-0.034,10.844,0.317,16.18-0.942   c1.377-0.325,2.742-0.704,4.101-1.092c4.119-1.174,7.67-0.198,10.703,2.783c0.151,0.147,0.297,0.299,0.448,0.446   c1.714,1.671,2.898,1.714,4.556,0.002c3.416-3.528,7.414-4.545,12.087-3.018c1.191,0.391,2.426,0.66,3.651,0.94   c5.552,1.275,11.198,0.832,16.816,0.848c1.278,0.003,2.18-0.744,2.41-2.074c0.116-0.666,0.165-1.354,0.167-2.032   c0.009-15.368,0.007-30.735,0.007-46.104c0-0.617,0-1.235,0-1.932c0.836,0,1.5,0,2.29,0C89.675,49.213,89.675,68.226,89.675,87.37z   "/><path fill-rule="evenodd" clip-rule="evenodd" d="M56.185,42.738c2.118-2.253,4.237-4.505,6.36-6.755   c0.376-0.397,0.627-0.397,0.991,0.005c0.619,0.683,1.229,1.375,1.841,2.063c1.196,1.346,2.391,2.69,3.613,4.066   c1.263-1.342,2.485-2.643,3.712-3.942c0.426-0.452,0.677-0.455,1.087,0c1.113,1.231,2.218,2.468,3.33,3.702   c0.561,0.625,1.129,1.244,1.736,1.915c0-4.351,0-8.614,0-12.895c-7.688,0-15.355,0-23.032,0c0,4.063,0,8.099,0,12.133   c0.029,0.022,0.058,0.043,0.087,0.066C56.001,42.977,56.081,42.847,56.185,42.738z M69.236,33.001   c0.86,0.013,1.576,0.75,1.576,1.622c0.002,0.903-0.716,1.616-1.617,1.607c-0.899-0.008-1.577-0.718-1.572-1.648   C67.626,33.725,68.38,32.987,69.236,33.001z"/><path fill-rule="evenodd" clip-rule="evenodd" d="M63.041,37.036c-2.399,2.544-4.755,5.043-7.106,7.545   c-0.062,0.066-0.124,0.167-0.126,0.253c-0.012,0.52-0.007,1.041-0.007,1.564c5.201,0,10.352,0,15.57,0   C68.571,43.25,65.821,40.16,63.041,37.036z"/><path fill-rule="evenodd" clip-rule="evenodd" d="M75.654,41.832c-0.798-0.881-1.6-1.759-2.423-2.663   c-1.18,1.251-2.335,2.478-3.525,3.741c1.017,1.141,2.001,2.257,3.005,3.354c0.102,0.112,0.321,0.161,0.487,0.163   c1.76,0.012,3.52,0.007,5.278,0.005c0.123,0,0.246-0.015,0.369-0.023c0.082-0.588,0.039-1.063-0.415-1.522   C77.464,43.91,76.577,42.854,75.654,41.832z"/></g><text x="0" y="115" fill="#000000" font-size="5px" font-weight="bold" font-family="'Helvetica Neue', Helvetica, Arial-Unicode, Arial, Sans-serif">Created by Govind Dhiman</text><text x="0" y="120" fill="#000000" font-size="5px" font-weight="bold" font-family="'Helvetica Neue', Helvetica, Arial-Unicode, Arial, Sans-serif">from the Noun Project</text></svg>