<svg xmlns="http://www.w3.org/2000/svg" xmlns:xlink="http://www.w3.org/1999/xlink" version="1.1" x="0px" y="0px" viewBox="0 0 64 80" style="enable-background:new 0 0 64 64;" xml:space="preserve"><g><path d="M30,25c-0.828,0-1.627-0.127-2.379-0.361l-0.48,1.92l2.297,1.531C29.617,28.037,29.803,28,30,28s0.383,0.037,0.562,0.09   l2.297-1.531l-0.48-1.92C31.627,24.873,30.828,25,30,25z"/><path d="M24,28.257v1.506c0,0.975,0.171,1.95,0.501,2.868l3.667-1.834C28.061,30.553,28,30.284,28,30   c0-0.149,0.019-0.292,0.05-0.432l-2.295-1.53L24,28.257z"/><path d="M36,29.764v-1.506l-1.755-0.219l-2.295,1.53C31.981,29.708,32,29.851,32,30c0,0.284-0.061,0.553-0.168,0.798l3.667,1.834   C35.829,31.714,36,30.738,36,29.764z"/><path d="M34.249,43C34.738,41.32,35,39.59,35,37.838v-2.204c-2.479,1.427-4,4.039-4,6.929V43h0.279l0.772-2.316l1.897,0.633   L33.388,43H34.249z"/><path d="M31,32.618v3.965c0.757-1.011,1.71-1.876,2.827-2.551L31,32.618z"/><path d="M28.721,43H29v-0.438c0-2.89-1.521-5.502-4-6.929v2.204c0,1.752,0.262,3.483,0.751,5.162h0.861l-0.561-1.684l1.897-0.633   L28.721,43z"/><path d="M29,32.618l-2.827,1.413c1.117,0.675,2.07,1.54,2.827,2.551V32.618z"/><path d="M38,14v3c0,0.339-0.028,0.672-0.069,1H38c1.103,0,2-0.897,2-2S39.103,14,38,14z"/><path d="M36.165,49H25.444c-0.439,0.753-1.104,1.357-1.917,1.694L23.471,51h13.058L36.165,49z"/><path d="M47,16.751c0,0.123,0.008,0.245,0.024,0.367l0.244,1.833l5.534-0.79l-0.284-1.796C52.303,14.995,51.138,14,49.751,14   C48.234,14,47,15.234,47,16.751z"/><path d="M20.37,12.355C20.869,12.131,21.418,12,22,12h0.142c0.318-1.202,1.175-2.204,2.372-2.683l1.492-0.597   C26.002,8.647,26,8.574,26,8.5c0-1.307,0.726-2.481,1.895-3.065l0.658-0.329l0.895,1.789l-0.658,0.329   C28.302,7.467,28,7.956,28,8.5s0.302,1.033,0.789,1.276l0.148,0.074C29.131,9.948,29.353,10,29.573,10H35   c1.302,0,2.402,0.839,2.816,2H38c0.582,0,1.131,0.131,1.63,0.355l0.16-0.641C39.93,11.158,40,10.586,40,10.014   C40,6.146,36.854,3,32.986,3h-5.973C23.146,3,20,6.146,20,10.014c0,0.572,0.07,1.145,0.209,1.701L20.37,12.355z"/><path d="M41,45H25.444C25.788,45.591,26,46.268,26,47h15V45z"/><path d="M22,45h-2v4h2c1.103,0,2-0.897,2-2S23.103,45,22,45z"/><path d="M16.118,56c0.788,1.557,2.238,2.607,3.913,2.905c0.01-0.11,0.01-0.221,0.03-0.33L21.438,51h-2.82L16.118,56z"/><path d="M54.944,31.723l-1.83-11.585l-5.582,0.797l1.245,9.337l1.669,0.835l-0.895,1.789l-5.702-2.851   c-1.422-0.712-2.945-1.173-4.524-1.37L38,28.508v1.256c0,1.528-0.352,3.053-1,4.438v3.637c0,1.747-0.231,3.477-0.67,5.162h3.776   l0.901-8.11l1.987,0.221L42.784,37h7.653C52.953,37,55,34.953,55,32.437C55,32.2,54.981,31.96,54.944,31.723z"/><path d="M36.893,53H23.107l-1.079,5.935C22.009,59.039,22,59.144,22,59.248C22,60.214,22.786,61,23.752,61h12.496   C37.214,61,38,60.214,38,59.248c0-0.104-0.009-0.209-0.028-0.312L36.893,53z"/><path d="M38.198,49l1.741,9.577c0.02,0.107,0.019,0.218,0.03,0.328c1.675-0.298,3.125-1.348,3.913-2.905l-3.5-7H38.198z"/><path d="M35,12h-5.427c-0.528,0-1.057-0.125-1.531-0.36l-0.149-0.075c-0.473-0.237-0.874-0.57-1.183-0.971l-1.452,0.581   C24.493,11.479,24,12.209,24,13.031V17c0,3.309,2.691,6,6,6s6-2.691,6-6v-4C36,12.448,35.551,12,35,12z M27,16   c-0.552,0-1-0.448-1-1c0-0.552,0.448-1,1-1s1,0.448,1,1C28,15.552,27.552,16,27,16z M33,16c-0.552,0-1-0.448-1-1   c0-0.552,0.448-1,1-1s1,0.448,1,1C34,15.552,33.552,16,33,16z"/><path d="M22,18h0.069C22.028,17.672,22,17.339,22,17v-3c-1.103,0-2,0.897-2,2S20.897,18,22,18z"/><path d="M18,45h-5v-2h1.382l2.865-5.729l-0.24-2.161l1.987-0.221L19.895,43h3.776C23.231,41.315,23,39.585,23,37.838v-3.637   c-0.648-1.384-1-2.91-1-4.438v-1.256l-0.786,0.098c-1.869,0.234-3.684,0.91-5.25,1.954c-2.062,1.374-3.637,3.316-4.557,5.615   l-1.999,4.997C9.137,41.849,9,42.562,9,43.292C9,46.439,11.561,49,14.708,49H18V45z"/><path d="M46.657,13.175C47.491,12.453,48.564,12,49.751,12c0.266,0,0.524,0.029,0.778,0.07l-3.682-8.838   C46.536,2.483,45.811,2,45.001,2c-0.266,0-0.525,0.053-0.769,0.154c-0.494,0.206-0.877,0.591-1.081,1.086   c-0.203,0.493-0.202,1.037,0.004,1.53L46.657,13.175z"/></g><text x="0" y="79" fill="#000000" font-size="5px" font-weight="bold" font-family="'Helvetica Neue', Helvetica, Arial-Unicode, Arial, Sans-serif">Created by Eucalyp</text><text x="0" y="84" fill="#000000" font-size="5px" font-weight="bold" font-family="'Helvetica Neue', Helvetica, Arial-Unicode, Arial, Sans-serif">from the Noun Project</text></svg>