<svg xmlns="http://www.w3.org/2000/svg" xmlns:xlink="http://www.w3.org/1999/xlink" version="1.1" x="0px" y="0px" viewBox="0 0 100 125" style="enable-background:new 0 0 100 100;" xml:space="preserve"><path d="M44.4,72.1v4.4c0,0.5-0.4,0.9-0.9,0.9H20.9c-0.5,0-0.9-0.4-0.9-0.9v-4.4c0-0.5,0.4-0.9,0.9-0.9h1.3v-3.7  c0-0.8,0.7-1.5,1.5-1.5h17c0.8,0,1.5,0.7,1.5,1.5v3.7h1.3C44,71.1,44.4,71.5,44.4,72.1z M51.6,51l-11-11c-1.4-0.8-3.1-0.6-4.3,0.5  c-1.4,1.4-1.4,3.7,0,5.1l9.7,9.7c1.4,1.4,3.7,1.4,5.1,0C52.2,54.1,52.3,52.3,51.6,51L51.6,51z M63.5,39L63.5,39  c1.4,0.8,3.1,0.6,4.3-0.6c1.4-1.4,1.4-3.7,0-5.1l-9.7-9.7c-1.4-1.4-3.7-1.4-5.1,0c-1.2,1.2-1.3,2.9-0.5,4.3L63.5,39z M60,42.5  l2.1-2.1l-11-11L42,38.5l11,11l2.1-2.1l20,20l4.9-4.9L60,42.5z"/><text x="0" y="115" fill="#000000" font-size="5px" font-weight="bold" font-family="'Helvetica Neue', Helvetica, Arial-Unicode, Arial, Sans-serif">Created by Mello</text><text x="0" y="120" fill="#000000" font-size="5px" font-weight="bold" font-family="'Helvetica Neue', Helvetica, Arial-Unicode, Arial, Sans-serif">from the Noun Project</text></svg>