<svg xmlns="http://www.w3.org/2000/svg" xmlns:xlink="http://www.w3.org/1999/xlink" version="1.1" x="0px" y="0px" viewBox="0 0 100 125" style="enable-background:new 0 0 100 100;" xml:space="preserve"><style type="text/css">
	.st0{clip-path:url(#b);}
	.st1{fill-rule:evenodd;clip-rule:evenodd;}
</style><g><defs><rect id="a" x="8" y="0.8" width="84" height="97.5"/></defs><clipPath id="b"><use xlink:href="#a" style="" overflow="visible"/></clipPath><g class="st0"><g><path d="M55.7,86.7c-1.1,0-1.9,0.9-1.9,1.9c0,1.1,0.9,1.9,1.9,1.9c1.1,0,1.9-0.9,1.9-1.9C57.6,87.6,56.8,86.7,55.7,86.7z      M29,38.9c-1.1,0-1.9,0.9-1.9,1.9v36.4c0,1.1,0.9,1.9,1.9,1.9s1.9-0.9,1.9-1.9V40.8C30.9,39.8,30,38.9,29,38.9z M44.2,38.9     c-1.1,0-1.9,0.9-1.9,1.9v36.4c0,1.1,0.9,1.9,1.9,1.9s1.9-0.9,1.9-1.9V40.8C46.1,39.8,45.2,38.9,44.2,38.9z M82.5,31.4H73v-5.8     c3-2.2,4.4-6,3.6-9.8c-0.8-3.5-3.7-6.4-7.2-7.1c-1.9-0.4-3.8-0.3-5.5,0.4c-1.7-2.7-4.7-4.4-8-4.4c-1.2,0-2.5,0.2-3.6,0.7     c-3.2-3-7.4-4.7-11.7-4.7c-5.8,0-11.1,2.9-14.3,7.7C16.2,7.9,8,15.8,8,25.6v22.9c0,3.2,2.6,5.7,5.8,5.7c0.7,0,1.4-0.1,2-0.4v35     c0,5.3,4.3,9.5,9.5,9.5h38.1c5.3,0,9.5-4.3,9.5-9.5v-5.7h9.5c5.3,0,9.5-4.3,9.5-9.5V41C92,35.7,87.7,31.4,82.5,31.4z M69.1,86.9     h-5.8c-1.1,0-1.9,0.9-1.9,1.9s0.9,1.9,1.9,1.9h5.5c-0.8,2.2-2.9,3.8-5.4,3.8H25.3c-2.5,0-4.6-1.6-5.4-3.8h28.2     c1.1,0,1.9-0.9,1.9-1.9s-0.9-1.9-1.9-1.9H19.6V48.4V35c4.3-0.6,8-3.3,9.9-7.3c0.4,0,0.7,0.1,1,0.4c2.1,2.1,5,3.3,8,3.3     c3.1,0,6-1.2,8.2-3.5c0.1-0.1,0.3-0.2,0.5-0.2c3,0,4.9,0.6,5.8,1.9c0.7,1,0.7,2.5,0.7,3.6v7.7c0,2.5,1.6,4.6,3.8,5.4v31     c0,1.1,0.9,1.9,1.9,1.9s1.9-0.9,1.9-1.9v-31c2.2-0.8,3.8-2.9,3.8-5.4V27.4c1.3,0.3,2.7,0.3,4,0V86.9z M64.1,23     c-0.6-0.3-1.3-0.3-1.9,0.1c-0.6,0.3-0.9,1-0.9,1.6v16.1c0,1.1-0.9,1.9-1.9,1.9c-1.1,0-1.9-0.9-1.9-1.9v-7.7c0-1.5,0-3.8-1.4-5.8     c-1.6-2.3-4.6-3.5-8.9-3.5c-1.2,0-2.4,0.5-3.2,1.4c-1.4,1.5-3.4,2.3-5.5,2.3c-2,0-3.9-0.8-5.3-2.2c-1-1-2.3-1.5-3.7-1.5     c-1.4,0-2.8,0.8-3.4,2.1c-1.6,3.3-4.8,5.3-8.4,5.4c-1,0-1.9,0.9-1.9,1.9v15.1c-0.1,1.1-0.9,2-2,2c-1.1,0-2-0.9-2-1.9V25.6     c0-7.4,6-13.3,13.4-13.3c0.6,0,1.2,0,1.7,0.1c0.8,0.1,1.5-0.3,1.9-1c2.4-4.2,6.8-6.9,11.6-6.9c3.8,0,7.4,1.6,9.9,4.5     c0.6,0.7,1.7,0.8,2.4,0.3c0.9-0.6,1.9-0.8,3-0.8c2.4,0,4.6,1.5,5.4,3.8c0.2,0.6,0.6,1,1.2,1.2c0.6,0.2,1.2,0.1,1.7-0.2     c1.3-0.9,2.9-1.2,4.5-0.8c2.1,0.4,3.8,2.2,4.3,4.2C73.9,21.6,69,25.5,64.1,23z M73,42.9h7.6v28.8H73V42.9z M88.2,73.5     c0,3.2-2.6,5.7-5.7,5.7H73v-3.8h9.5c1.1,0,1.9-0.9,1.9-1.9V41c0-1.1-0.9-1.9-1.9-1.9H73v-3.8h9.5c3.2,0,5.7,2.6,5.7,5.7V73.5z"/></g></g><g class="st0"><g><rect x="18.9" y="86.7" class="st1" width="50.5" height="4"/></g></g><g class="st0"><g><path class="st1" d="M73.9,15.2c-1.1-4.4-7.4-4.3-9-3.8s-2.6-1.4-4.2-3.2s-7.1-1.2-8.2-1c-1.1,0.2-3.7-1.9-6.7-3     C43,3,37.6,2.9,34.7,3.4c-2.9,0.5-6.9,6.9-8.4,6.7c-1.5-0.2-4.2,0-11,4.4S9.3,29.2,9.3,29.2S8.7,33.3,9,41.5s1.9,9.5,4,10.1     c2.1,0.6,4.6-1.2,4.8-3c0.2-1.8,0.4-13.7,1-14.9c0.6-1.1,5.8-2.6,7.2-3.4c1.4-0.8,2.8-4.5,3.8-4.4c1,0.1,8.6,4.2,12.8,2.1     c4.1-2.1,4.4-1.9,9.5-1c5.1,1,3.3,12.7,3.6,14.9c0.3,2.2,6.6,2.2,7,0.2S64,26.3,64,26.3s1.6,0.1,5.9-1.9     C74.2,22.3,75.1,19.7,73.9,15.2z"/></g></g></g><text x="0" y="115" fill="#000000" font-size="5px" font-weight="bold" font-family="'Helvetica Neue', Helvetica, Arial-Unicode, Arial, Sans-serif">Created by Kriya Barot</text><text x="0" y="120" fill="#000000" font-size="5px" font-weight="bold" font-family="'Helvetica Neue', Helvetica, Arial-Unicode, Arial, Sans-serif">from the Noun Project</text></svg>