<svg xmlns="http://www.w3.org/2000/svg" viewBox="0 0 512 640" x="0px" y="0px"><path d="M271.6,448H224.4a146.779,146.779,0,0,1-82.573-36.4L162.124,400H208V384H171.816l11.612-29.029-14.856-5.942-14.964,37.409-23.516,13.438A146.3,146.3,0,0,1,111.556,374a121.227,121.227,0,0,1-14.792-46H248V312H214.129l38.4-64H264V232H125.582a191.5,191.5,0,0,1,64.157-56.563A65.709,65.709,0,0,0,224,117.722V64h48v53.722a65.711,65.711,0,0,0,15.523,42.436L269.75,175.392l-36.181-7.237-3.138,15.69,35.448,7.089,6.532,19.6,15.178-5.06-6.3-18.9,18.067-15.487a65.969,65.969,0,0,0,6.9,4.351,193.171,193.171,0,0,1,32.557,22.367l10.363-12.19a209.239,209.239,0,0,0-35.259-24.224A49.717,49.717,0,0,1,288,117.722v-55.1A24,24,0,0,0,280,16H216a24,24,0,0,0-8,46.624v55.1a49.717,49.717,0,0,1-25.923,43.669,207.39,207.39,0,0,0-89.221,95,137.686,137.686,0,0,0,4.755,125.457A162.826,162.826,0,0,0,223.2,463.96a7.828,7.828,0,0,0,.8.04h48a7.828,7.828,0,0,0,.8-.04,161.933,161.933,0,0,0,58.9-17.556l-7.386-14.194A145.983,145.983,0,0,1,271.6,448ZM216,32h64a8,8,0,0,1,0,16H216a8,8,0,0,1,0-16ZM118.129,312,152,255.549,185.871,312ZM200,304.451,166.129,248h67.742ZM115.257,248h22.614l-38.4,64H96.024a121.257,121.257,0,0,1,11.331-48.843Q110.991,255.365,115.257,248Z"/><path d="M472,304A104,104,0,1,0,344,405.2V472a24,24,0,0,0,48,0V405.2A104.181,104.181,0,0,0,472,304ZM376,472a8,8,0,0,1-16,0V407.7q3.962.3,8,.305t8-.305Zm-8-80a88,88,0,1,1,88-88A88.1,88.1,0,0,1,368,392Z"/><path d="M368,232a72,72,0,1,0,72,72A72.081,72.081,0,0,0,368,232Zm0,128a56,56,0,1,1,56-56A56.064,56.064,0,0,1,368,360Z"/><path d="M235.562,406.656l24,16a8,8,0,0,0,6.378,1.105l32-8-3.88-15.522-28.567,7.141-21.055-14.036Z"/><text x="0" y="527" fill="#000000" font-size="32px" font-weight="bold" font-family="'Helvetica Neue', Helvetica, Arial-Unicode, Arial, Sans-serif">Created by Nhor</text><text x="0" y="562" fill="#000000" font-size="32px" font-weight="bold" font-family="'Helvetica Neue', Helvetica, Arial-Unicode, Arial, Sans-serif">from the Noun Project</text></svg>