<svg xmlns="http://www.w3.org/2000/svg" xmlns:xlink="http://www.w3.org/1999/xlink" xml:space="preserve" version="1.1" style="shape-rendering:geometricPrecision;text-rendering:geometricPrecision;image-rendering:optimizeQuality;" viewBox="0 0 333 416.25" x="0px" y="0px" fill-rule="evenodd" clip-rule="evenodd"><defs><style type="text/css">
   
    .fil0 {fill:black;fill-rule:nonzero}
   
  </style></defs><g><path class="fil0" d="M203 295l-158 -117c-19,-13 10,-44 20,-44l66 -92c4,-5 11,-6 16,-3l67 49 0 4c-15,125 78,113 78,141 0,24 14,63 -12,63l-77 -1zm-151 -128l157 116 72 -1 0 -23 -64 0 -152 -112 -13 19 0 1zm26 -28l144 106 56 0c0,-15 4,-11 -12,-19 -14,-7 -34,-18 -48,-38l-11 3 -3 -13 7 -2 -2 -3 -9 2 -4 -13 8 -2 -1 -4 -7 2 -4 -13 8 -3 0 -3 -6 2 -3 -13 7 -2c0,-10 1,-20 2,-32l-59 -43 -63 88 0 0z"/></g><text x="0" y="348" fill="#000000" font-size="32px" font-weight="bold" font-family="'Helvetica Neue', Helvetica, Arial-Unicode, Arial, Sans-serif">Created by Dian Icon</text><text x="0" y="383" fill="#000000" font-size="32px" font-weight="bold" font-family="'Helvetica Neue', Helvetica, Arial-Unicode, Arial, Sans-serif">from the Noun Project</text></svg>