<svg xmlns="http://www.w3.org/2000/svg" xmlns:xlink="http://www.w3.org/1999/xlink" version="1.1" x="0px" y="0px" viewBox="0 0 100 125" enable-background="new 0 0 100 100" xml:space="preserve"><path d="M81.048,32.115L70.093,45.383c-1.262,1.529-3.593,1.562-4.899,0.071L52.115,30.514  c-1.119-1.278-3.109-1.276-4.225,0.005L34.932,45.388c-1.3,1.491-3.625,1.467-4.892-0.051L18.944,32.051  C17.607,30.45,15,31.396,15,33.481v32.051c0,2.712,2.199,4.911,4.911,4.911h60.178c2.712,0,4.911-2.199,4.911-4.911V33.535  C85,31.444,82.38,30.502,81.048,32.115z"/><text x="0" y="115" fill="#000000" font-size="5px" font-weight="bold" font-family="'Helvetica Neue', Helvetica, Arial-Unicode, Arial, Sans-serif">Created by Daouna Jeong</text><text x="0" y="120" fill="#000000" font-size="5px" font-weight="bold" font-family="'Helvetica Neue', Helvetica, Arial-Unicode, Arial, Sans-serif">from the Noun Project</text></svg>