<svg xmlns="http://www.w3.org/2000/svg" xmlns:xlink="http://www.w3.org/1999/xlink" version="1.1" x="0px" y="0px" viewBox="0 0 110 137.5" enable-background="new 0 0 110 110" xml:space="preserve"><path d="M46.823,58.987c0,0.552-0.447,1-1,1H5c-0.553,0-1-0.448-1-1c0-0.553,0.447-1,1-1h40.823  C46.376,57.987,46.823,58.435,46.823,58.987z M45.823,65.591H5c-0.553,0-1,0.447-1,1c0,0.552,0.447,1,1,1h40.823  c0.553,0,1-0.448,1-1C46.823,66.038,46.376,65.591,45.823,65.591z M45.823,73.2H5c-0.553,0-1,0.447-1,1c0,0.552,0.447,1,1,1h40.823  c0.553,0,1-0.448,1-1C46.823,73.647,46.376,73.2,45.823,73.2z M35.918,80.808H5c-0.553,0-1,0.447-1,1c0,0.552,0.447,1,1,1h30.918  c0.553,0,1-0.448,1-1C36.918,81.255,36.471,80.808,35.918,80.808z M105.667,35.527L80.473,58.091l-5.613,14.966  c-0.097,0.257-0.295,0.464-0.548,0.57l-25.8,10.881c-0.069,0.028-0.14,0.05-0.211,0.062c-0.059,0.011-0.118,0.017-0.178,0.017  c-0.118,0-0.236-0.021-0.353-0.064c-0.043-0.017-0.086-0.035-0.126-0.059c-0.173-0.094-0.309-0.232-0.397-0.396  c-0.052-0.092-0.087-0.19-0.105-0.291c-0.031-0.16-0.023-0.33,0.028-0.494c0.011-0.033,0.023-0.066,0.038-0.1l10.9-25.756  c0.106-0.253,0.312-0.45,0.569-0.547l14.388-5.397c0.023-0.198,0.089-0.393,0.231-0.552l22.492-25.183  c0.183-0.205,0.441-0.325,0.715-0.333c0.272-0.017,0.539,0.095,0.734,0.289l8.465,8.368c0.196,0.194,0.304,0.46,0.297,0.735  C105.993,35.082,105.873,35.343,105.667,35.527z M78.448,57.794l-4.503-4.504l-14.162,5.312l-8.739,20.647l11.65-11.653  c-0.325-0.557-0.524-1.194-0.524-1.884c0-2.078,1.69-3.768,3.768-3.768s3.767,1.689,3.767,3.768s-1.689,3.769-3.767,3.769  c-0.661,0-1.273-0.187-1.813-0.486L52.443,80.679l20.694-8.728L78.448,57.794z M64.241,66.181c0.112-0.042,0.23-0.068,0.35-0.068  c0.256,0,0.512,0.098,0.707,0.293c0.277,0.277,0.348,0.675,0.231,1.023c0.132,0.031,0.268,0.052,0.408,0.052  c0.974,0,1.767-0.794,1.767-1.769s-0.793-1.768-1.767-1.768c-0.975,0-1.768,0.793-1.768,1.768  C64.17,65.875,64.199,66.03,64.241,66.181z M103.541,34.746l-6.961-6.881L75.419,51.558l4.419,4.417L103.541,34.746z"/><text x="0" y="125" fill="#000000" font-size="5px" font-weight="bold" font-family="'Helvetica Neue', Helvetica, Arial-Unicode, Arial, Sans-serif">Created by dilayorganci</text><text x="0" y="130" fill="#000000" font-size="5px" font-weight="bold" font-family="'Helvetica Neue', Helvetica, Arial-Unicode, Arial, Sans-serif">from the Noun Project</text></svg>