<svg xmlns="http://www.w3.org/2000/svg" xmlns:xlink="http://www.w3.org/1999/xlink" version="1.1" x="0px" y="0px" viewBox="0 0 100 125" style="enable-background:new 0 0 100 100;" xml:space="preserve"><style type="text/css">
	.st0{display:none;}
</style><g><path d="M80.7,65.9l-3-10.5c-0.1-0.3-0.3-0.6-0.6-0.7c-0.3-0.1-0.7-0.1-0.9,0.1l-8.8,6.5c-0.3,0.2-0.5,0.6-0.4,1s0.4,0.7,0.8,0.8   l2.7,0.6c-0.9,2.8-4.5,10.6-15.7,11.8V45.4l8-1c0.1,0,0.3-0.1,0.4-0.2c0.6,0.5,1.3,0.7,2.2,0.7c2,0,3.6-1.6,3.6-3.6   s-1.6-3.6-3.6-3.6c-0.9,0-1.8,0.4-2.4,0.9c-0.1,0-0.1,0-0.2-0.1l-8.1-0.8l-0.7-12c3.1-1.5,5.2-4.6,5.2-8.2c0-5-4.1-9.1-9.1-9.1   s-9.1,4.1-9.1,9.1c0,3.6,2.1,6.8,5.2,8.2l-0.7,12l-8.1,0.8c0,0,0,0-0.1,0c-0.6-0.6-1.5-1-2.5-1c-2,0-3.6,1.6-3.6,3.6   s1.6,3.6,3.6,3.6c0.8,0,1.5-0.3,2.1-0.7c0.1,0.1,0.3,0.2,0.4,0.2l8,1v30.2c-11.2-1.2-14.8-9-15.7-11.8l2.7-0.6   c0.4-0.1,0.7-0.4,0.8-0.8s-0.1-0.8-0.4-1l-8.8-6.5c-0.3-0.2-0.6-0.2-0.9-0.1c-0.3,0.1-0.6,0.4-0.6,0.7l-3,10.5   c-0.1,0.4,0,0.8,0.3,1c0.3,0.3,0.7,0.3,1.1,0.2l1.8-0.8c1,4.3,5.9,13.4,15.8,16.1C48.3,85.1,49,90.3,49,90.5c0,0,0,0.1,0,0.1   c0,0.1,0,0.1,0,0.2c0,0.1,0.1,0.1,0.1,0.2c0,0,0.1,0.1,0.1,0.1c0.1,0.1,0.1,0.1,0.2,0.2c0,0,0.1,0,0.1,0.1c0.1,0,0.2,0.1,0.3,0.1   c0,0,0,0,0.1,0c0,0,0,0,0.1,0c0,0,0,0,0,0c0,0,0.1,0,0.1,0c0.1,0,0.1,0,0.2-0.1c0,0,0.1,0,0.1,0c0.1,0,0.1-0.1,0.2-0.1   c0,0,0.1,0,0.1-0.1c0.1-0.1,0.1-0.1,0.1-0.2c0,0,0.1-0.1,0.1-0.1c0-0.1,0-0.1,0.1-0.2c0,0,0-0.1,0-0.1c0-0.2,0.7-5.4,10.8-8.1   c9.8-2.7,14.7-11.8,15.8-16.1l1.8,0.8c0.4,0.2,0.8,0.1,1.1-0.2C80.7,66.7,80.8,66.3,80.7,65.9z M65.3,39.8c0.9,0,1.6,0.7,1.6,1.6   S66.2,43,65.3,43c-0.9,0-1.6-0.7-1.6-1.6S64.4,39.8,65.3,39.8z M42.9,17.7c0-3.9,3.2-7.1,7.1-7.1s7.1,3.2,7.1,7.1s-3.2,7.1-7.1,7.1   S42.9,21.6,42.9,17.7z M34.7,42.9c-0.9,0-1.6-0.7-1.6-1.6s0.7-1.6,1.6-1.6c0.9,0,1.6,0.7,1.6,1.6S35.6,42.9,34.7,42.9z M77.2,63.9   c-0.3-0.1-0.7-0.1-1,0.1c-0.3,0.2-0.5,0.5-0.5,0.8c0,2-4,12.8-14.5,15.7c-6.9,1.9-9.9,5-11.2,7.2c-1.3-2.2-4.3-5.3-11.2-7.2   c-10.6-2.9-14.5-13.7-14.5-15.7c0-0.3-0.2-0.7-0.5-0.8c-0.3-0.2-0.6-0.2-1-0.1l-1,0.5l2-7l5.9,4.4L28,62.1   c-0.5,0.1-0.9,0.7-0.8,1.2c0,0.1,3.1,13.4,18.9,14.4c0.3,0,0.5-0.1,0.7-0.3c0.2-0.2,0.3-0.5,0.3-0.7V44.6c0-0.5-0.4-0.9-0.9-1l-8-1   v-2l8.1-0.8c0.5,0,0.9-0.4,0.9-0.9l0.7-12.1h1.7c0,0,0,0,0.1,0c0.1,0,0.1,0,0.2,0s0.1,0,0.2,0c0,0,0,0,0.1,0h1.7l0.7,12.1   c0,0.5,0.4,0.9,0.9,0.9l8.1,0.8v2l-8,1c-0.5,0.1-0.9,0.5-0.9,1v32.1c0,0.3,0.1,0.5,0.3,0.7s0.5,0.3,0.7,0.3   c15.8-1,18.9-14.3,18.9-14.4c0.1-0.5-0.2-1.1-0.8-1.2l-1.6-0.4l5.9-4.4l2,7L77.2,63.9z"/><path d="M54.9,17.7c0-2.7-2.2-4.9-4.9-4.9s-4.9,2.2-4.9,4.9s2.2,4.9,4.9,4.9S54.9,20.4,54.9,17.7z M47.1,17.7   c0-1.6,1.3-2.9,2.9-2.9s2.9,1.3,2.9,2.9s-1.3,2.9-2.9,2.9S47.1,19.3,47.1,17.7z"/></g><text x="0" y="115" fill="#000000" font-size="5px" font-weight="bold" font-family="'Helvetica Neue', Helvetica, Arial-Unicode, Arial, Sans-serif">Created by Kozan</text><text x="0" y="120" fill="#000000" font-size="5px" font-weight="bold" font-family="'Helvetica Neue', Helvetica, Arial-Unicode, Arial, Sans-serif">from the Noun Project</text></svg>