<svg xmlns="http://www.w3.org/2000/svg" xmlns:xlink="http://www.w3.org/1999/xlink" version="1.1" x="0px" y="0px" viewBox="0 0 100 125" enable-background="new 0 0 100 100" xml:space="preserve"><circle cx="49.393" cy="11.711" r="6.443"/><path d="M65.792,45.409l3.832-3.013l-8.26-20.954l-11.971-0.029l-11.971,0.029l-8.26,20.954l3.907,3.072l0,0l0,0l0.003-0.002  l7.814-5.945l-2.935,55.212h5.72L49.393,58.5l5.722,36.232h5.72L57.9,39.52l7.817,5.948l0.029-0.023l0.029,0.023L65.792,45.409z   M48.901,40.317l-6.774-2.022l1.865-1.477l-3.122-2.406l-0.81,0.584v-9.89l8.842,2.639V40.317z M49.885,40.317V27.746l8.842-2.639  v9.848l-0.753-0.542l-3.122,2.406l1.849,1.464L49.885,40.317z"/><text x="0" y="115" fill="#000000" font-size="5px" font-weight="bold" font-family="'Helvetica Neue', Helvetica, Arial-Unicode, Arial, Sans-serif">Created by Gerald Wildmoser</text><text x="0" y="120" fill="#000000" font-size="5px" font-weight="bold" font-family="'Helvetica Neue', Helvetica, Arial-Unicode, Arial, Sans-serif">from the Noun Project</text></svg>