<svg xmlns="http://www.w3.org/2000/svg" xmlns:xlink="http://www.w3.org/1999/xlink" xml:space="preserve" version="1.1" style="shape-rendering:geometricPrecision;text-rendering:geometricPrecision;image-rendering:optimizeQuality;" viewBox="0 0 846.66 1058.325" x="0px" y="0px" fill-rule="evenodd" clip-rule="evenodd"><defs><style type="text/css">
   
    .fil0 {fill:black}
   
  </style></defs><g><path class="fil0" d="M586.99 121.12c-49.02,-40.15 -102.17,35.41 -107.37,72.55 -4.55,32.54 -3.24,31.23 -3.24,31.23 31.29,12.46 189.94,12.46 221.23,0 0,0 1.31,1.31 -3.26,-31.23 -5.19,-37.14 -58.33,-112.7 -107.36,-72.55zm-374.41 234.33c94.38,-0.02 170.89,85.39 170.89,190.75 -0.02,105.36 -76.51,190.78 -170.89,190.78 -94.38,0 -170.9,-85.41 -170.9,-190.77 0.02,-105.37 76.51,-190.79 170.9,-190.76zm-76.19 223.56l30.77 -4.96c1.7,12.31 6.53,21.74 14.42,28.35 4.27,3.51 9.44,6.11 15.53,7.73l0 -59.15c-12.92,-3.68 -22.44,-6.95 -28.61,-9.88 -16.8,-8.12 -26.81,-23.16 -26.81,-41.94 0,-16.16 7.76,-30.66 20.86,-40.02 9.13,-6.69 23.31,-10.71 34.56,-12.05l0 -17.74 30.94 0 0 18.41c6.8,1.03 13.11,2.65 18.89,4.89 10.91,4.13 18.92,9.79 24.1,16.87 5.12,7.12 8.72,16.6 10.67,28.52l-30.4 4.24c-1.36,-9.56 -5.37,-17.04 -11.97,-22.4 -3.15,-2.55 -6.91,-4.49 -11.29,-5.83l0 52.18c14.98,4.23 25.89,7.84 32.73,10.76 18.49,7.87 28.01,22.85 28.01,42.84 0,22.99 -14.71,41.33 -35.24,50.39 -7.82,3.41 -16.32,5.66 -25.5,6.73l0 17.8 -30.94 0 0 -18.11c-15.33,-1.92 -27.6,-6.5 -36.79,-13.75 -12.5,-9.89 -20.47,-24.5 -23.93,-43.88zm91.66 32.21c7.78,-1.29 13.95,-3.85 18.53,-7.71 6.91,-5.77 10.38,-12.6 10.38,-20.45 0,-16.34 -16.22,-20.19 -28.91,-23.82l0 51.98zm-30.94 -138.37c-11.98,1.89 -25.37,8.78 -25.37,22.65 0,9.8 7.23,15.76 15.68,19.15 1.62,0.6 4.85,1.62 9.69,3.03l0 -44.83zm-95.71 -229.68l111.19 0 111.17 0 0 15.86 -74.23 89.7c-11.99,-2.37 -24.35,-3.62 -36.94,-3.6 -12.62,-0.02 -24.95,1.23 -36.94,3.6l-74.25 -89.68 0 -15.88zm360.67 109.3l254.09 0 0 15.29 -13.5 0 0 19.45c0,20.62 -16.86,37.48 -37.48,37.48l-12 0c-26.11,0 -47.48,-21.36 -47.48,-47.47l0 -9.46 -33.18 0 0 9.46c0,26.11 -21.37,47.47 -47.47,47.47l-12 0c-20.62,0 -37.49,-16.86 -37.49,-37.48l0 -19.45 -13.49 0 0 -15.29zm253.95 -116.81c53.94,7.93 88.96,20.71 88.96,35.13 0,24.08 -97.6,43.6 -217.99,43.6 -120.39,0 -217.98,-19.52 -217.98,-43.6 0,-14.42 35.02,-27.2 88.96,-35.13 30.28,20.23 76.82,33.19 129.02,33.19 52.21,0 98.75,-12.96 129.03,-33.19z"/></g><text x="0" y="861.66" fill="#000000" font-size="32px" font-weight="bold" font-family="'Helvetica Neue', Helvetica, Arial-Unicode, Arial, Sans-serif">Created by Satryo Std</text><text x="0" y="886.66" fill="#000000" font-size="32px" font-weight="bold" font-family="'Helvetica Neue', Helvetica, Arial-Unicode, Arial, Sans-serif">from the Noun Project</text></svg>