<svg xmlns="http://www.w3.org/2000/svg" xmlns:xlink="http://www.w3.org/1999/xlink" version="1.1" x="0px" y="0px" viewBox="0 0 100 125" enable-background="new 0 0 100 100" xml:space="preserve"><g><path d="M85.562,22.581l-13.818,9.216l-1.329-1.993c-0.683-1.026-1.827-1.639-3.062-1.639c-0.727,0-1.432,0.214-2.037,0.618   L23.264,56.827c-1.687,1.125-2.145,3.412-1.021,5.101l1.585,2.377L11.52,72.513c-0.843,0.563-1.549,1.261-1.984,1.963   c-0.924,1.479-0.427,2.531-0.171,2.914c0.253,0.38,0.862,1.017,2.101,1.017c0.971,0,2.147-0.413,3.229-1.134l12.307-8.209   l1.073,1.609c0.684,1.025,1.829,1.638,3.062,1.638c0.728,0,1.434-0.215,2.039-0.619l42.052-28.045   c1.687-1.122,2.144-3.41,1.019-5.099l-1.329-1.992l13.817-9.216c1.182-0.787,2.01-1.872,2.214-2.901   c0.13-0.651,0.014-1.29-0.326-1.796C89.731,21.307,87.5,21.291,85.562,22.581z M73.851,40.722   c-0.021,0.103-0.084,0.294-0.286,0.429L31.51,69.196c-0.304,0.205-0.738,0.113-0.939-0.188l-1.889-2.833   c-0.005-0.009-0.008-0.018-0.014-0.026l-1.509-2.263c-0.003-0.005-0.008-0.007-0.012-0.012l-2.408-3.61   c-0.208-0.312-0.123-0.734,0.188-0.941l42.052-28.044c0.142-0.094,0.281-0.114,0.373-0.114c0.229,0,0.439,0.113,0.565,0.302   l2.153,3.229c0.003,0.005,0.005,0.01,0.008,0.015l1.51,2.263c0.002,0.002,0.004,0.004,0.006,0.007l2.155,3.231   C73.886,40.415,73.871,40.619,73.851,40.722z"/></g><text x="0" y="115" fill="#000000" font-size="5px" font-weight="bold" font-family="'Helvetica Neue', Helvetica, Arial-Unicode, Arial, Sans-serif">Created by Rudez Studio</text><text x="0" y="120" fill="#000000" font-size="5px" font-weight="bold" font-family="'Helvetica Neue', Helvetica, Arial-Unicode, Arial, Sans-serif">from the Noun Project</text></svg>