<svg xmlns="http://www.w3.org/2000/svg" xmlns:xlink="http://www.w3.org/1999/xlink" version="1.1" x="0px" y="0px" viewBox="0 0 100 125" style="enable-background:new 0 0 100 100;" xml:space="preserve"><path d="M10.1,3.7l0,0.3C10,3.9,9.9,4,9.8,4c-0.7,0.9-0.2,2,0,2.3l1.8,1.8c0,0,0,0,0,0.1l23.4,23.4c0.6,0.6,1.2,1.2,1.8,1.8  c0.1,0.1,0.3,0.3,0.4,0.4c0.2,0.2,0.4,0.4,0.6,0.6c0.1,0.1,0.1,0.1,0.2,0.2c0.2,0.2,0.4,0.4,0.5,0.5c0.1,0.1,0.1,0.1,0.2,0.2  c2.8,2.8,4.3,4.6,5.2,5.6L32.2,29L32,28.9l-0.5,0.5c0,0-0.1,0-0.1,0l-2.5-2.5c0,0,0-0.1,0-0.1l0.5-0.5l-0.2-0.2l-9.7-9.7l-0.2-0.2  L19,16.6c0,0-0.1,0-0.1,0l-2.5-2.5c0,0,0-0.1,0-0.1l0.4-0.4l-0.2-0.2l-5.1-5.1l0.1-0.1c0,0,0,0,0-0.1L9.9,6.4c0,0,0,0-0.1-0.1l-1-1  c0,0-0.1,0-0.1,0L8.1,5.9c0,0,0,0.1,0,0.1l2.8,2.8c0,0,0.1,0,0.1,0l0.1-0.1l5.1,5.1L16.1,14c0,0,0,0.1,0,0.1l2.8,2.8  c0,0,0.1,0,0.1,0l0.1-0.1l9.7,9.8l-0.2,0.2c0,0,0,0.1,0,0.1l2.8,2.8c0,0,0.1,0,0.1,0l0.2-0.2l10.8,10.9l0,0c-0.2,0.2-0.2,0.5,0,0.7  l3,3c0.3,0.7,0.7,1,0.7,1l13.3,13.3c0,0,4.3,4.5,7.9,8.4c0,0,0,0,0,0c-0.4,0.3-1,1.2-1.2,1.8c-0.3,0.7,0,2.2,1.5,3.2  c1.2,0.8,2.4,0.2,3-0.2c0,0,0,0,0,0c1.5,1.3,4.7,10.6,4.7,10.6s6,15.3,6.4,16c0,0.1,0.1,0.2,0.1,0.2c0.1,0.1,0.2,0.1,0.3,0.1  c0,0,0,0,0,0c0.2,0.1,0.5,0,0.6-0.2c4.5-4,7.6-5.5,7.6-5.5c2.4-0.8,1.1-2.9,1.1-2.9c-0.9-1.2-1.9-2.8-3.1-4.3  c-3.4-4-7.7-8.1-9.2-9.6c-0.2-0.2-0.5-0.3-0.7-0.2c-0.6,0.2-1.1,0-1.5-0.5c-0.5-0.4-0.9-1.1-1.2-1.7c-0.4-0.9-0.7-1.9-0.7-2.9  c-0.2-2.6-1.2-4.7-2.3-6.2c0.2-0.1,0.4-0.3,0.4-0.5c0.3-1,0.5-3.5,1.8-3.7c0,0-1.5-1.2-2,0.8c0,0,0.2,0.8-0.6,0.1  c-0.7-0.6-1.4-1.2-2.7-0.2l-1-1c0.4-0.1,0.7-0.2,0.7-0.2c-0.2-2.7,0.9-4.7,0.9-4.7c0.2-0.4-0.4,0-0.4,0c-1.2,2.5-1,4.4-1,4.4  l-0.7,0.2L16.4,8.5l-0.2-1.3l-0.3-0.3l-1.3-0.2L10.8,3L10.1,3.7z M88.1,86c1.2,1.4,2.3,2.8,3.1,4c0,0,1.3,2.1-1.1,2.9  c0,0-3.1,1.6-7.7,5.7c0,0-0.1,0-0.2,0c3.1-3.1,5.8-5,6.9-5.9c1.5-1.4,1.4-2.2,0-4.5C88.4,87,88.2,86.3,88.1,86z M11,8.5  c0,0-0.1,0-0.1,0L8.4,6c0,0,0-0.1,0-0.1l0.3-0.3c0,0,0.1,0,0.1,0l2.5,2.5c0,0,0,0.1,0,0.1L11,8.5z M69.7,62.5c0,0-0.1,0-0.1,0  c0,0,0,0,0,0c0,0-0.1,0-0.1,0c0,0-0.1,0-0.1,0c0,0,0,0,0,0c0,0-0.1,0-0.1,0l0,0c-0.5-0.2-0.8-0.5-0.8-0.5l-0.1-0.1l-1.1-1.1  c0.3-0.1,0.8-0.2,1.2-0.3l1.1,1.1c-0.1,0.1-0.2,0.1-0.2,0.2C69.2,61.6,69,61.7,69.7,62.5z M71.9,63.6c-0.3-0.3-0.5-0.6-0.7-0.8  c-0.3-0.3-0.5-0.4-0.6-0.6c0.3,0,0.7,0,1,0.3c0.3,0.2,0.5,0.5,0.4,0.8C72,63.4,71.9,63.5,71.9,63.6z M68.6,68.2  c0.3,0.4,0.6,0.7,0.8,1.1L68,70.6c0,0-0.2,0.6,0.4,0.5l0.1-0.1l-0.1-0.1c0,0-0.3,0.1-0.2-0.2c0,0,0.9-1,1.3-1.3  c0.3,0.4,0.5,0.8,0.7,1l0,0c0,0.3,0,0.5-0.3,0.8c-0.5,0.5-1.1,0.7-1.6,0.6c-0.3-0.1-0.9-0.5-1.4-1.1c-0.7-0.8-0.7-1.7,0-2.5  C67.4,67.7,68.1,67.9,68.6,68.2z M63.2,58.6c1.2,0.6,2.1,1.7,2.1,1.7s0.5,0.1,1-0.2l0.1,0.1l-0.4,0.1c-0.2-0.1-0.4,0-0.6,0.2  c-0.5,0.4-0.1,0.8-0.1,0.8s0.5,0.7,1,0.1c0.2-0.2,0.2-0.5,0.2-0.6c0,0,0,0,0.1-0.1c0,0,0.1-0.1,0.2-0.1l1.4,1.4c0,0,0.4,0.5,1,0.6  c0,0.1,0,0.2,0,0.3l0.8,0.8c-0.3,0.2-0.6,0.6-1,1.5c-0.1,0.3-0.2,0.6-0.1,0.9c0,0.2,0.1,0.5,0.3,0.8c0.6,1.1,2.2,1.1,2.8,0  c0.2-0.3,0.2-0.7-0.2-1.1c-1-1.1-0.7-1-0.7-1s0,0,0.1,0l1.1,1.2c0,0,1.7,3.2,0.6,5.5l-2.3-2.3c0,0-1.6-1.4-1.8-2.8  c0,0-1.8-2.5-3.3-3.6c-1.5-1.1-3.2-3-3.2-3S61.9,58,63.2,58.6z M44.9,42.1c0.3,0.4,0.2,0.4,0.2,0.4c0,0.4,0.1,0.7,0.2,1L42.7,41  c-0.1-0.1-0.1-0.4,0-0.5l0.3-0.3L44.9,42.1z M10.9,3.4L14.5,7l1.4,0.3L16,8.5l51.9,51.5l-1.2,0.3l-0.2-0.2l-56.4-56L10.9,3.4z"/><text x="0" y="115" fill="#000000" font-size="5px" font-weight="bold" font-family="'Helvetica Neue', Helvetica, Arial-Unicode, Arial, Sans-serif">Created by Jarem Frye</text><text x="0" y="120" fill="#000000" font-size="5px" font-weight="bold" font-family="'Helvetica Neue', Helvetica, Arial-Unicode, Arial, Sans-serif">from the Noun Project</text></svg>