<svg xmlns="http://www.w3.org/2000/svg" xmlns:xlink="http://www.w3.org/1999/xlink" version="1.1" x="0px" y="0px" viewBox="0 0 64 80" style="enable-background:new 0 0 64 64;" xml:space="preserve"><g><polygon points="44,25 43.415,25 42.726,25.688 42,26.415 42,35 44,35 44,28.236 46.105,32.447 47.895,31.553 44.618,25  "/><polygon points="22,35 22,26.415 21.274,25.688 20.835,25.25 19.391,24.983 16.105,31.553 17.895,32.447 20,28.236 20,35  "/><rect x="38.879" y="22.879" transform="matrix(0.7071 -0.7071 0.7071 0.7071 -5.2548 35.3137)" width="2.243" height="2.243"/><polygon points="47.867,23 47.104,16.896 41,16.133 41,20.586 43.414,23  "/><rect x="26.879" y="25.464" transform="matrix(0.7071 -0.7071 0.7071 0.7071 -11.598 28)" width="2.243" height="5.071"/><path d="M49.653,21.16l11.26-17.322C60.97,3.75,61,3.648,61,3.542c0-0.405-0.502-0.676-0.838-0.455L42.84,14.347l6.056,0.757   L49.653,21.16z"/><rect x="22.879" y="22.879" transform="matrix(0.7071 -0.7071 0.7071 0.7071 -9.9411 24)" width="2.243" height="2.243"/><path d="M35,33.414L33.414,35l25.672,25.672C59.298,60.884,59.579,61,59.879,61C60.497,61,61,60.497,61,59.879   c0-0.295-0.12-0.584-0.328-0.793L35,33.414z"/><path d="M37,25.414L3.328,59.086C3.12,59.295,3,59.584,3,59.879C3,60.497,3.503,61,4.121,61c0.3,0,0.581-0.116,0.793-0.328   L38.586,27L37,25.414z"/><path d="M18.34,22.754l-6.047-6.047l1.414-1.414L21,22.586L22.586,21l-9.293-9.293l1.414-1.414l8.047,8.047   c-0.936-5.054-4.492-9.363-9.434-11.159L3.672,3.672l3.509,9.648C8.977,18.262,13.286,21.818,18.34,22.754z"/></g><text x="0" y="79" fill="#000000" font-size="5px" font-weight="bold" font-family="'Helvetica Neue', Helvetica, Arial-Unicode, Arial, Sans-serif">Created by Eucalyp</text><text x="0" y="84" fill="#000000" font-size="5px" font-weight="bold" font-family="'Helvetica Neue', Helvetica, Arial-Unicode, Arial, Sans-serif">from the Noun Project</text></svg>