<svg xmlns="http://www.w3.org/2000/svg" data-name="Layer 1" viewBox="0 0 100 125" x="0px" y="0px"><title>NounProject</title><path d="M82.24,57.33a16.92,16.92,0,0,1-11.66-7.81c-1.5-2.47-2.38-6.14-4.62-10.26a15.3,15.3,0,0,0-7.5-6.48,20.57,20.57,0,0,0-16.66,0,15.37,15.37,0,0,0-7.51,6.48c-2.24,4.12-3.12,7.79-4.62,10.26A16.9,16.9,0,0,1,18,57.33a28.83,28.83,0,0,1-13.2-.46C8,61.54,13.32,67,17.09,70.55a10.66,10.66,0,0,0,9.52,2.67h0A116.7,116.7,0,0,1,49.9,70.65h.19a116.72,116.72,0,0,1,23.26,2.56h0a10.65,10.65,0,0,0,9.52-2.67C86.65,67,92,61.61,95.13,57A29.21,29.21,0,0,1,82.24,57.33Zm-24.31-11,.08.11a9.13,9.13,0,0,1,0,10.37,1,1,0,0,1-.11.17l-.15.21L59.65,59h0c.62-.34,2.37-1.13,3.42.29a2.24,2.24,0,0,1,.33,2.13c-.29.72-1,1.35-2.81.67a.05.05,0,0,0-.07.07c.68,1.81.06,2.52-.67,2.8a2.22,2.22,0,0,1-2.11-.31c-1.43-1-.67-2.78-.32-3.42a0,0,0,0,0,0-.06L55.53,59.3l-.05,0a10,10,0,0,1-1,.58v2.55A1.57,1.57,0,0,1,52.89,64H47.11a1.57,1.57,0,0,1-1.58-1.54V59.92a8.84,8.84,0,0,1-1-.58l-.06,0-1.93,1.93a.06.06,0,0,0,0,0c.34.62,1.13,2.37-.29,3.42a2.21,2.21,0,0,1-2.13.32c-.73-.28-1.36-1-.67-2.8a.05.05,0,0,0-.07-.07c-1.82.68-2.52,0-2.81-.67a2.28,2.28,0,0,1,.32-2.12c1-1.42,2.78-.66,3.41-.32,0,0,.05,0,.07,0l1.87-1.87c0-.07-.11-.14-.15-.21a1,1,0,0,1-.12-.17,9.15,9.15,0,0,1,0-10.37.76.76,0,0,1,.08-.11,1.57,1.57,0,0,1,.19-.26l-1.92-1.92h0c-.62.34-2.37,1.12-3.42-.3a2.22,2.22,0,0,1-.33-2.12c.29-.73,1-1.36,2.81-.67,0,0,.09,0,.07-.07-.69-1.82-.06-2.52.67-2.81a2.22,2.22,0,0,1,2.11.32c1.43,1,.67,2.78.32,3.41a.06.06,0,0,0,0,.07l2,2h0a9.86,9.86,0,0,1,10.95,0l2-2a.08.08,0,0,0,0,0c-.34-.62-1.13-2.38.29-3.43a2.27,2.27,0,0,1,2.13-.32c.73.28,1.35,1,.67,2.8a.06.06,0,0,0,.07.08c1.81-.69,2.52-.06,2.81.67a2.22,2.22,0,0,1-.32,2.11c-1,1.43-2.78.67-3.41.32a.06.06,0,0,0-.07,0L57.73,46C57.8,46.12,57.86,46.21,57.93,46.3Z"/><path d="M24.4,73.74a10.89,10.89,0,0,1-7.51-3C13,67.06,7.68,61.67,4.56,57l-.47-.69.8.24A29.17,29.17,0,0,0,18,57a16.58,16.58,0,0,0,11.46-7.68,28.85,28.85,0,0,0,1.93-4.26,52.39,52.39,0,0,1,2.68-6,15.62,15.62,0,0,1,7.65-6.61,20.81,20.81,0,0,1,16.9,0,15.59,15.59,0,0,1,7.64,6.61,50.69,50.69,0,0,1,2.68,6,28.81,28.81,0,0,0,1.94,4.26A16.56,16.56,0,0,0,82.29,57a29.06,29.06,0,0,0,12.76-.37l.79-.23-.46.68c-3.13,4.63-8.4,10-12.27,13.65a11,11,0,0,1-9.75,2.75l-.11,0A116.22,116.22,0,0,0,50.09,71h-.18a116.36,116.36,0,0,0-23.15,2.54l-.1,0A10.84,10.84,0,0,1,24.4,73.74ZM5.52,57.38a99.07,99.07,0,0,0,11.77,13,10.37,10.37,0,0,0,9.26,2.59h0A116.58,116.58,0,0,1,49.9,70.36h.19a116.59,116.59,0,0,1,23.32,2.56,10.39,10.39,0,0,0,9.3-2.58A99,99,0,0,0,94.43,57.45a30.21,30.21,0,0,1-12.24.17,17.17,17.17,0,0,1-11.86-7.95,28.93,28.93,0,0,1-2-4.35,49.72,49.72,0,0,0-2.65-5.91,15,15,0,0,0-7.36-6.36,20.24,20.24,0,0,0-16.42,0,15.06,15.06,0,0,0-7.37,6.36,51.39,51.39,0,0,0-2.65,5.91,29,29,0,0,1-2,4.35,17.18,17.18,0,0,1-11.87,7.95A30,30,0,0,1,5.52,57.38Z"/><path d="M88.27,58.16a36.56,36.56,0,0,1-6.08-.54,17.17,17.17,0,0,1-11.86-7.95,28.93,28.93,0,0,1-2-4.35,49.72,49.72,0,0,0-2.65-5.91,15,15,0,0,0-7.36-6.36,20.24,20.24,0,0,0-16.42,0,15.06,15.06,0,0,0-7.37,6.36,51.39,51.39,0,0,0-2.65,5.91,29,29,0,0,1-2,4.35,17.18,17.18,0,0,1-11.87,7.95,29.21,29.21,0,0,1-13.34-.47l-.1,0L4.56,57a18.52,18.52,0,0,1-2.15-4,1.25,1.25,0,0,1,.33-1.37,1.27,1.27,0,0,1,1.41-.23c3.51,1.61,10.28,3.9,16.1,1.2C24.18,50.82,27,47,28.6,41.2c1.83-6.55,5.8-11,11.8-13.27a28.43,28.43,0,0,1,19.2,0c6,2.26,10,6.72,11.8,13.27C73,47,75.82,50.82,79.75,52.65c5.82,2.7,12.59.41,16.11-1.2a1.27,1.27,0,0,1,1.73,1.6h0a19,19,0,0,1-2.21,4.07l-.06.09-.1,0A25,25,0,0,1,88.27,58.16ZM50.13,30.72a20.72,20.72,0,0,1,8.45,1.79,15.59,15.59,0,0,1,7.64,6.61,50.69,50.69,0,0,1,2.68,6,28.81,28.81,0,0,0,1.94,4.26A16.56,16.56,0,0,0,82.29,57,29.1,29.1,0,0,0,95,56.7,18.81,18.81,0,0,0,97,52.84h0a.69.69,0,0,0-.93-.85c-3.62,1.65-10.58,4-16.61,1.2-4.1-1.91-7-5.89-8.67-11.83C69.05,35,65.2,30.67,59.39,28.49a27.7,27.7,0,0,0-18.78,0C34.79,30.67,31,35,29.17,41.36c-1.66,5.94-4.58,9.92-8.67,11.83-6,2.8-13,.45-16.6-1.2a.69.69,0,0,0-.94.85,18.8,18.8,0,0,0,2,3.77A29.2,29.2,0,0,0,18,57a16.58,16.58,0,0,0,11.46-7.68,28.85,28.85,0,0,0,1.93-4.26,52.39,52.39,0,0,1,2.68-6,15.62,15.62,0,0,1,7.65-6.61A20.65,20.65,0,0,1,50.13,30.72Z"/><path d="M52.89,64.3H47.11a1.85,1.85,0,0,1-1.87-1.83l0-2.37a9.28,9.28,0,0,1-.86-.52l-.13-.09-.2-.14a9.77,9.77,0,0,1-2-2,2.09,2.09,0,0,1-.16-.22L41.77,57,41.72,57a9.51,9.51,0,0,1-1.65-5.35,9.41,9.41,0,0,1,1.68-5.38l.1-.13a2.5,2.5,0,0,1,.18-.26,9.92,9.92,0,0,1,2-2l.36-.25a10.2,10.2,0,0,1,11.2,0l.28.2a9.71,9.71,0,0,1,2,2l.18.23.05.07a.61.61,0,0,0,.07.1,9.48,9.48,0,0,1,0,10.69l-.18.25-.1.14a9.87,9.87,0,0,1-2,2l-.17.13-.17.11a7.84,7.84,0,0,1-.86.52l0,2.38A1.85,1.85,0,0,1,52.89,64.3ZM44.62,44.21l-.19.13a9.3,9.3,0,0,0-1.93,1.88l-.18.24,0,.08a8.9,8.9,0,0,0-.07,10.08s0,.05.06.08l.05.07a1.73,1.73,0,0,0,.15.2,9.1,9.1,0,0,0,1.92,1.9l.32.22a7,7,0,0,0,1,.56l.16.09v2.73a1.27,1.27,0,0,0,1.28,1.24h5.78a1.26,1.26,0,0,0,1.28-1.24l0-2.73.16-.09a7.34,7.34,0,0,0,1-.56l.16-.11.15-.11A9.3,9.3,0,0,0,57.54,57l.09-.13.17-.23a8.86,8.86,0,0,0,0-10l-.08-.12c-.07-.09-.12-.17-.18-.24a9,9,0,0,0-1.93-1.88l-.27-.19a9.57,9.57,0,0,0-10.61,0Z"/><rect x="51.73" y="60.25" width="0.59" height="3.76"/><rect x="49.7" y="60.25" width="0.59" height="3.76"/><rect x="47.67" y="60.25" width="0.59" height="3.76"/><path d="M51.1,57H48.89a.42.42,0,0,1-.36-.63l.12-.22.43-.74.27-.47.06-.09.22-.4a.39.39,0,0,1,.32-.2h.1a.39.39,0,0,1,.32.2l.22.4.06.09.27.47.43.74.12.22A.42.42,0,0,1,51.1,57Z"/><path d="M51.1,57.33H48.9a.72.72,0,0,1-.63-1.08l1.1-1.91a.69.69,0,0,1,.51-.35L50,54a.3.3,0,0,1,.12,0,.69.69,0,0,1,.51.35l1.1,1.91a.72.72,0,0,1-.63,1.08ZM50,54.57a.14.14,0,0,0-.1.06l-1.11,1.92a.1.1,0,0,0,0,.12.11.11,0,0,0,.11.07h2.2a.11.11,0,0,0,.11-.07.1.1,0,0,0,0-.13l-1.1-1.91a.11.11,0,0,0-.09-.06Z"/><path d="M48.05,51v.2a2.24,2.24,0,0,1-.71,1.46,2.29,2.29,0,0,1-1.36.6h-.2a2.27,2.27,0,1,1,2.12-3.08A2.12,2.12,0,0,1,48.05,51Z"/><path d="M45.78,49.3a1.67,1.67,0,0,1,1.57,1.09,1.55,1.55,0,0,1,.11.59.81.81,0,0,1,0,.15,1.48,1.48,0,0,1-.16.58,1.72,1.72,0,0,1-.36.49,1.65,1.65,0,0,1-1,.45h-.14A1.67,1.67,0,0,1,44.11,51a1.69,1.69,0,0,1,.94-1.51,1.63,1.63,0,0,1,.73-.17m0-.59a2.29,2.29,0,0,0-1,.23,2.27,2.27,0,0,0,1,4.31H46a2.29,2.29,0,0,0,1.36-.6,2.24,2.24,0,0,0,.71-1.46V51a2.12,2.12,0,0,0-.15-.81,2.25,2.25,0,0,0-2.12-1.46Z"/><path d="M56.49,51a2.27,2.27,0,0,1-2.27,2.27H54A2.27,2.27,0,0,1,52.18,52h0a2.43,2.43,0,0,1-.21-.8,1.41,1.41,0,0,1,0-.2,2.12,2.12,0,0,1,.15-.81,2.25,2.25,0,0,1,2.12-1.46,2.29,2.29,0,0,1,1,.23A2.26,2.26,0,0,1,56.49,51Z"/><path d="M54.22,49.3a1.63,1.63,0,0,1,.73.17,1.67,1.67,0,0,1-.73,3.18h-.15a1.61,1.61,0,0,1-1-.45,1.48,1.48,0,0,1-.35-.48l-.06-.11a1.6,1.6,0,0,1-.11-.47V51a1.68,1.68,0,0,1,1.68-1.68m0-.59a2.25,2.25,0,0,0-2.12,1.46A2.12,2.12,0,0,0,52,51a1.41,1.41,0,0,0,0,.2,2.43,2.43,0,0,0,.21.8h0A2.27,2.27,0,0,0,54,53.24h.2a2.27,2.27,0,1,0,0-4.54Z"/><text x="0" y="115" fill="#000000" font-size="5px" font-weight="bold" font-family="'Helvetica Neue', Helvetica, Arial-Unicode, Arial, Sans-serif">Created by Nakesha Upshaw</text><text x="0" y="120" fill="#000000" font-size="5px" font-weight="bold" font-family="'Helvetica Neue', Helvetica, Arial-Unicode, Arial, Sans-serif">from the Noun Project</text></svg>