<?xml version="1.0" encoding="UTF-8" standalone="no"?>
<svg
   version="1.1"
   x="0px"
   y="0px"
   viewBox="0 0 100 125"
   enable-background="new 0 0 100 100"
   xml:space="preserve"
   id="svg68"
   sodipodi:docname="noun-tricorn-245888.svg"
   inkscape:version="1.2.2 (b0a8486, 2022-12-01)"
   xmlns:inkscape="http://www.inkscape.org/namespaces/inkscape"
   xmlns:sodipodi="http://sodipodi.sourceforge.net/DTD/sodipodi-0.dtd"
   xmlns="http://www.w3.org/2000/svg"
   xmlns:svg="http://www.w3.org/2000/svg"><defs
     id="defs72" /><sodipodi:namedview
     id="namedview70"
     pagecolor="#ffffff"
     bordercolor="#000000"
     borderopacity="0.25"
     inkscape:showpageshadow="2"
     inkscape:pageopacity="0.0"
     inkscape:pagecheckerboard="0"
     inkscape:deskcolor="#d1d1d1"
     showgrid="false"
     inkscape:zoom="1.888"
     inkscape:cx="49.788136"
     inkscape:cy="64.088983"
     inkscape:window-width="1309"
     inkscape:window-height="790"
     inkscape:window-x="0"
     inkscape:window-y="23"
     inkscape:window-maximized="0"
     inkscape:current-layer="svg68" /><path
     fill="none"
     stroke="#000000"
     stroke-linecap="round"
     stroke-linejoin="round"
     stroke-miterlimit="10"
     d="M699.696,194.519  c0,0,5.661,1.86,7.554,1.956h41.751c1.85-0.104,7.388-1.871,7.388-1.871"
     id="path54" /><path
     fill="none"
     stroke="#000000"
     stroke-linecap="round"
     stroke-linejoin="round"
     stroke-miterlimit="10"
     d="M747.791,196.472  l-39.657,0.003c-0.005-0.05-1.987-10.845,4.258-16.219c3.142-2.703,7.627-4.029,15.86-4.029c7.693,0,12.116,1.424,15.091,4.029  C749.536,185.678,747.791,196.472,747.791,196.472z"
     id="path56" /><line
     fill="none"
     stroke="#000000"
     stroke-linecap="round"
     stroke-linejoin="round"
     stroke-miterlimit="10"
     x1="707.846"
     y1="191.421"
     x2="747.97"
     y2="191.43"
     id="line58" /><path
     fill="#000000"
     stroke="#000000"
     stroke-linecap="round"
     stroke-linejoin="round"
     stroke-miterlimit="10"
     d="M699.696,194.519  c0,0,5.661,1.86,7.554,1.956h41.751c1.85-0.104,7.388-1.871,7.388-1.871"
     id="path60" /><path
     fill="none"
     stroke="#000000"
     stroke-linecap="round"
     stroke-linejoin="round"
     stroke-miterlimit="10"
     d="M747.791,196.472  l-39.657,0.003c-0.005-0.05-1.987-10.845,4.258-16.219c3.142-2.703,7.627-4.029,15.86-4.029c7.693,0,12.116,1.424,15.091,4.029  C749.536,185.678,747.791,196.472,747.791,196.472z"
     id="path62" /><line
     fill="none"
     stroke="#000000"
     stroke-linecap="round"
     stroke-linejoin="round"
     stroke-miterlimit="10"
     x1="707.846"
     y1="191.421"
     x2="747.97"
     y2="191.43"
     id="line64" /><path
     fill="none"
     stroke="#000000"
     stroke-linecap="round"
     stroke-linejoin="round"
     stroke-miterlimit="10"
     d="M10.945,75.5  c-3.016,0-4.524-7.539-1.508-6.031c3.016,1.508,15.078-3.016,17.34-6.785s5.892-36.601,21.599-36.601  c15.833,0,20.482,32.831,22.743,36.601c2.262,3.77,14.325,8.293,17.34,6.785c3.016-1.508,1.508,6.031-1.508,6.031  c-3.016,0-22.756-6.031-38.038-6.031S13.961,75.5,10.945,75.5z"
     id="path66" /><path
     style="fill:#000000;stroke-width:0.529661"
     d="m 9.2826695,73.119523 c -1.3796302,-2.667911 -1.137748,-2.931661 2.7711425,-3.02168 5.237374,-0.120613 13.202502,-3.621188 15.174768,-6.669122 0.424779,-0.656454 1.394131,-3.6962 2.154116,-6.754992 5.091388,-20.491868 10.990011,-29.661017 19.081287,-29.661017 7.589627,0 13.27643,7.998318 19.017738,26.747881 2.664227,8.700649 3.088549,9.682207 4.855032,11.230819 2.838687,2.488584 9.303231,5.022656 13.613559,5.336459 3.352988,0.244105 3.566213,0.334561 3.255032,1.380867 -0.183151,0.615809 -0.769036,1.573975 -1.301965,2.129259 -0.951748,0.991666 -1.150773,0.970541 -11.199947,-1.188788 -15.479068,-3.326085 -20.971401,-3.977177 -30.622924,-3.63021 -8.615201,0.309712 -12.436616,0.874277 -26.049554,3.848493 -4.56825,0.998091 -8.673623,1.814711 -9.12305,1.814711 -0.449428,0 -1.1807831,-0.703206 -1.6252345,-1.56268 z"
     id="path301" /><text x="0" y="115" fill="#000000" font-size="5px" font-weight="bold" font-family="'Helvetica Neue', Helvetica, Arial-Unicode, Arial, Sans-serif">Created by Mark Ernsting</text><text x="0" y="120" fill="#000000" font-size="5px" font-weight="bold" font-family="'Helvetica Neue', Helvetica, Arial-Unicode, Arial, Sans-serif">from the Noun Project</text></svg>
