<svg xmlns="http://www.w3.org/2000/svg" xmlns:xlink="http://www.w3.org/1999/xlink" version="1.1" x="0px" y="0px" viewBox="0 0 64 80" enable-background="new 0 0 64 64" xml:space="preserve"><g><g><path d="M34.5327148,15.9990234c-2.2186699-0.0000257-4.3025742,0.8635063-5.8642578,2.4296875    c0,0-5.2988281,5.2900391-5.2988281,5.2900391c-0.6152344,0.6148682-0.74823,1.5267944-0.4111938,2.2762451l-5.5496826,7.1365356    L6.7563477,45.4257813c-0.6289063,0.7275391-0.5893555,1.8300781,0.090332,2.5097656l1.3192139,1.3190918l-1.8729248,1.873291    c-0.390625,0.390625-0.390625,1.0234375,0,1.4140625s1.0234375,0.390625,1.4140625,0l1.8730469-1.8734131l1.3168945,1.3167725    c0.6807842,0.6832428,1.7850914,0.7209511,2.5107422,0.0908203c0,0,12.2987061-10.6561279,12.2987061-10.6561279    l7.1322632-5.5452881c0.7618713,0.3484917,1.6646996,0.1974144,2.276062-0.4108887c0,0,5.2871094-5.2958984,5.2871094-5.2958984    C45.6384697,25.1228886,41.8054619,15.8756561,34.5327148,15.9990234z M12.2084961,50.46875    c-0.962779-0.9626694-2.8816576-2.8813057-3.8442383-3.84375l9.8701172-11.3916016l5.3652344,5.3652344L12.2084961,50.46875z     M25.1494141,39.3203125c-1.4046764-1.4047966-4.2319031-4.2322693-5.6362305-5.6367188l4.7856445-6.1542969l7.0053711,7.0058594    L25.1494141,39.3203125z M40.8325195,24.3027344c0.0083008,1.6796875-0.6455078,3.2587891-1.8432617,4.4492188    l-5.3427734,5.296875l-8.7329102-8.7333984l-0.1303711-0.1816406l5.2998047-5.2910156    C33.9122543,15.8711681,40.9480286,18.7954006,40.8325195,24.3027344z"/><path d="M30.0898438,56.3349609h-3.7573242V45.2714844c0-0.5527344-0.4477539-1-1-1s-1,0.4472656-1,1v11.0634766h-2.5834961    v-7.0947266c0-0.5527344-0.4477539-1-1-1s-1,0.4472656-1,1v7.0947266h-3.7573242    c-0.9609375,0-1.7426758,0.78125-1.7426758,1.7421875v2.1816406c0,0.9609375,0.7817383,1.7421875,1.7426758,1.7421875h14.0981445    c0.9609375,0,1.7426758-0.78125,1.7426758-1.7421875v-2.1816406    C31.8325195,57.1162109,31.0507813,56.3349609,30.0898438,56.3349609z M29.8325195,60.0009766H16.2490234v-1.6660156h13.5834961    V60.0009766z"/><path d="M53.0117188,6.9873047c-3.215332-3.2167969-7.484375-4.9882813-12.0205078-4.9882813    c-1.3029938,0.0081253-1.312233,1.9921834,0.0000687,1.9999995c8.0497589-0.1684325,15.1768341,6.9598956,15.0085983,15.0089016    c0.0169868,1.3073235,1.9796562,1.3190632,2.0001183-0.0001602C58,14.4726563,56.2285156,10.203125,53.0117188,6.9873047z"/><path d="M40.996582,11.3330078c-1.3052406-0.0001535-1.3207207,1.9861259-0.0106773,1.9999981    c3.0615768-0.0442762,5.7237968,2.6194353,5.6800652,5.6807079c0.0028114,0.5516491,0.4537621,0.9971657,1.0054169,0.9940987    c0.5522461-0.0029297,0.9975586-0.453125,0.9946289-1.0058594C48.725441,14.873702,45.124794,11.2728357,40.996582,11.3330078z"/></g></g><text x="0" y="79" fill="#000000" font-size="5px" font-weight="bold" font-family="'Helvetica Neue', Helvetica, Arial-Unicode, Arial, Sans-serif">Created by Graphic Enginer</text><text x="0" y="84" fill="#000000" font-size="5px" font-weight="bold" font-family="'Helvetica Neue', Helvetica, Arial-Unicode, Arial, Sans-serif">from the Noun Project</text></svg>