<svg xmlns="http://www.w3.org/2000/svg" xmlns:xlink="http://www.w3.org/1999/xlink" version="1.1" x="0px" y="0px" viewBox="0 0 128 160" style="enable-background:new 0 0 128 128;" xml:space="preserve"><g><rect x="57" y="36" width="14" height="2"/><circle cx="64" cy="18" r="1"/><circle cx="64" cy="10" r="1"/><rect x="57" y="32" width="14" height="2"/><path d="M69.004,3.086c-0.003-0.035-0.036-0.084-0.058-0.097L59.016,3C59.007,3.021,59,3.05,58.997,3.083L57.091,25h13.818   L69.004,3.086z M64,21c-1.654,0-3-1.346-3-3s1.346-3,3-3s3,1.346,3,3S65.654,21,64,21z M64,13c-1.654,0-3-1.346-3-3s1.346-3,3-3   s3,1.346,3,3S65.654,13,64,13z"/><rect x="57" y="27" width="14" height="3"/><path d="M49,79c0,8.271,6.729,15,15,15s15-6.729,15-15s-6.729-15-15-15S49,70.729,49,79z M76,79c0,6.617-5.383,12-12,12   s-12-5.383-12-12s5.383-12,12-12S76,72.383,76,79z"/><circle cx="64" cy="79" r="10"/><circle cx="80" cy="11" r="2"/><circle cx="80" cy="21" r="2"/><path d="M72.482,20l0.174,2h3.486C76.058,21.678,76,21.347,76,21s0.058-0.678,0.142-1H72.482z"/><path d="M76.142,12C76.058,11.678,76,11.347,76,11s0.058-0.678,0.142-1h-4.53l0.174,2H76.142z"/><path d="M55.779,17l0.174-2h-6.095C49.942,15.322,50,15.653,50,16s-0.058,0.678-0.142,1H55.779z"/><circle cx="46" cy="16" r="2"/><circle cx="46" cy="6" r="2"/><path d="M71,63.526V60H57v3.526C59.138,62.555,61.503,62,64,62S68.862,62.555,71,63.526z"/><path d="M56.649,7l0.174-2h-6.964C49.942,5.322,50,5.653,50,6s-0.058,0.678-0.142,1H56.649z"/><path d="M80.027,107.245c-0.023-0.07-0.057-0.173-0.087-0.244L48.06,107c-0.031,0.071-0.065,0.174-0.088,0.245l-0.951,3.793   L80.969,111l-0.931-3.722C80.033,107.262,80.028,107.246,80.027,107.245z"/><path d="M73,53.057v11.548c4.795,3.009,8,8.329,8,14.396c0,9.374-7.626,17-17,17s-17-7.626-17-17c0-6.067,3.205-11.387,8-14.396   V53.057C41.591,59.31,32,79.123,32,101c0,15.028,11.962,24,32,24s32-8.972,32-24C96,79.123,86.409,59.31,73,53.057z    M82.464,112.408C82.096,112.79,81.576,113,81,113H47c-0.577,0-1.097-0.21-1.464-0.592c-0.366-0.38-0.556-0.893-0.535-1.446   c0.003-0.069,0.013-0.138,0.029-0.205l1-4c0.006-0.023,0.035-0.114,0.042-0.136C46.217,106.178,46.604,105,48,105h32   c1.396,0,1.783,1.178,1.928,1.622c0.007,0.022,0.036,0.112,0.042,0.136l1,4c0.017,0.067,0.026,0.136,0.029,0.205   C83.02,111.515,82.83,112.028,82.464,112.408z"/><rect x="57" y="44" width="14" height="2"/><rect x="57" y="48" width="14" height="2"/><rect x="57" y="40" width="14" height="2"/><rect x="57" y="52" width="14" height="2"/><rect x="57" y="56" width="14" height="2"/></g><text x="0" y="143" fill="#000000" font-size="5px" font-weight="bold" font-family="'Helvetica Neue', Helvetica, Arial-Unicode, Arial, Sans-serif">Created by Amethyst Studio</text><text x="0" y="148" fill="#000000" font-size="5px" font-weight="bold" font-family="'Helvetica Neue', Helvetica, Arial-Unicode, Arial, Sans-serif">from the Noun Project</text></svg>