<svg xmlns="http://www.w3.org/2000/svg" xmlns:xlink="http://www.w3.org/1999/xlink" version="1.1" x="0px" y="0px" viewBox="0 0 1000 1250" enable-background="new 0 0 1000 1000" xml:space="preserve"><path d="M786.7,794.7h-20.1c0.4-2.4,0.7-4.9,0.7-7.4v-4.5c0-23.6-19.2-42.9-42.9-42.9h-2.2l0-251.9h11c13,0,25.6-5.5,34.4-15.1  c8.9-9.6,13.3-22.5,12.3-35.5c-2.8-35.6-12.3-69-28.1-99.2c-15.3-29.1-36.2-54.7-62-76.1c-31.3-25.8-69.1-44.4-110.4-54.8  c-4.5-12.6-12-24-22-33.3c-10.4-9.6-22.9-16.4-36.3-19.9V120c0-11.6-9.4-21-21-21H500c-11.6,0-21,9.4-21,21v34.1  c-13.5,3.5-25.9,10.2-36.3,19.9c-10,9.3-17.5,20.7-22,33.3c-41.3,10.4-79.1,29-110.4,54.8c-25.9,21.3-46.7,46.9-62,76.1  c-15.9,30.3-25.3,63.6-28.1,99.2c-1,13,3.5,26,12.3,35.5c8.9,9.6,21.4,15.1,34.4,15.1h11l0,251.9h-2.2c-23.6,0-42.9,19.2-42.9,42.9  v4.5c0,2.5,0.2,5,0.7,7.4h-20.1c-27.8,0-50.3,22.6-50.3,50.3v5.7c0,27.8,22.6,50.3,50.3,50.3h573.3c27.8,0,50.3-22.6,50.3-50.3V845  C837,817.2,814.4,794.7,786.7,794.7z M516.2,488l0,251.9h-32.4l0-251.9H516.2z M635.4,739.9H603l0-251.9h32.4L635.4,739.9z   M364.6,488H397l0,251.9h-32.4L364.6,488z"/><text x="0" y="1015" fill="#000000" font-size="64px" font-weight="bold" font-family="'Helvetica Neue', Helvetica, Arial-Unicode, Arial, Sans-serif">Created by Alvaro Cabrera</text><text x="0" y="1080" fill="#000000" font-size="64px" font-weight="bold" font-family="'Helvetica Neue', Helvetica, Arial-Unicode, Arial, Sans-serif">from the Noun Project</text></svg>