<svg xmlns="http://www.w3.org/2000/svg" xmlns:xlink="http://www.w3.org/1999/xlink" version="1.1" x="0px" y="0px" viewBox="0 0 100 125" enable-background="new 0 0 100 100" xml:space="preserve"><path d="M60.821,65.665l0.344-4.712l-6.154-2.719c-0.301-2.466-1.035-4.81-2.137-6.943l3.21-5.673l-3.09-3.578l-5.899,2.284  c-2.017-1.567-4.336-2.775-6.866-3.522l-1.669-6.01l-4.712-0.343l-2.521,5.704c-2.611,0.376-5.081,1.234-7.305,2.49l-5.508-3.117  l-3.574,3.091l2.354,6.082c-1.393,1.953-2.46,4.161-3.121,6.551l-6.484,1.802l-0.343,4.712l6.416,2.836  c0.415,2.251,1.191,4.381,2.272,6.327l-0.155,0.062l-3.453,6.107l3.087,3.575l6.546-2.532l0.165-0.289  c1.802,1.282,3.827,2.283,6.006,2.939l-0.159,0.367l1.878,6.766l4.712,0.344l2.835-6.422l-0.104-0.382  c2.254-0.338,4.401-1.032,6.375-2.038l0.118,0.307l6.11,3.456l3.577-3.092l-2.533-6.546l-0.142-0.078  c1.354-1.772,2.436-3.769,3.17-5.938L60.821,65.665z M33.721,67.277c-3.467-0.253-6.074-3.267-5.822-6.733  c0.255-3.468,3.269-6.072,6.736-5.817c3.467,0.252,6.071,3.266,5.817,6.731C40.2,64.926,37.189,67.529,33.721,67.277z"/><path d="M92.205,43.52l-1.147-3.023l-4.603,0.09c-0.899-1.443-2.034-2.687-3.332-3.692l0.354-4.45l-2.949-1.327l-3.003,3.121  c-1.706-0.389-3.493-0.47-5.279-0.202l-2.77-3.249l-3.025,1.147l0.083,4.27c-1.513,0.986-2.797,2.232-3.812,3.655l-4.32-0.343  l-1.325,2.95l3.217,3.095c-0.299,1.615-0.325,3.294-0.042,4.967l-3.507,2.992l1.147,3.023l4.801-0.095  c0.908,1.277,2.005,2.376,3.238,3.271l-0.078,0.084l-0.38,4.788l2.948,1.326l3.332-3.463l0.021-0.226  c1.486,0.275,3.033,0.311,4.577,0.09l0.006,0.272l3.119,3.658l3.022-1.148l-0.095-4.804l-0.177-0.208  c1.304-0.86,2.436-1.91,3.367-3.104l0.166,0.155l4.788,0.38l1.327-2.951l-3.462-3.33l-0.109-0.01  c0.326-1.49,0.421-3.041,0.251-4.601L92.205,43.52z M75.852,52.347c-2.223,0.844-4.712-0.273-5.555-2.497  c-0.847-2.225,0.273-4.712,2.5-5.557c2.224-0.845,4.709,0.275,5.553,2.499C79.194,49.017,78.078,51.502,75.852,52.347z"/><path d="M67.569,28.719l0.454-2.586l-3.25-1.849c-0.029-1.38-0.304-2.717-0.793-3.958l2.092-2.959l-1.508-2.15l-3.391,0.934  c-1.028-0.982-2.243-1.778-3.601-2.334l-0.584-3.416L54.4,9.947l-1.713,3.014c-1.464,0.062-2.878,0.398-4.179,0.97l-2.871-2.031  l-2.149,1.508l0.961,3.494c-0.88,1.004-1.594,2.164-2.092,3.45l-3.687,0.632l-0.453,2.588l3.388,1.925  c0.105,1.27,0.416,2.49,0.902,3.628l-0.088,0.023l-2.251,3.185l1.508,2.149l3.763-1.033l0.106-0.149  c0.924,0.808,1.99,1.476,3.158,1.959l-0.109,0.194l0.659,3.847l2.587,0.453l1.926-3.393l-0.035-0.217  c1.265-0.061,2.491-0.324,3.639-0.77l0.047,0.175l3.188,2.254l2.149-1.51l-1.033-3.762l-0.072-0.052  c0.846-0.904,1.554-1.948,2.084-3.105L67.569,28.719z M52.494,28.094c-1.903-0.333-3.176-2.146-2.841-4.05  c0.333-1.902,2.147-3.173,4.048-2.84c1.905,0.332,3.176,2.147,2.84,4.049C56.208,27.157,54.397,28.428,52.494,28.094z"/><path d="M77.372,84.597l0.804-2.027l-2.333-2.05c0.207-1.127,0.21-2.261,0.021-3.353l2.2-2.055l-0.867-2.002l-2.913,0.188  c-0.672-0.971-1.524-1.824-2.536-2.502l0.098-2.878l-2.028-0.804l-1.9,2.163c-1.2-0.197-2.408-0.161-3.561,0.087l-1.995-2.137  l-2.001,0.866l0.195,3.003c-0.885,0.669-1.66,1.492-2.283,2.455l-3.104-0.105l-0.804,2.029l2.433,2.135  c-0.128,1.048-0.081,2.095,0.126,3.102l-0.077,0.006l-2.366,2.212l0.864,2.002l3.234-0.209l0.112-0.105  c0.614,0.815,1.369,1.537,2.236,2.126l-0.119,0.141l-0.111,3.24l2.029,0.803l2.136-2.437l0.008-0.181  c1.041,0.163,2.082,0.153,3.09-0.015l0.009,0.15l2.212,2.367l2.004-0.865l-0.21-3.233l-0.052-0.055  c0.841-0.593,1.596-1.322,2.218-2.176L77.372,84.597z M65.213,81.552c-1.49-0.59-2.22-2.276-1.628-3.77  c0.59-1.49,2.278-2.221,3.771-1.629c1.492,0.593,2.222,2.279,1.629,3.771C68.395,81.415,66.705,82.145,65.213,81.552z"/><text x="0" y="115" fill="#000000" font-size="5px" font-weight="bold" font-family="'Helvetica Neue', Helvetica, Arial-Unicode, Arial, Sans-serif">Created by Stephen Plaster</text><text x="0" y="120" fill="#000000" font-size="5px" font-weight="bold" font-family="'Helvetica Neue', Helvetica, Arial-Unicode, Arial, Sans-serif">from the Noun Project</text></svg>