<svg xmlns="http://www.w3.org/2000/svg" xmlns:xlink="http://www.w3.org/1999/xlink" version="1.1" x="0px" y="0px" viewBox="0 0 60 75" style="enable-background:new 0 0 60 60;" xml:space="preserve"><path d="M9.4299927,21.0249634c1.5300293,0,2.8100586-1.0100098,3.2600098-2.3900146  c2.4400024,0.3900146,4.3300171,2.5100098,4.3300171,5.0600586v3.1699829c0,0-0.0100098,0-0.0100098,0.0100098  c0,4.6699829,1.7999878,9.1599731,4.960022,12.5700073c-1.7900391,0.9099731-3.0200195,2.7599487-3.0200195,4.9099731  c0,3.039978,2.4700317,5.5100098,5.5100098,5.5100098c2.7000122,0,4.9500122-1.9500122,5.4199829-4.5100098h11.2600098  c0.4700317,2.5599976,2.710022,4.5100098,5.4100342,4.5100098c3.039978,0,5.5099487-2.4700317,5.5099487-5.5100098  c0-2.1400146-1.2299805-4-3.0099487-4.9099731C52.210022,36.0349731,54,31.5449829,54,26.875c0-0.0100098,0-0.0100098,0-0.0100098  c0-9.2300415-7.5099487-16.7300415-16.7399902-16.7300415c-0.5499878,0-1,0.4500122-1,1V25.875H19.0200195v-2.1799927  c0-3.6600342-2.7700195-6.6800537-6.3200073-7.0900269c-0.4299927-1.4099731-1.7199707-2.4400024-3.2700195-2.4400024  C7.5400391,14.164978,6,15.7049561,6,17.5949707S7.5400391,21.0249634,9.4299927,21.0249634z M46.5500488,43.3549805h-3.3500366  c0.4400024-1.4500122,1.7700195-2.5200195,3.3500366-2.5200195c1.9400024,0,3.5099487,1.5800171,3.5099487,3.5200195  c0,1.9299927-1.5699463,3.5100098-3.5099487,3.5100098c-1.5800171,0-2.9100342-1.0700073-3.3500366-2.5100098h3.3500366  c0.5599976,0,1-0.4500122,1-1C47.5500488,43.7949829,47.1100464,43.3549805,46.5500488,43.3549805z M24.460022,40.8349609  c1.5900269,0,2.9199829,1.0700073,3.3499756,2.5200195H24.460022c-0.5499878,0-1,0.4400024-1,1c0,0.5499878,0.4500122,1,1,1  h3.3499756c-0.4299927,1.4400024-1.7599487,2.5100098-3.3499756,2.5100098c-1.9299927,0-3.5100098-1.5800171-3.5100098-3.5100098  C20.9500122,42.414978,22.5300293,40.8349609,24.460022,40.8349609z M9.4299927,16.164978  c0.7900391,0,1.4300537,0.6400146,1.4300537,1.4299927s-0.6400146,1.4299927-1.4300537,1.4299927  C8.6400146,19.0249634,8,18.3849487,8,17.5949707S8.6400146,16.164978,9.4299927,16.164978z"/><text x="0" y="75" fill="#000000" font-size="5px" font-weight="bold" font-family="'Helvetica Neue', Helvetica, Arial-Unicode, Arial, Sans-serif">Created by Vectorstall</text><text x="0" y="80" fill="#000000" font-size="5px" font-weight="bold" font-family="'Helvetica Neue', Helvetica, Arial-Unicode, Arial, Sans-serif">from the Noun Project</text></svg>