<svg xmlns="http://www.w3.org/2000/svg" xmlns:xlink="http://www.w3.org/1999/xlink" version="1.1" x="0px" y="0px" viewBox="0 0 100 125" style="enable-background:new 0 0 100 100;" xml:space="preserve"><path d="M92.9,26.1l-12.6-9.8C80,16.1,79.7,16,79.4,16h-23c0-0.2,0-4.5,0-4.8c-0.2-2.7-2.4-4.7-4.9-4.7c-0.3,0-2.9,0-3.2,0  c-2.5,0.2-4.5,2.1-4.6,4.6c-0.1,0.2,0,4.5,0,4.8h-30c-0.8,0-1.5,0.7-1.5,1.5v4.4c0,0.4,0.2,0.9,0.6,1.2l5.5,4.3l-5.5,4.3  c-0.3,0.3-0.6,0.7-0.6,1.2v4.4c0,0.8,0.7,1.5,1.5,1.5h30v7.5h-23c-0.3,0-0.7,0.1-0.9,0.3L7.1,56.2c-0.8,0.6-0.8,1.8,0,2.4l12.6,9.8  c0.3,0.3,0.6,0.3,0.9,0.3l0,0l0,0h23V92c0,0.8,0.7,1.5,1.5,1.5h9.8c0.8,0,1.5-0.7,1.5-1.5V68.7h30c0.8,0,1.5-0.7,1.5-1.5v-4.4  c0-0.4-0.2-0.9-0.6-1.2l-5.5-4.3l5.5-4.3c0.3-0.3,0.6-0.7,0.6-1.2v-4.4c0-0.8-0.7-1.5-1.5-1.5h-30v-7.5h23l0,0l0,0l0,0  c0.3,0,0.7-0.1,0.9-0.3l12.6-9.8C93.7,27.8,93.7,26.7,92.9,26.1z M78.9,35.6c-29.6,0-34.8,0-63.8,0v-2.1l6.4-5  c0.8-0.6,0.8-1.8,0-2.4l-6.4-5V19c29,0,34.3,0,63.8,0l10.7,8.3L78.9,35.6z M84.9,49.1v2.1c-0.2,0.1-6.3,4.9-6.4,5  c-0.8,0.6-0.7,1.8,0,2.3l6.4,5v2.1c-23.6,0-41.5,0-63.8,0l-10.7-8.3L21.1,49C43.5,49.1,61.1,49.1,84.9,49.1z M53.4,68.7v21.9h-6.8  V68.7H53.4z M46.6,46.1v-7.5h6.8v7.5H46.6z M48.6,9.5h2.8c1.1,0,2,0.9,2,2V16h-6.8v-4.5C46.6,10.4,47.5,9.5,48.6,9.5z"/><text x="0" y="115" fill="#000000" font-size="5px" font-weight="bold" font-family="'Helvetica Neue', Helvetica, Arial-Unicode, Arial, Sans-serif">Created by H Alberto Gongora</text><text x="0" y="120" fill="#000000" font-size="5px" font-weight="bold" font-family="'Helvetica Neue', Helvetica, Arial-Unicode, Arial, Sans-serif">from the Noun Project</text></svg>