<svg xmlns:inkscape="http://www.inkscape.org/namespaces/inkscape" xmlns:sodipodi="http://sodipodi.sourceforge.net/DTD/sodipodi-0.dtd" xmlns="http://www.w3.org/2000/svg" xmlns:svg="http://www.w3.org/2000/svg" viewBox="0 0 6.350006 7.937507625" version="1.1" xml:space="preserve" x="0px" y="0px"><g transform="translate(0,-345.28125)"><path style="color:#000000;paint-order:stroke fill markers;" d="m 3.1750036,345.81042 c -0.14091,0 -0.282021,0.0443 -0.400493,0.13333 -0.111818,0.084 -0.248707,0.13074 -0.388606,0.13074 h -0.136426 a 0.13227202,0.13217724 0 0 0 -0.132809,0.13074 v 0.13384 h -0.468705 c -0.315156,0 -0.589627,0.2273 -0.589628,0.52917 v 3.70468 c 0,0.30187 0.274472,0.52917 0.589628,0.52917 h 3.054077 c 0.315158,0 0.589628,-0.2273 0.589628,-0.52917 v -3.70468 c 0,-0.30187 -0.27447,-0.52917 -0.589628,-0.52917 h -0.468705 v -0.13384 a 0.13227202,0.13217724 0 0 0 -0.132808,-0.13074 h -0.136426 c -0.139898,0 -0.276788,-0.0468 -0.388607,-0.13074 -0.118471,-0.089 -0.259582,-0.13333 -0.400492,-0.13333 z m -0.01602,0.2651 c 0.0904,-0.004 0.182022,0.0238 0.258382,0.0811 0.157622,0.11843 0.349536,0.18139 0.546737,0.18139 h 0.0036 v 0.13384 0.13126 h -1.585433 v -0.13126 -0.13384 h 0.0036 c 0.195722,0 0.386172,-0.0631 0.543119,-0.17984 a 0.13227202,0.13217724 0 0 0 0.0036,-0.002 v 5.1e-4 c 0.06738,-0.0506 0.146583,-0.078 0.226343,-0.0811 z m -1.511019,0.5271 h 0.468705 v 0.13333 a 0.13227202,0.13217724 0 0 0 0.132809,0.1328 h 1.85105 a 0.13227202,0.13217724 0 0 0 0.132808,-0.1328 v -0.13333 h 0.468705 c 0.192119,0 0.324012,0.12762 0.324012,0.26562 v 3.70468 c 0,0.13798 -0.131893,0.26562 -0.324012,0.26562 h -3.054077 c -0.19212,0 -0.324011,-0.12764 -0.324011,-0.26562 v -3.70468 c 0,-0.138 0.131891,-0.26562 0.324011,-0.26562 z" fill="#000000" fill-opacity="1" stroke="none"/></g><text x="0" y="6.3500061" fill="#000000" font-size="0.5px" font-weight="bold" font-family="'Helvetica Neue', Helvetica, Arial-Unicode, Arial, Sans-serif">Created by Mol Media</text><text x="0" y="6.8500061" fill="#000000" font-size="0.5px" font-weight="bold" font-family="'Helvetica Neue', Helvetica, Arial-Unicode, Arial, Sans-serif">from the Noun Project</text></svg>