<svg xmlns="http://www.w3.org/2000/svg" viewBox="0 0 96 120" x="0px" y="0px"><title>education 50</title><g data-name="Layer 51"><path d="M85.55,8.91l7.64,21L87.42,32,79.79,11Zm-.2,23.36h-5V18.54Zm-13.17,0V29.8h6.13v2.47Zm-8.17,0V29.8h6.13v2.47Zm-8.18,0V29.8H62v2.47Zm-12.26,0V29.8H53.79v2.47Zm10.22-4.51H43.57v-2H53.79ZM64,15h6.13V27.76H64Zm14.3,12.77H72.18V15h6.13ZM62,15V27.76H55.83V15ZM43.57,5.88H53.79V23.67H43.57Zm-2,9.11V32.27H35.39V15ZM27.22,32.27V20.52h6.13V32.27Zm-8.18,0V20.52h6.14V32.27ZM10.87,16.44H17v2H10.87Zm8.17,0h6.14v2H19Zm14.31,2H27.22v-2h6.13Zm0-4.09H27.22V10h6.13Zm-8.17,0H19V10h6.14ZM17,10v4.44H10.87V10ZM10.87,20.52H17V32.27H10.87Zm7.84,24.13a1,1,0,0,1-2.05,0V38.41h2.05Zm61.48,0a1,1,0,0,1-2,0V38.41h2Zm13.28-8.29H2.53v-2H93.47ZM86.32,76.73h-2V59.44h2ZM82.23,59.44V76.73H80.36V59.44Zm-10-6.74h6.13v24H72.18v-24ZM64,76.73V63.53h6.13v13.2Zm-8.18,0V63.53H62v13.2ZM70.14,61.48H64v-2h6.13Zm-8.18-2v2H55.83v-2Zm-8.17-1V76.73H49.7V50.33h4.09ZM43.57,50.33h4.09v26.4H43.57Zm-2,9.11V76.73H35.39V59.44ZM27.22,76.73V73.79h6.13v2.94Zm-8.18,0V73.79h6.14v2.94Zm-8.17,0V73.79H17v2.94ZM19,54.4h6.14v4.44H19Zm6.14,6.49v2H19v-2Zm8.17,10.85H27.22V65h6.13ZM10.87,65H17v6.77H10.87ZM19,65h6.14v6.77H19Zm14.31-2H27.22v-2h6.13ZM17,62.93H10.87v-2H17Zm16.35-4.09H27.22V54.4h6.13ZM17,54.4v4.44H10.87V54.4ZM6.61,60.89H8.82V76.73H6.61ZM18.71,89.1a1,1,0,1,1-2.05,0V82.86h2.05Zm61.48,0a1,1,0,1,1-2,0V82.86h2Zm13.28-8.29H2.53v-2H93.47Z"/></g><text x="0" y="111" fill="#000000" font-size="5px" font-weight="bold" font-family="'Helvetica Neue', Helvetica, Arial-Unicode, Arial, Sans-serif">Created by agus raharjo</text><text x="0" y="116" fill="#000000" font-size="5px" font-weight="bold" font-family="'Helvetica Neue', Helvetica, Arial-Unicode, Arial, Sans-serif">from the Noun Project</text></svg>