<svg xmlns="http://www.w3.org/2000/svg" viewBox="0 0 512 640" x="0px" y="0px"><path d="M494.91,227.969l-56-96a8,8,0,0,0-4.806-3.687l-176-48a7.97,7.97,0,0,0-4.208,0l-176,48a8,8,0,0,0-4.806,3.687l-56,96a8,8,0,0,0,.931,9.345L80,307.041V328c0,28.637,18.906,55.211,53.236,74.828C166.157,421.64,209.756,432,256,432s89.843-10.36,122.764-29.172C413.094,383.211,432,356.637,432,328V307.041l61.979-69.727A8,8,0,0,0,494.91,227.969ZM208.027,264.664a8,8,0,0,0,5,6.764l40,16a8,8,0,0,0,5.942,0l40-16a8,8,0,0,0,5-6.764l.642-7.7c63.556,2.611,98.734,9.94,111.385,13.124v19.831C400.421,293.827,350.791,304,256,304c-94.806,0-144.438-10.177-160-14.086V270.07c12.591-3.188,47.562-10.5,111.385-13.111ZM216.694,176h78.612l-6.868,82.408L256,271.384l-32.438-12.976ZM416,321.914C400.421,325.827,350.791,336,256,336c-94.806,0-144.438-10.177-160-14.086v-15.5C116.071,311.116,165.907,320,256,320s139.929-8.884,160-13.587Zm-45.175,67.023C340.283,406.389,299.505,416,256,416s-84.283-9.611-114.825-27.063c-24.508-14-39.749-31.545-43.971-50.245C118.022,343.458,167.655,352,256,352s137.978-8.542,158.8-13.308C410.574,357.392,395.333,374.932,370.825,388.937Zm55.7-132.527c-1.507-.5-36.669-11.927-120.585-15.414l6.028-72.332A8,8,0,0,0,304,160H208a8,8,0,0,0-7.973,8.664L206.055,241C122.139,244.483,86.977,255.908,85.47,256.41A8,8,0,0,0,80,264v18.959L41.815,240H88V224H37.928L81.91,148.6,170.594,229.9,181.406,218.1,96.1,139.9,248,98.474V144h16V98.474L415.9,139.9l-85.309,78.2L341.406,229.9,430.09,148.6,474.072,224H424v16h46.185L432,282.959V264A8,8,0,0,0,426.53,256.41Z"/><rect x="232" y="192" width="48" height="16"/><rect x="248" y="224" width="16" height="16"/><text x="0" y="527" fill="#000000" font-size="32px" font-weight="bold" font-family="'Helvetica Neue', Helvetica, Arial-Unicode, Arial, Sans-serif">Created by Nhor</text><text x="0" y="562" fill="#000000" font-size="32px" font-weight="bold" font-family="'Helvetica Neue', Helvetica, Arial-Unicode, Arial, Sans-serif">from the Noun Project</text></svg>