<svg xmlns="http://www.w3.org/2000/svg" data-name="Layer 5" viewBox="0 0 500 625" x="0px" y="0px"><path d="M137.33,341.434c2.532,5.491,10.306-.414,6.261-4.606C140.484,333.727,135.646,337.651,137.33,341.434Z"/><path d="M380.9,337.656c-2.534-4.353-9.086-.535-6.559,3.834A3.807,3.807,0,1,0,380.9,337.656Z"/><path d="M375.867,411.9c-2.389-5.378-10.125-.182-6.091,4.105C372.479,418.959,377.607,415.494,375.867,411.9Z"/><path d="M140.271,110.6c-3.568-3.536-9.121,1.8-5.562,5.434C138.348,119.629,143.844,114.275,140.271,110.6Z"/><path d="M155.08,55.792c-2.648-2.869-7.814.06-6.489,3.778C150.6,65.734,159.45,60.581,155.08,55.792Z"/><path d="M168.815,30.261c3.516,3.581,9.026-1.961,5.46-5.46C170.656,21.259,165.292,26.664,168.815,30.261Z"/><path d="M366.116,116.078c4.847,4.321,10.043-4.451,3.789-6.459l.038,0C366.245,108.42,363.275,113.419,366.116,116.078Z"/><path d="M353.535,64.246c3.741,3.844,9.45-2.648,5.166-5.837C355.077,55.4,350.081,60.977,353.535,64.246Z"/><path d="M334.314,32.516c3.619,3.541,8.983-1.864,5.46-5.461C336.258,23.474,330.748,29.017,334.314,32.516Z"/><path d="M263.081,109.267c-4.237-14.964-25.331-1.165-11.693,7.7-.185,2.761-.2,5.534-.169,8.3.051,4.8,7.259,4.776,7.437,0,.112-2.81.117-5.59.3-8.4A7.352,7.352,0,0,0,263.081,109.267Z"/><path d="M491.875,471.786c-5.593-3.816-14.575-1.758-20.958-2.77,14.55-17.107-12.242-22.723-22.832-31.153,14.012-6.133,18.339-8.764,8.63-23.2-2.983-4.113-5.664-6.686-10.778-4.31a93.637,93.637,0,0,0-14.645,8.533c2.4-29.583,3.693-59.27,4.218-88.922a18.553,18.553,0,0,0,5.41-8c13.788.67,21.931-17.441,13.2-27.877,8.747-8.609,4.354-25.49-7.344-28.461,15.207-6.286,18.4-18.411,19.459-33.557.343-5.446-6.058-9.329-9.806-12.665-4.665-4.154-9.511-8.1-14.447-11.923-4.287-3.322-8.642-6.552-13.023-9.746-3.62-2.639-9.527-8.849-14.116-8.622a65.628,65.628,0,0,0-11.7,1.969c11.15-21.753,25.913-41.457,38.372-62.25a148.823,148.823,0,0,0-.207-23.406c-.268-2.617.147-6.654-1.805-8.963-42.5-23.8-32.585-67.111-92.288-78.444C337.178,10.555,323.807,7.17,311.259,7.052c-5.279-.448-10.635-.676-13.331,4.784a862.876,862.876,0,0,0-89.493,0c-2.231-3.9-5.775-5.252-10.206-4.785-13.763-.315-27.964,2.859-39.261,10.955C103.93,28.768,109.287,65.033,75.327,91.18c-7.6,4.14-10.539,4.785-10.247,14.252-.028,5.081-2.507,24.647,1.895,26.7C75.7,146.4,85.76,159.82,94.324,174.2c-6.077-3.892-11.948-9.3-19.627-7.708-25.361,7.07-42.557,50.085-39.033,74.5.38,3.337,1.737,6.424,4.544,8.2,11.765,11.56,27.044,20.032,43.428,22.116C81.81,308.968,82.712,346.817,85,384.481c-14.909-4.525-25.5,15.592-13.573,25.5a18.712,18.712,0,0,0-5.356,12.568c-8.17,1.77-5.8,10.733-4.01,16.543-5.649,1.493-11.381,4.466-11.355,11.128-.069.027-.149.061-.209.087.215-.176-.489.037-.594.095-1.86-5.942-3.619-16.641-12.073-13.7-7.9,2.822-15.62,7.391-22.644,11.936-3.73,2.414-12.795,7.3-8.086,12.627A43.8,43.8,0,0,0,11.5,472.8c2.572,3.778,7.1-.537,10.1-1.634C23.7,487.213,36.373,483.735,47.8,481.4c6.11-1.126,13.808-1.694,18.881-5.622,1.638,5.774,8.782,5.774,13.642,5.908,8.122-.055,23.964,1.217,29.846-4.646q11.371.407,22.743.807c3.428,5.791,10.93,5.408,18.034,5.768,7.321-.514,21.911,3.842,26.483-2.316,54.189,1.588,108.591.636,162.738-1.541,5,8.76,19.459,3.357,27.847,3.834,6.256-.318,14.3.531,17.773-5.717l12.8-.5c1.178,3.491,3.888,4.442,7.544,4.886,12.861,1.1,26.528,2.191,39.206-.181-.113,10.717,8.337,9.817,16.139,10.043,7.107.513,14.612,1.417,21.728.86,4.958-.388,8.076-2.93,9.4-7.716C493.742,481.169,495.932,474.956,491.875,471.786Zm-94.14-6.061c.042,1.8-.324,3.593-.169,5.448l-10.031.4c2.072-17.411,4.212-34.772,5.62-52.249q15.906.09,31.814-.019-1.552,19.227-3.757,38.382C413.51,458.461,399.869,455.615,397.735,465.725ZM113.1,465.547c-.534-7.5-9.411-8.338-15.341-9.026q-.9-7.646-1.7-15.305a13.149,13.149,0,0,0,6.108-4.256c6.542,5.738,18.633,3.181,24.532-2.4,1.181,12.386,2.568,24.76,4.378,37.052q-9.129-.4-18.259-.8A22.013,22.013,0,0,0,113.1,465.547ZM52.208,250.874c22.778-5.327,40.477-48.453,39.6-70.048,7.6,3.6,6.078,10.584,4.629,17.606-4.784,20.643-17.023,49.754-39.082,56.17C55.6,253.417,53.892,252.158,52.208,250.874Zm358.816-40.248c8.483-.27,18.623-5.515,25.629,1.637-1.867,8.876-2.994,18.079-7.164,26.3-5.844-4.916-11.445-10.137-17.534-14.748-2.76-2.09-6.094,2.411-3.662,4.746,9.772,8.556,19.305,20.132,32.373,23.274-7.7,7.464-19.025,10.64-29.594,10.805,4.963-2.326,11.29-5.3,14.752-9.491,1.619-1.959.158-5.338-2.633-4.524-7.948,2.985-14.725,9.594-23.243,11.385a33,33,0,0,1-8.788-6.311c2.638-12.795,5.868-25.217,13.216-36.143a2.837,2.837,0,0,0,.5-3.758c-2.918-4.708-5.89-9.355-8.885-14.019a175.86,175.86,0,0,1,18.9-3.632q4.142,3,8.271,6.009c-4.974.269-9.886,1.6-13.307,4.162A2.336,2.336,0,0,0,411.024,210.626Zm36.848,10.719c6.768,7.276,1.823,17.73-2.563,24.818a35.254,35.254,0,0,1-10.544-3.618c3.706-7.521,7.413-17.03,7.679-25.7Q445.185,219.062,447.872,221.345ZM89.959,274.78l31.474,0c-1.187,20.857-1.274,41.821-.721,62.765-10.424,0-20.848-.006-31.272.043C88.953,316.638,89.064,295.684,89.959,274.78ZM179.418,97.766q26.112-1,52.232-1.431c-23.519,27.554,7.99,30.944-59.973,25.518-2.264-8-.471-15.741-.45-23.763C173.95,97.959,176.7,97.9,179.418,97.766ZM386.559,245.187c-1.45-13.694,1.075-27.827,4.562-41.069q3.819,6.079,7.733,12.105C391.214,223.833,389.169,235.123,386.559,245.187Zm2.3,58.23c.245-13.955,19.768-13.953,20.011,0C408.628,317.371,389.105,317.369,388.862,303.417ZM134.546,389.5c13.144.239,13.142,20.992,0,21.23C121.4,410.485,121.4,389.732,134.546,389.5ZM145.268,268.3c-7.216-4.582-14.83-9.276-23.389-10.667a36.474,36.474,0,0,0,6.047-10.061c5.75,8.805,14.352,15.213,23.325,20.729Zm283.341,6.412q.493,11.656.642,23.322a17.31,17.31,0,0,0-13,1.121,18.175,18.175,0,0,0-14.274-13.93,19,19,0,0,0,1.925-10.389C412.128,274.58,420.374,274.779,428.609,274.714ZM157.924,353.071c.245-13.954,19.768-13.952,20.011,0C177.69,367.026,158.167,367.024,157.924,353.071ZM362.613,264.23c-4.672,1.551-9.743,1.99-14.542,3.055-1.817-2.077-1.727-5.307-3.2-7.66,6.87-3.25,13.431-6.655,20.875-8.822,7.513-2.61,12.6-4.5,14.157,5.371C373.992,258.465,368.744,262.194,362.613,264.23ZM188.755,279.357c-13.144-.24-13.142-20.993,0-21.23C201.9,258.367,201.9,279.119,188.755,279.357Zm85.74-54.081c-8.071,2.186-15.905,3.854-24.2,3.368-12.025.053-12.093-6.737-2.884-12.708,7.832-4.628,17.1-5.16,25.813-5.138C282.165,213.763,285.24,221.443,274.5,225.276ZM182.823,236.92c4.659.707,22.327,4.745,10.287,9.545-10.68,4.669-24.419,5.015-34.6-1.087C148.771,236.516,178.347,235.517,182.823,236.92Zm25.321-57.662c6.78,3.4,11.708,8.961,16.781,14.344,2.461,3.9,5.574,13-1.868,13.332a36.69,36.69,0,0,1-18.339-7.217c-5.075-3.824-16.616-16.313-7.474-21.754C200.611,175.807,205.04,177.373,208.144,179.258ZM313.193,180.5c-2.262,10.221-29.55,7.866-37.01,4.674C269.953,170.347,310.356,170.387,313.193,180.5Zm-79.706,49.149c-.835,1.295.118,3.855-.568,5.316,1.281,3.2-13.137,1.473-15.339,1.753-4.194-.172-13.457.145-15.916-3.143.291-11.269,24.97-6.327,31.822-3.944Zm42.371-36.5c-.044,5.364-1.486,9.232-7.364,8.149-5.274-.313-10.544-.877-15.769-1.662-4.921-.74-9.827-1.645-14.676-2.767-2.833-.655-2.525-1.154-1.53-4a15.591,15.591,0,0,1,3.657-5.534A195.873,195.873,0,0,1,275.858,193.142ZM193.17,212c2.375-.852,6.914-2.927,9.473-2.591,1.828.24,1.779,1.165,2.515,3,.432,1.081,1.646,3.023,1.9,4.562-7.939,4.077-16.635,6.664-24.679,10.452-1.411-2.388-2.373-5.008-3.718-7.417C182.662,216.109,188.094,214.088,193.17,212ZM294.2,199.953a3.26,3.26,0,0,0,.927-2.344c.007,1.158,18.117,1.88,20.367,2.05,4.727.716,18.789-1.319,12.04,7.166-7.422,1.426-15.526,1-23.124,1.04C297.038,207.683,293.189,209.8,294.2,199.953Zm70.346-5.46c-6.177,2.519-24.65,10.445-24.146-1.808a69.71,69.71,0,0,1,22.876-8.5c3.063-.4,4.968,1.184,5.757,4.336C369.954,192.192,367.465,193.1,364.549,194.493Zm-200.984,9.142a8.718,8.718,0,0,1-5.292,2c-8.884-5.7-2.527-17.71-2.13-26.05,3.408,4.79,7.8,9.02,11.092,13.89C170.451,197.044,166.615,201.2,163.565,203.635Zm3.848,5.474c13.456-10.292,7.405-17.089-1.294-27.5,8.617,4.9,23.571,6.857,22.8,19.519-2.7-1.456-10.038-5.958-9.768.278.928,2.792,4.952,3.8,7.115,5.4a48.718,48.718,0,0,0-10.244,5.491C173.515,210.911,170.161,210.478,167.413,209.109Zm-.605,107.128c.065.027.128.058.194.081-.056.081-.12.157-.174.24Zm20.049-7.777c-13.144-.24-13.142-20.992,0-21.23C200,287.47,200,308.222,186.857,308.46Zm53.108-61.04a24.905,24.905,0,0,1,1.785-9.218,145.358,145.358,0,0,1,24.9,9.494c6.33,2.51,7.59,5.632,3.246,11.191.6-.164-2.231-1.285-2.726-1.468C258.105,254.082,249.061,250.68,239.965,247.42Zm42.881-9.147c-7.307,4.938-7.333,5.484-10.449-3.94,5.219-2.626,34.112-19.532,34.343-16.685a31.879,31.879,0,0,0,1.008,5.331C299.635,228.376,291.342,233.5,282.846,238.273Zm47.924-17.134c2.033-3.108,6.363-10.134,10.943-13.056a180.483,180.483,0,0,0-2.067,26.249c-5.064-.229-9.949-1.66-14.759-3.136A70.436,70.436,0,0,1,330.77,221.139Zm50.045-1.017a4.12,4.12,0,0,1-4.645.653,27.045,27.045,0,0,0-4.11-4.106c-1.417-2.459-3.747-2.393-2.746-5.434,1.417-4,2.943-12.68,8.906-9.2,2.953,1.459,3.4,4.033,4.6,6.778C381.987,212.526,381.32,216.305,380.815,220.122ZM145.724,224.61a81.585,81.585,0,0,1,8.818-5.22c5.112-2.757,11.015-6.721,13.177,1.2.734,2.979-1.3,3.87-3.466,5.383q-4.557,3.185-9.223,6.207t-9.447,5.853c-2.367,1.406-7.919,5.807-11.241,5.385C128.692,236.2,140.864,227.916,145.724,224.61Zm178,15.111a6.06,6.06,0,0,1-.426-2.353c5.608,2.859,13.362,3.326,19.137,3.538a3.674,3.674,0,0,0,3.741-3.546,216.127,216.127,0,0,1,2.024-29.8c7.238,5.2,14.662,10.542,21.354,16.4-4.515,5.16-13.238,5.592-17.312,10.942a2.4,2.4,0,0,0,1.416,3.479c6.477,1.2,13.065-4.862,18.578-7.8-.416,4.154-1.883,8.194-3.076,12.19a89.232,89.232,0,0,0-22.482,7.97c-.177-3.119-1.461-10.391-5.646-6.176-1.841,2.8-.46,6.588-.215,9.7q-.9.62-1.764,1.268C335.355,249.077,329.489,244.226,323.719,239.721ZM171.6,326.948c.244-13.954,19.767-13.952,20.01,0C191.365,340.9,171.843,340.9,171.6,326.948Zm125.336-85.356c9.32-13.26,50.387,21.2,32.521,25.543a17.5,17.5,0,0,1-5.633-.595C315.123,262.082,291.541,254.783,296.936,241.592Zm-17.851-105.53c-15.686-.278-31.372-.592-47.057-.852-3.441-8.153-2.027-18.019.787-26.558A24.4,24.4,0,0,1,249.878,96.7C276.865,92.989,283.313,112.576,279.085,136.062ZM161.46,376.876c-.245,13.955-19.768,13.953-20.01,0C141.694,362.922,161.217,362.924,161.46,376.876Zm47.8-108.576c-1.587-5.624.422-7.335,5.777-7.96a77.477,77.477,0,0,1,13.3-1.962,80.161,80.161,0,0,1,12.559.24c3.428.341,4.682-.1,4.941,3.516a14.289,14.289,0,0,1-.481,5.289,3.452,3.452,0,0,0-1.392.881Zm88.463.01c-6.391-4.75-12.419-9.843-7.378-18.194,2.8,8.266,11.706,14.281,20.69,18.195Zm88.393-2.2c13.144.24,13.143,20.993,0,21.23C372.969,287.105,372.971,266.352,386.113,266.114Zm38,60.238c-13.144-.239-13.142-20.992,0-21.23C437.254,305.362,437.252,326.115,424.109,326.352ZM335.423,98.1c3.833,4.995,3.9,18.6,1.563,24.123-6.078,2.857-15.378,1.346-21.324,1.233-4.655-.088-9.3-.281-13.952-.534-5-.187-11.168.412-14.022-4.486-.669-8.537-3.34-16.668-10.055-22.049Q306.538,96.9,335.423,98.1ZM127.666,274.774l27.77,0c-1.218,21.532-.673,43.4.171,64.941a18.986,18.986,0,0,0-4.786,18.711c-11.274.2-19.743,12.129-16.621,23.219a17.252,17.252,0,0,0-5.039.842Q126.166,328.659,127.666,274.774ZM121.32,416.318c-.245,13.954-19.768,13.952-20.01,0C101.554,402.364,121.077,402.366,121.32,416.318Zm79.837-102.5c8.411-4.232,10.136-17.478,5.621-24.991a27.865,27.865,0,0,0,5.67-14.056q68.355-.027,136.71-.023,1.361,30.5.726,61.144c-48.445.963-96.916.774-145.367,1.141C208.607,329.372,206.875,320.766,201.157,313.819Zm202.1,10.027c.3,5.816,5,11.125,10.728,13.7q-8.185-.007-16.37,0,.135-6.125.208-12.249A18.231,18.231,0,0,0,403.255,323.846Zm-5.791,20.008c10.467.056,20.935.066,31.4-.028-.586,23.091-1.673,46.189-3.413,69.231-10.587-.047-21.175-.042-31.762-.041Q396.52,378.5,397.464,343.854ZM327.435,91.307c-26.462-.8-53.069-2.367-79.456-1.421-23.6-.281-47.218.477-70.8,1.5a10,10,0,0,1-6.393-4.18A83.732,83.732,0,0,1,175.3,62.385c52.283-1.8,104.676-1.248,156.934,1.02C335.814,74.919,338.445,89.745,327.435,91.307ZM77.569,249.6a101.327,101.327,0,0,0,26.354-59.188,81.16,81.16,0,0,1,9.38,10.19c1.6,8.889-16.237,12.584-10.27,24.3-6.076,1.739-9.439,10.835-5.915,16.366-14.785-.5-10.621,16.484-18.463,22.738a61.513,61.513,0,0,1-13.872-5.1C69.739,256.724,74.367,252.812,77.569,249.6Zm26.683-18.267c4.3-2.805,8.805,2.944,6.511,7.01C105.886,244.724,98.206,236.152,104.252,231.328ZM87.918,259.822c1.575-4.941,4.2-16.657,11.5-11.452,2.933,2.931.239,8.05-3.483,4.942-1.719-1.436-5.349-.131-4.279,2.491,5.4,10.944,19.253.529,13.82-8.927,9.813,1.058,16.1-11,9.723-18.315,4.958-2.2,7.943-8,2.76-12.986-2.489-2.395-6.282,1.386-3.795,3.8,3.64,3.528-7.605,9.022-6.382.2,1.477-5.293,7.8-7.562,9.733-12.741,17.06,26.6.9,62.2-32.727,58.189A19.93,19.93,0,0,0,87.918,259.822ZM120.9,343.855c.455,14.112,1.175,28.208,2.012,42.25a18.662,18.662,0,0,0-6.172,12.6c-8.562-3-18.329,1.847-21.7,10.018A18.016,18.016,0,0,0,93,407.284c-1.594-21.1-2.792-42.27-3.4-63.458C100.033,343.919,110.465,343.91,120.9,343.855Zm-36.977,68.71c13.144.239,13.142,20.992,0,21.229C70.775,433.555,70.777,412.8,83.919,412.565Zm87.263-21.731a22.155,22.155,0,0,0,4.4-17.663c12.75.236,20.619-14.954,17.184-26.368a12.37,12.37,0,0,0,7.113-3.5c49.957-.359,99.918-.479,149.871-1.258-.574,23.142-1.9,46.282-3.826,69.333-57.715,1.156-115.462.823-173.184,1.341Q171.866,401.783,171.182,390.834Zm291.279,64.919c4.92,1.866,6.469,4.854,2.456,8.848-3.2,2.873-8.651-.461-12.089-1.877-4.175-1.72-8.293-3.573-12.375-5.5-1.523-.721-9.4-3.607-9.686-4.807.312-2.368,2.362-5.777,3.691-7.772,5.062-5.323,12.2,2.317,17.093,4.611C455.22,451.365,458.843,453.556,462.461,455.753ZM412.19,83.881a70.729,70.729,0,0,0,12.89,11.9c-7.955-.63-15.92-1.169-23.876-1.738-4.1-.294-4.1,6.118,0,6.4,10.774.734,21.546,1.6,32.328,2.223-.063,5.448.409,11.07-1.1,16.384-4.422,2.681-10.957,1.228-16.01,1.373-7.126-.148-14.558-1.071-21.753-.877.582-33.53-9.14-16.205-17.576-53.147,7.985.132,15.954.5,23.928.955C404.484,73.034,407.911,78.731,412.19,83.881ZM394.715,57.5c.815,1.169,1.6,2.356,2.376,3.551-7.32-.652-14.733-.76-22.066-.87-4.139-11.189-9.32-22.759-16.911-31.845C373.657,32.791,385.92,44.3,394.715,57.5ZM351.9,30.916c8.633,10.017,13.652,22.593,18.07,34.91,2.945,9.161,4.738,18.887,9.987,27.11A98.023,98.023,0,0,0,355,92.388c-2.517.313-3.652,4.235-.658,4.863a83.949,83.949,0,0,0,13.813,1.27c13.265-.334,18.549-.376,18.972,14.712.366,3.575,2.05,10.358-2.306,11.96l-28.91,0c-2.481-.633-4.879-1.227-5.69-4.354-1.827-37.39-3.84-85.907-41.277-106.007a2.683,2.683,0,0,1,.9-1.028C325.445,13.4,341.466,19.017,351.9,30.916ZM253.194,16.783c14.886.18,29.771.572,44.628,1.554C314.357,27.4,324.7,39.072,330.2,57.4q-76.212-3.876-152.579-1.342c6.323-13.85,15.455-31.692,30.235-37.671C222.95,17.365,238.072,16.966,253.194,16.783Zm-61.056-2.918c1.444-.079,2.891-.107,4.338-.109a2.809,2.809,0,0,1,.9.976c-37.214,20.3-40.06,68.619-41.213,106.111-.8,3.131-3.194,3.726-5.671,4.354l-28.929,0c-4.356-1.6-2.674-8.385-2.307-11.96.428-15.1,5.714-15.041,18.973-14.711a84.079,84.079,0,0,0,13.813-1.271c2.97-.623,1.882-4.547-.659-4.863a98.01,98.01,0,0,0-24.969.549c6.229-9.99,8.33-21.794,12.2-32.845C146.545,35.772,164.639,14.026,192.138,13.865Zm-59.5,21.759a65.61,65.61,0,0,1,15.131-7.119c-6.515,8-10.733,17.531-14.659,27-6.946.288-13.938.559-20.87,1.194C117.819,48.794,124.513,40.958,132.64,35.624ZM94.2,83.881c5.358-6.449,9.394-13.749,13.826-20.81,7.591-.475,15.178-.953,22.776-1.292-3.666,10.946-5.333,23.079-13.061,32.141-8.124,7.6-5.772,19.713-6.042,29.907-10.322-.681-20.18-.125-30.283-1.127-3.573-.22-6.818-.057-9.586-1.933a136.72,136.72,0,0,1,.828-18.089c10.849-.62,21.688-1.5,32.528-2.235,4.088-.279,4.112-6.692,0-6.4-7.956.569-15.92,1.108-23.876,1.738A70.729,70.729,0,0,0,94.2,83.881ZM63.888,180.45c4.54-5.09,16.268-12.592,20.346-3.1-21.051,4.059-38.995,48.344-33.7,67.386-11.386,2.245-8.531-10.869-7.765-17.855C45.217,210.223,51.952,192.974,63.888,180.45ZM57.7,448.936c4.813-5.752,23.534-6.378,30.869-6.06.065,2.856,1.646,7.548-1.1,9.232-9.536,3.04-20.308,2.128-30.17,3.416C57.194,453.225,56.865,450.858,57.7,448.936Zm-39.735,6.242c7.095-4.314,14.07-8.5,21.836-11.646a38.035,38.035,0,0,1,2.847,7.869c-9.4,4.083-17.668,11.046-27.046,15.367-1.208-2.542-2.2-5.16-3.378-7.716C13.644,457.425,16.48,456.126,17.968,455.178Zm28,19.563q-4.858.852-9.763,1.4c-4.409,1.243-7.688-1.21-7.386-6.242,8.876-2.36,17.687-5.43,26.941-6.072,3.189-.324,6.95-1.475,7.567,2.554C64.352,473.088,50.4,473.965,45.967,474.741ZM104.79,471.8c-3.489,3.537-19.992,2.766-25.383,2.766-8.017.618-7.179-2.173-7.76-9.794C78.218,466.562,111.106,458.081,104.79,471.8Zm40.4,5.316c-3.528-.183-6.476.079-7.673-4.118-1.376-4.831-1.389-10.62-1.98-15.615-1.2-10.619-2.464-21.284-3.211-31.925,13.012,3.743,24.546-8.534,27.2-20.319,1.91,22.727,4.349,45.512,8,68a6.876,6.876,0,0,1-3.191,4.974Zm174.435-2.779c-46.755.916-93.537,1.416-140.295.568-2.148-18.742-4.636-37.147-6.077-55.936,57.382-.573,114.77-.54,172.149-1.439-1.436,18.816-4.022,37.467-6.215,56.159C332.65,474.022,326.166,474.194,319.628,474.336Zm59.022,2.053c-7.737,1.625-16.221,1.1-24.195,1.869a6.8,6.8,0,0,1-3.481-5.146c9.3-63.423,14.125-127.821,12.42-191.942,1.643,6.835,8.063,13.563,14.784,15.344-6.713,10.665.394,26.83,13.172,28.56a1285.774,1285.774,0,0,1-9.256,139.438C381.654,468.007,382.149,474.482,378.65,476.389Zm40.563,0A100.371,100.371,0,0,1,408,475.769c-3.52-.523-3.646-.96-3.866-4.478-.035-.553-.223-4.43-.228-5,2.744-1.516,6.12-1.278,9.357-1.357,8.232.119,16.93-.628,25.06.812,2.982.824,3.513,1.512,4.053,4.365.27,1.453.566,4.971-.953,5.978Q430.329,476.743,419.213,476.39Zm61.82,9.4c-9.148-.245-18.875.083-28.054-1.367a49.9,49.9,0,0,1-.381-8.991c11.212,1,22.932,1.035,33.961,2.342C486.628,481.662,485.435,485.441,481.033,485.786Z"/><text x="0" y="515" fill="#000000" font-size="32px" font-weight="bold" font-family="'Helvetica Neue', Helvetica, Arial-Unicode, Arial, Sans-serif">Created by Maxicons</text><text x="0" y="540" fill="#000000" font-size="32px" font-weight="bold" font-family="'Helvetica Neue', Helvetica, Arial-Unicode, Arial, Sans-serif">from the Noun Project</text></svg>