<svg xmlns="http://www.w3.org/2000/svg" data-name="Layer 1" viewBox="0 0 100 125" x="0px" y="0px"><path d="M60.44,50.81h0a1.5,1.5,0,0,0-1-.33h-.21a1.55,1.55,0,0,0-1,.62l-3.92,5.3a1.41,1.41,0,0,0-.25,1.09,1.4,1.4,0,0,0,2.53.54l0,0,4.07-5.37h0a1.29,1.29,0,0,0-.24-1.82Z"/><path d="M41.58,49.51l2.18-1.09a2.18,2.18,0,0,1,1.68-.11,2.11,2.11,0,0,1,1,.65l3.16-4.14a1.7,1.7,0,0,0-2.64-2.15L42,48.43a1.91,1.91,0,0,0-.44,1.08Z"/><path d="M55.44,60A2.71,2.71,0,0,1,54,59.53a2.76,2.76,0,0,1-1.17-1.64,3,3,0,0,1-1.35.32,3,3,0,0,1-1.57-.45,2.49,2.49,0,0,1-.31-.23,12.18,12.18,0,0,1,.26,3.62.68.68,0,0,1-.66.6h-.07a.68.68,0,0,1-.6-.73,9.09,9.09,0,0,0-1-5.13h-.07a3.14,3.14,0,0,1-1.86-.61,3,3,0,0,1-.42-.38l-.78.83A4.06,4.06,0,0,1,42.2,57a.67.67,0,0,1-.29-1.3,2.81,2.81,0,0,0,1.45-.82l2-2.12a2.06,2.06,0,0,0,.35-2.3L45.5,50a.86.86,0,0,0-1.15-.39l-5.44,2.71a1.48,1.48,0,0,0-.76,1.74l1.49,5.29a4.74,4.74,0,0,0,1.46,2.28l4.77,4.13a.67.67,0,0,1,.23.5v4.92H57.41V65.75a.66.66,0,0,1,.11-.36,12.72,12.72,0,0,0,1.9-5v0l.94-5.06L57.68,58.8A2.73,2.73,0,0,1,55.44,60Z"/><path d="M47.06,50.27a3.37,3.37,0,0,1-.75,3.35l-.29.31a2,2,0,0,0,.3.28,1.79,1.79,0,0,0,2.5-.35l.08-.1a2.92,2.92,0,0,1,.21-.32l4.43-5.7a1.8,1.8,0,0,0-.41-2.49,1.78,1.78,0,0,0-2.5.35l-3.57,4.67Z"/><path d="M49.84,55.54a1.56,1.56,0,0,0,.74,1.09,1.63,1.63,0,0,0,2.18-.4l4.45-6a1.55,1.55,0,0,0-2.47-1.87l-.14.18-.06.08L50,54.5a1.69,1.69,0,0,0-.16,1Z"/><path d="M50,38.54a.67.67,0,0,0,.67-.66V29.49a.67.67,0,1,0-1.33,0v8.39a.67.67,0,0,0,.66.66Z"/><path d="M41.54,40.93a.66.66,0,0,0,.58-1L38,32.64a.66.66,0,0,0-.9-.26.67.67,0,0,0-.25.91L41,40.6a.67.67,0,0,0,.58.33Z"/><path d="M35.83,45.8l-7.18-4.34a.66.66,0,0,0-.91.23.66.66,0,0,0,.22.91l7.18,4.34a.72.72,0,0,0,.34.09.65.65,0,0,0,.57-.32.66.66,0,0,0-.22-.91Z"/><path d="M34,54.71a.66.66,0,0,0-.68-.65l-8.39.2a.67.67,0,0,0-.64.68.65.65,0,0,0,.66.65h0l8.38-.2a.67.67,0,0,0,.65-.68Z"/><path d="M35.12,62.3,28,66.7a.65.65,0,0,0-.21.91.66.66,0,0,0,.56.32.74.74,0,0,0,.35-.1l7.15-4.4a.65.65,0,0,0,.21-.91.66.66,0,0,0-.91-.22Z"/><path d="M62.91,32.38a.66.66,0,0,0-.9.26l-4.13,7.3A.67.67,0,0,0,59,40.6l4.12-7.31a.67.67,0,0,0-.25-.91Z"/><path d="M64.52,47a.72.72,0,0,0,.34-.09L72,42.6a.66.66,0,0,0,.22-.91.66.66,0,0,0-.91-.23L64.17,45.8a.66.66,0,0,0-.22.91.65.65,0,0,0,.57.32Z"/><path d="M75,54.26l-8.39-.2a.67.67,0,1,0,0,1.33l8.38.2h0a.65.65,0,0,0,.66-.65.67.67,0,0,0-.64-.68Z"/><path d="M72,66.7l-7.15-4.4a.66.66,0,0,0-.91.22.65.65,0,0,0,.21.91l7.15,4.4a.74.74,0,0,0,.35.1.66.66,0,0,0,.56-.32A.65.65,0,0,0,72,66.7Z"/><text x="0" y="115" fill="#000000" font-size="5px" font-weight="bold" font-family="'Helvetica Neue', Helvetica, Arial-Unicode, Arial, Sans-serif">Created by Suncheli Project</text><text x="0" y="120" fill="#000000" font-size="5px" font-weight="bold" font-family="'Helvetica Neue', Helvetica, Arial-Unicode, Arial, Sans-serif">from the Noun Project</text></svg>