<svg xmlns="http://www.w3.org/2000/svg" viewBox="0 0 512 640" x="0px" y="0px"><rect x="248" y="40" width="16" height="16"/><path d="M416,368h40V352H440V304h16V288H368V264a8,8,0,0,0-8-8H324.944l-13.789-27.578A8,8,0,0,0,304,224H287.588L280.176,83.138l13.481-13.481A8,8,0,0,0,296,64V56H402.4l-31.111,56H368a8,8,0,0,0-8,8,56,56,0,0,0,112,0,8,8,0,0,0-8-8h-3.293L429.6,56H448V40H296V24a8,8,0,0,0-8-8H224a8,8,0,0,0-8,8V40H64V56H82.4L51.293,112H48a8,8,0,0,0-8,8,56,56,0,0,0,112,0,8,8,0,0,0-8-8h-3.293L109.6,56H216v8a8,8,0,0,0,2.343,5.657l13.481,13.481L224.41,224H208a8,8,0,0,0-7.155,4.422L187.056,256H152a8,8,0,0,0-8,8v24H88a39.967,39.967,0,0,0-31.426,64.7A40,40,0,0,0,64,432h.022A39.978,39.978,0,0,0,96,496H464V480H448V432h16V416H416Zm0-208a40.071,40.071,0,0,1-39.2-32H455.2A40.071,40.071,0,0,1,416,160Zm-26.4-48L416,64.473,442.4,112ZM96,160a40.071,40.071,0,0,1-39.2-32H135.2A40.071,40.071,0,0,1,96,160ZM69.6,112,96,64.473,122.4,112ZM245.657,74.343,232,60.687V32h48V60.687L266.343,74.343a8,8,0,0,0-2.332,6.077L271.567,224H240.432l7.557-143.579A8,8,0,0,0,245.657,74.343ZM212.944,240h86.112l8,16H204.944ZM160,272H352v16H160ZM88,304H424v48H328V336h16V320H264v16h16v16H88a24,24,0,0,1,0-48Zm208,32h16v45.754l-16-4ZM40,392a24.027,24.027,0,0,1,24-24H280v16a8,8,0,0,0,6.06,7.761l32,8A8,8,0,0,0,328,392V368h72v48H192V400h16V384H128v16h16v16H64A24.027,24.027,0,0,1,40,392Zm120,8h16v45.754l-16-4Zm272,80H96a24,24,0,0,1,0-48h48v16a8,8,0,0,0,6.06,7.761l32,8A8,8,0,0,0,192,456V432H432Z"/><rect x="88" y="320" width="160" height="16"/><rect x="360" y="320" width="48" height="16"/><rect x="64" y="384" width="48" height="16"/><rect x="344" y="384" width="40" height="16"/><rect x="96" y="448" width="32" height="16"/><rect x="208" y="448" width="208" height="16"/><rect x="224" y="384" width="40" height="16"/><text x="0" y="527" fill="#000000" font-size="32px" font-weight="bold" font-family="'Helvetica Neue', Helvetica, Arial-Unicode, Arial, Sans-serif">Created by Nhor</text><text x="0" y="562" fill="#000000" font-size="32px" font-weight="bold" font-family="'Helvetica Neue', Helvetica, Arial-Unicode, Arial, Sans-serif">from the Noun Project</text></svg>