<svg xmlns="http://www.w3.org/2000/svg" data-name="Layer 4" viewBox="0 0 512 640" x="0px" y="0px"><path d="M472.67,320.81H461.85V243a6.5,6.5,0,0,0-6.5-6.5H310.29c9-7.35,16.9-18.12,23-31.47,7.95-17.4,12.14-37.73,11.5-55.77-.9-25.32-11.17-43.2-28.2-49.08a61.71,61.71,0,0,0-11.28-2.79A76.67,76.67,0,0,0,320.8,75.2a92.78,92.78,0,0,0,8.63-35.87,6.48,6.48,0,0,0-6.71-6.5c-20.89.68-37.66,7.66-49.84,20.76-8.61,9.25-13.63,20.2-16.55,30.14a44.51,44.51,0,0,0-9.4-12.54c-15.3-14.22-36-12.88-36.87-12.82a6.5,6.5,0,0,0,.93,13c.15,0,16.1-.92,27.17,9.46,6.19,5.8,9.86,14.16,11,24.93a88.37,88.37,0,0,1-10.58-3.41c-11.2-4.14-23.9-8.82-43.14-2.18-17,5.88-27.3,23.76-28.2,49.08-.64,18,3.55,38.37,11.5,55.77,6.1,13.35,14,24.12,23,31.47H48a6.5,6.5,0,0,0-6.5,6.5v84.36a6.5,6.5,0,0,0,6.5,6.5H64.64v52.68H39.33a6.5,6.5,0,0,0-6.5,6.5v79.68a6.5,6.5,0,0,0,6.5,6.5H440.86a6.5,6.5,0,0,0,6.5-6.5V399.49h25.31a6.5,6.5,0,0,0,6.5-6.5V327.31A6.5,6.5,0,0,0,472.67,320.81ZM282.45,62.38c8.33-8.92,19.55-14.28,33.42-16-2,14.92-10.76,48.75-50.24,58C266.56,94.16,270,75.71,282.45,62.38Zm-91.91,137.2c-7.14-15.63-10.91-33.82-10.34-49.91.33-9.3,2.89-31.53,19.45-37.25,14.85-5.13,24.35-1.62,34.4,2.09,6.7,2.47,13.64,5,21.95,5s15.25-2.56,21.95-5c10.05-3.71,19.55-7.22,34.4-2.09,16.56,5.72,19.12,28,19.45,37.25.57,16.09-3.2,34.28-10.34,49.91-7.44,16.28-17.62,27.85-28.68,32.56-13,5.55-23.19,1.21-30.62-2-1.37-.59-2.67-1.14-3.9-1.6a6.43,6.43,0,0,0-4.52,0c-1.23.46-2.53,1-3.9,1.6-7.43,3.17-17.61,7.51-30.62,2C208.16,227.43,198,215.86,190.54,199.58ZM448.85,320.81H374V249.45h74.82Zm-130.69,0V249.45h21.93v71.36Zm27.93-71.36H368v71.36H346.09Zm-291.64,0H312.16v71.36H54.45Zm115.06,137V333.81h7v52.68Zm-19-52.68v52.68h-7V333.81Zm6,0h7v52.68h-7Zm-78.9,0h59.94v52.68H77.64ZM434.36,466.17H45.83V399.49H434.36Zm31.81-79.68H182.48V333.81H466.17Z"/><path d="M56.41,452.6a3.28,3.28,0,1,0,2.31,1A3.27,3.27,0,0,0,56.41,452.6Z"/><path d="M68.82,453.56a3.28,3.28,0,1,0,2.32-1A3.29,3.29,0,0,0,68.82,453.56Z"/><path d="M85.87,459.15a3.28,3.28,0,1,0-2.31-1A3.27,3.27,0,0,0,85.87,459.15Z"/><path d="M65.22,304a3.28,3.28,0,1,0,2.32,1A3.25,3.25,0,0,0,65.22,304Z"/><path d="M80,310.51a3.28,3.28,0,1,0-2.32-1A3.27,3.27,0,0,0,80,310.51Z"/><path d="M94.69,310.51a3.28,3.28,0,1,0-2.31-1A3.27,3.27,0,0,0,94.69,310.51Z"/><path d="M256.55,452.89h127a19.46,19.46,0,1,0,0-38.92H256.55a19.46,19.46,0,0,0,0,38.92Zm0-32.92h127a13.46,13.46,0,1,1,0,26.92H256.55a13.46,13.46,0,0,1,0-26.92Z"/><path d="M108.87,310.23H302.19a3,3,0,1,0,0-6H108.87a3,3,0,0,0,0,6Z"/><path d="M101.24,458.88H235.92a3,3,0,0,0,0-6H101.24a3,3,0,0,0,0,6Z"/><path d="M383.91,311.23h52.65a3,3,0,0,0,0-6H383.91a3,3,0,0,0,0,6Z"/><text x="0" y="527" fill="#000000" font-size="32px" font-weight="bold" font-family="'Helvetica Neue', Helvetica, Arial-Unicode, Arial, Sans-serif">Created by Aman</text><text x="0" y="562" fill="#000000" font-size="32px" font-weight="bold" font-family="'Helvetica Neue', Helvetica, Arial-Unicode, Arial, Sans-serif">from the Noun Project</text></svg>